<?xml version="1.0" encoding="UTF-8" standalone="no"?>
<!-- Created with Inkscape (http://www.inkscape.org/) -->

<svg
   xmlns:dc="http://purl.org/dc/elements/1.1/"
   xmlns:cc="http://creativecommons.org/ns#"
   xmlns:rdf="http://www.w3.org/1999/02/22-rdf-syntax-ns#"
   xmlns:svg="http://www.w3.org/2000/svg"
   xmlns="http://www.w3.org/2000/svg"
   xmlns:sodipodi="http://sodipodi.sourceforge.net/DTD/sodipodi-0.dtd"
   xmlns:inkscape="http://www.inkscape.org/namespaces/inkscape"
   width="60.92437mm"
   height="60.924717mm"
   viewBox="0 0 60.924369 60.924717"
   version="1.1"
   id="svg5725"
   inkscape:version="0.92.1 r15371"
   sodipodi:docname="face3.svg">
  <defs
     id="defs5719" />
  <sodipodi:namedview
     id="base"
     pagecolor="#ffffff"
     bordercolor="#666666"
     borderopacity="1.0"
     inkscape:pageopacity="0.0"
     inkscape:pageshadow="2"
     inkscape:zoom="2.8"
     inkscape:cx="-143.85371"
     inkscape:cy="81.094215"
     inkscape:document-units="mm"
     inkscape:current-layer="layer1"
     showgrid="false"
     fit-margin-top="0"
     fit-margin-left="0"
     fit-margin-right="0"
     fit-margin-bottom="0"
     inkscape:window-width="1920"
     inkscape:window-height="1001"
     inkscape:window-x="-9"
     inkscape:window-y="-9"
     inkscape:window-maximized="1" />
  <metadata
     id="metadata5722">
    <rdf:RDF>
      <cc:Work
         rdf:about="">
        <dc:format>image/svg+xml</dc:format>
        <dc:type
           rdf:resource="http://purl.org/dc/dcmitype/StillImage" />
        <dc:title></dc:title>
      </cc:Work>
    </rdf:RDF>
  </metadata>
  <g
     inkscape:label="Layer 1"
     inkscape:groupmode="layer"
     id="layer1"
     transform="translate(82.031813,-80.171532)">
    <path
       inkscape:connector-curvature="0"
       d="m -52.574869,133.47625 c 1.234723,0.16475 2.481085,0.0646 3.739443,-0.29986 l -0.600075,4.30389 -3.139368,-4.00403"
       style="fill:#f9b282;fill-opacity:1;fill-rule:evenodd;stroke:none;stroke-width:0.03527778"
       id="path330" />
    <path
       inkscape:connector-curvature="0"
       d="m -46.436888,131.6418 2.787295,-2.20486 2.010834,1.69334 -1.058334,8.73125 c -0.421568,0.12488 -0.847725,0.23989 -1.278818,0.34395 l -4.119033,-4.11868 1.41111,-3.81 0.246946,-0.635"
       style="fill:#fbc907;fill-opacity:1;fill-rule:evenodd;stroke:none;stroke-width:0.03527778"
       id="path332" />
    <path
       inkscape:connector-curvature="0"
       d="m -58.175216,140.43479 -5.2832,-7.92868 1.834797,-2.01083 7.796035,7.09083 -2.945341,3.10444 c -0.473428,-0.0741 -0.940858,-0.15945 -1.402291,-0.25576"
       style="fill:#fbc907;fill-opacity:1;fill-rule:evenodd;stroke:none;stroke-width:0.03527778"
       id="path334" />
    <path
       inkscape:connector-curvature="0"
       d="m -48.094944,136.0868 -0.590902,4.88598 c -0.356307,0.0332 -0.715082,0.0596 -1.075622,0.0794 l -1.049512,-4.27743 -3.774723,-3.81 c 0.669925,0.24695 1.340557,0.41734 2.010834,0.51153 l 3.139368,4.00403 0.600075,-4.30389 c 0.717198,-0.21167 1.434396,-0.51153 2.151592,-0.89959 l -1.41111,3.81"
       style="fill:#e99152;fill-opacity:1;fill-rule:evenodd;stroke:none;stroke-width:0.03527778"
       id="path336" />
    <path
       inkscape:connector-curvature="0"
       d="m -37.855218,137.93007 2.037292,-5.31813 3.721807,1.46403 c -1.8161,1.53846 -3.735565,2.82328 -5.759099,3.8541"
       style="fill:#b01d30;fill-opacity:1;fill-rule:evenodd;stroke:none;stroke-width:0.03527778"
       id="path338" />
    <path
       inkscape:connector-curvature="0"
       d="m -46.948418,140.77875 0.106188,-0.44097 0.396875,0.37041 c -0.168275,0.0233 -0.335491,0.0469 -0.503063,0.0706"
       style="fill:#b01d30;fill-opacity:1;fill-rule:evenodd;stroke:none;stroke-width:0.03527778"
       id="path340" />
    <path
       inkscape:connector-curvature="0"
       d="m -65.398694,133.38805 3.872089,6.12952 c -2.856442,-0.97014 -5.528733,-2.3869 -8.017228,-4.25097 l 4.145139,-1.87855"
       style="fill:#b01d30;fill-opacity:1;fill-rule:evenodd;stroke:none;stroke-width:0.03527778"
       id="path342" />
    <path
       inkscape:connector-curvature="0"
       d="m -40.730709,139.20007 1.138063,-9.49854 9.198678,2.83104 c -0.555625,0.5394 -1.123243,1.05375 -1.702151,1.5434 l -3.721807,-1.46403 -2.037292,5.31813 c -0.937328,0.47766 -1.895475,0.90135 -2.875491,1.27"
       style="fill:#7d1725;fill-opacity:1;fill-rule:evenodd;stroke:none;stroke-width:0.03527778"
       id="path344" />
    <path
       inkscape:connector-curvature="0"
       d="m -48.685846,140.97278 0.590902,-4.88598 4.119033,4.11868 c -0.808567,0.2025 -1.631598,0.37007 -2.469444,0.50271 l -0.396875,-0.37041 -0.106188,0.44097 c -0.57291,0.0811 -1.151818,0.1457 -1.737428,0.19403"
       style="fill:#7d1725;fill-opacity:1;fill-rule:evenodd;stroke:none;stroke-width:0.03527778"
       id="path346" />
    <path
       inkscape:connector-curvature="0"
       d="m -53.774313,141.02569 2.963333,-4.25097 1.049512,4.27743 c -0.596193,0.0293 -1.198737,0.0441 -1.807985,0.0441 -0.745773,0 -1.48096,-0.0236 -2.20486,-0.0706"
       style="fill:#7d1725;fill-opacity:1;fill-rule:evenodd;stroke:none;stroke-width:0.03527778"
       id="path348" />
    <path
       inkscape:connector-curvature="0"
       d="m -63.458416,132.50611 5.2832,7.92868 c -1.143706,-0.2413 -2.260953,-0.54716 -3.351389,-0.91722 l -3.872089,-6.12952 1.940278,-0.88194"
       style="fill:#7d1725;fill-opacity:1;fill-rule:evenodd;stroke:none;stroke-width:0.03527778"
       id="path350" />
    <path
       inkscape:connector-curvature="0"
       d="m -54.585703,132.96472 -4.833055,-4.88597 2.645833,1.37583 2.133954,-12.20611 h 7.302852 l 1.940276,10.65389 0.916872,-1.60514 -1.957917,5.34458 -0.246946,0.635 c -0.717196,0.38806 -1.434394,0.68792 -2.151592,0.89959 -1.258358,0.36442 -2.50472,0.46461 -3.739443,0.29986 -0.670277,-0.0942 -1.340909,-0.26458 -2.010834,-0.51153"
       style="fill:#9b4c31;fill-opacity:1;fill-rule:evenodd;stroke:none;stroke-width:0.03527778"
       id="path352" />
    <path
       inkscape:connector-curvature="0"
       d="m -39.592646,129.70153 -1.138063,9.49854 c -0.644171,0.24412 -1.299634,0.46461 -1.966384,0.66146 l 1.058334,-8.73125 -2.010834,-1.69334 -2.787295,2.20486 1.957917,-5.34458 4.886325,3.40431"
       style="fill:#d4ac14;fill-opacity:1;fill-rule:evenodd;stroke:none;stroke-width:0.03527778"
       id="path354" />
    <path
       inkscape:connector-curvature="0"
       d="m -50.81098,136.77472 -2.963333,4.25097 c -1.020588,-0.0653 -2.020359,-0.17709 -2.998612,-0.33514 l 2.945341,-3.10444 -7.796035,-7.09083 2.204861,-2.41653 4.833055,4.88597 3.774723,3.81"
       style="fill:#d4ac14;fill-opacity:1;fill-rule:evenodd;stroke:none;stroke-width:0.03527778"
       id="path356" />
    <path
       inkscape:connector-curvature="0"
       d="m -64.499111,115.69625 c -0.03493,0.0116 -0.06421,0.0293 -0.08819,0.0529 -0.02328,0.0116 -0.05256,0.0233 -0.08819,0.0353 -0.905227,0.35278 -2.122311,-0.71155 -3.650897,-3.19264 0,-0.0116 -0.006,-0.0236 -0.01764,-0.0353 -0.458611,-0.76447 -0.76447,-1.5935 -0.917575,-2.48709 -0.305506,-2.42252 0.8001,-2.98697 3.316463,-1.69333 0.03493,0.0233 0.07056,0.0469 0.105481,0.0706 0.03563,0.0116 0.07091,0.0293 0.105833,0.0529 l 1.234723,7.19667"
       style="fill:#f6af73;fill-opacity:1;fill-rule:evenodd;stroke:none;stroke-width:0.03527778"
       id="path512" />
    <path
       inkscape:connector-curvature="0"
       d="m -64.252166,115.48458 -0.352778,-3.28083 4.497916,-13.158606 c 5.42149,2.610546 10.671527,3.621616 15.751882,3.033886 1.728258,4.28025 2.063395,9.94233 1.005062,16.98625 -0.01164,0.0705 -0.02328,0.14675 -0.03493,0.2293 l -0.01765,0.10584 c -0.01164,0.0469 -0.01799,0.0882 -0.01799,0.12347 -1.458031,8.84308 -6.361641,12.47069 -14.710481,10.88319 -1.211438,-0.96449 -2.316691,-2.26377 -3.316111,-3.89819 -1.22308,-1.9872 -2.040466,-3.96275 -2.452158,-5.92667 l -0.15875,-1.97555 -0.194028,-3.12209"
       style="fill:#f6af73;fill-opacity:1;fill-rule:evenodd;stroke:none;stroke-width:0.03527778"
       id="path514" />
    <path
       inkscape:connector-curvature="0"
       d="m -40.704251,115.78444 0.776465,-7.16139 c 0.03493,-0.0236 0.07056,-0.0413 0.105481,-0.0529 2.751667,-1.52894 3.96875,-1.02905 3.651602,1.4993 -0.153106,0.89359 -0.452615,1.72262 -0.899935,2.48709 -0.02328,0.0116 -0.03493,0.0236 -0.03493,0.0353 -1.44639,2.36362 -2.610908,3.43959 -3.492855,3.22792 -0.03493,-0.012 -0.0702,-0.0236 -0.105833,-0.0353"
       style="fill:#f6af73;fill-opacity:1;fill-rule:evenodd;stroke:none;stroke-width:0.03527778"
       id="path516" />
    <path
       inkscape:connector-curvature="0"
       d="m -64.604944,112.20375 0.352778,3.28083 c -0.0822,0.0822 -0.164395,0.15276 -0.246945,0.21167 l -1.234722,-7.19667 c 0.235303,0.12912 0.494242,0.27623 0.776111,0.44097 l 0.352778,3.2632"
       style="fill:#cd7f4f;fill-opacity:1;fill-rule:evenodd;stroke:none;stroke-width:0.03527778"
       id="path518" />
    <path
       inkscape:connector-curvature="0"
       d="m -39.927786,108.62305 -0.776465,7.16139 c -0.02328,0 -0.05256,-0.006 -0.08819,-0.0176 -0.129117,-0.0706 -0.25259,-0.16475 -0.370065,-0.28223 l 0.687916,-6.54402 c 0.1524,-0.0942 0.299509,-0.18239 0.440974,-0.26459 0.03493,-0.0236 0.07056,-0.0413 0.105833,-0.0529"
       style="fill:#cd7f4f;fill-opacity:1;fill-rule:evenodd;stroke:none;stroke-width:0.03527778"
       id="path520" />
    <path
       inkscape:connector-curvature="0"
       d="m -40.474593,108.94055 -0.687916,6.54403 -0.176387,3.12209 -0.159105,1.97555 c -0.387702,1.95192 -1.18745,3.92748 -2.398535,5.92667 -1.552575,2.55164 -3.363383,4.28025 -5.433132,5.18583 -1.987195,0.85831 -4.215341,0.85831 -6.684785,0 -0.741186,-0.32914 -1.446741,-0.75847 -2.116666,-1.28764 8.348839,1.5875 13.25245,-2.04011 14.710481,-10.88319 0,-0.0353 0.0063,-0.0765 0.01799,-0.12347 l 0.01765,-0.10584 c 0.01164,-0.0825 0.02328,-0.15875 0.03493,-0.2293 1.058334,-7.04392 0.723197,-12.706 -1.005062,-16.98625 -5.080354,0.58773 -10.330391,-0.42334 -15.751881,-3.033886 l -4.497927,13.158606 -0.352778,-3.2632 -0.123119,-1.09361 c -1.822803,-11.947516 1.387122,-18.133126 9.630832,-18.556106 h 5.379863 c 8.231362,0.42298 11.47092,6.60859 9.718675,18.556106 l -0.123122,1.09361"
       style="fill:#e99152;fill-opacity:1;fill-rule:evenodd;stroke:none;stroke-width:0.03527778"
       id="path522" />
    <path
       inkscape:connector-curvature="0"
       d="m -49.629176,114.92014 c -2.293054,2.63419 -4.345162,2.63419 -6.156324,0 1.869722,0.9525 3.922182,0.9525 6.156324,0"
       style="fill:#e99152;fill-opacity:1;fill-rule:evenodd;stroke:none;stroke-width:0.03527778"
       id="path668" />
    <path
       inkscape:connector-curvature="0"
       d="m -49.629176,114.92014 c -2.234142,0.9525 -4.286602,0.9525 -6.156324,0 2.057754,0.42333 4.110214,0.42333 6.156324,0"
       style="fill:#9b4c31;fill-opacity:1;fill-rule:evenodd;stroke:none;stroke-width:0.03527778"
       id="path670" />
    <path
       inkscape:connector-curvature="0"
       d="m -47.230638,119.84139 0.776462,0.75847 -0.758825,-0.19403 c -0.258233,0.0822 -0.522817,0.18239 -0.79375,0.29986 -3.468862,1.34056 -6.79097,1.28764 -9.965971,-0.15875 -0.188031,-0.10583 -0.376061,-0.19402 -0.564092,-0.26458 l -0.829027,0.37042 0.687563,-0.74084 c 1.881717,0.7994 3.857273,1.17017 5.927019,1.11125 2.116666,0.20003 3.957108,-0.19402 5.520621,-1.1818"
       style="fill:#9b4c31;fill-opacity:1;fill-rule:evenodd;stroke:none;stroke-width:0.03527778"
       id="path672" />
    <path
       inkscape:connector-curvature="0"
       d="m -50.229251,124.35694 c -1.986843,-0.42333 -3.880554,-0.40569 -5.679368,0.0529 0.387701,-0.76447 1.334558,-1.11125 2.83986,-1.04069 1.493308,-0.0236 2.440165,0.30585 2.839508,0.98777"
       style="fill:#b66f54;fill-opacity:1;fill-rule:evenodd;stroke:none;stroke-width:0.03527778"
       id="path674" />
    <path
       inkscape:connector-curvature="0"
       d="m -40.368405,114.12533 c 0.910871,-0.79904 1.038929,-1.59561 0.383469,-2.38936 -0.06914,-0.0854 -0.146402,-0.16793 -0.231775,-0.24801 0.980368,-1.86478 1.96356,-2.56011 2.949223,-2.08597 0.474133,0.34113 0.33302,1.3215 -0.423688,2.94111 0.452967,-1.65171 0.420865,-2.49344 -0.09595,-2.52554 -0.538339,-0.12771 -1.171929,0.36759 -1.902179,1.48661 0.719315,-0.18098 1.110898,0.0878 1.175104,0.80715 -0.357013,-0.38347 -0.722138,-0.54857 -1.095023,-0.4953 0.751065,1.0601 0.498123,1.89653 -0.759177,2.50931"
       style="fill:#cd7f4f;fill-opacity:1;fill-rule:evenodd;stroke:none;stroke-width:0.03527778"
       id="path676" />
    <path
       inkscape:connector-curvature="0"
       d="m -65.045916,114.30172 c -0.910873,-0.7994 -1.038931,-1.59597 -0.38347,-2.38972 0.06915,-0.0854 0.146403,-0.16792 0.231775,-0.24765 -0.980369,-1.86478 -1.963561,-2.56046 -2.949222,-2.08633 -0.474133,0.34114 -0.333022,1.32151 0.423686,2.94147 -0.452966,-1.65171 -0.420864,-2.49344 0.09596,-2.52554 0.538339,-0.12771 1.171928,0.36759 1.902177,1.48625 -0.719313,-0.18097 -1.110897,0.0882 -1.175102,0.80751 0.357011,-0.38382 0.722136,-0.54892 1.095022,-0.49565 -0.751064,1.06045 -0.498122,1.89688 0.759178,2.50966"
       style="fill:#cd7f4f;fill-opacity:1;fill-rule:evenodd;stroke:none;stroke-width:0.03527778"
       id="path678" />
    <path
       inkscape:connector-curvature="0"
       d="m -49.381878,109.59425 -0.0081,-0.0639 c 1.752954,-1.41746 3.423356,-1.81963 5.011208,-1.20685 0.372888,0.13829 0.740481,0.33549 1.102783,0.59125 0.154517,0.32491 0.2159,0.75142 0.183798,1.27882 -0.06914,0.10654 -0.14111,0.20779 -0.215548,0.30374 0.0053,-0.13335 0.0024,-0.25858 -0.0081,-0.37571 -0.02117,-0.3249 -0.08255,-0.59936 -0.183798,-0.82303 -1.848908,-1.33208 -3.809648,-1.23366 -5.882216,0.29563"
       style="fill:#100f0d;fill-opacity:1;fill-rule:evenodd;stroke:none;stroke-width:0.03527778"
       id="path680" />
    <path
       inkscape:connector-curvature="0"
       d="m -43.315863,110.12165 c -1.482021,1.51201 -3.455813,1.81328 -5.922081,0.90312 l -0.143934,-1.43052 c 2.072569,-1.52929 4.033309,-1.62771 5.882217,-0.29563 0.101248,0.22367 0.162631,0.49813 0.183798,0.82303"
       style="fill:#faf6f2;fill-opacity:1;fill-rule:evenodd;stroke:none;stroke-width:0.03527778"
       id="path682" />
    <path
       inkscape:connector-curvature="0"
       d="m -49.237944,111.02477 c 2.466268,0.91016 4.44006,0.60889 5.922081,-0.90312 0.01058,0.11713 0.01341,0.24236 0.0081,0.37571 -1.330325,1.45451 -3.304469,1.65947 -5.922434,0.61525 l -0.0078,-0.0878"
       style="fill:#cd7f4f;fill-opacity:1;fill-rule:evenodd;stroke:none;stroke-width:0.03527778"
       id="path684" />
    <path
       inkscape:connector-curvature="0"
       d="m -47.503688,109.86589 c 0,-0.3997 0.132995,-0.74048 0.399695,-1.02305 0.276932,-0.28752 0.615247,-0.43145 1.014942,-0.43145 0.388763,0 0.724607,0.14393 1.00683,0.43145 0.271991,0.28257 0.40781,0.62335 0.40781,1.02305 0,0.39441 -0.135819,0.73801 -0.40781,1.03117 -0.282223,0.27693 -0.618067,0.41557 -1.00683,0.41557 -0.399695,0 -0.73801,-0.13864 -1.014942,-0.41557 -0.2667,-0.29316 -0.399695,-0.63676 -0.399695,-1.03117"
       style="fill:#b05e48;fill-opacity:1;fill-rule:evenodd;stroke:none;stroke-width:0.03527778"
       id="path686" />
    <path
       inkscape:connector-curvature="0"
       d="m -46.696534,110.38518 c -0.197202,-0.20743 -0.295627,-0.45544 -0.295627,-0.74295 0,-0.29316 0.09843,-0.54081 0.295627,-0.7433 0.207788,-0.20779 0.455438,-0.31186 0.743304,-0.31186 0.282221,0 0.527402,0.10407 0.735187,0.31186 0.197205,0.20249 0.295982,0.45014 0.295982,0.7433 0,0.28751 -0.09878,0.53552 -0.295982,0.74295 -0.207785,0.20814 -0.452966,0.31186 -0.735187,0.31186 -0.287866,0 -0.535516,-0.10372 -0.743304,-0.31186 z m 4.17195,-6.12987 c 0.809979,0.762 1.270706,1.6891 1.382538,2.7813 -2.408063,-1.74766 -5.45324,-2.09126 -9.13483,-1.03081 -0.772583,-0.34114 -0.900642,-1.0922 -0.38382,-2.2539 2.664177,-0.27164 5.375978,-0.10407 8.136112,0.50341"
       style="fill:#100f0d;fill-opacity:1;fill-rule:evenodd;stroke:none;stroke-width:0.03527778"
       id="path688" />
    <path
       inkscape:connector-curvature="0"
       d="m -46.301421,109.41222 c 0,-0.15734 0.05574,-0.29245 0.167216,-0.40499 0.111477,-0.11536 0.245886,-0.17286 0.403577,-0.17286 0.158044,0 0.292452,0.0575 0.403932,0.17286 0.111477,0.11254 0.166862,0.24765 0.166862,0.40499 0,0.15981 -0.05539,0.29633 -0.166862,0.40922 -0.11148,0.11254 -0.245888,0.16898 -0.403932,0.16898 -0.157691,0 -0.2921,-0.0564 -0.403577,-0.16898 -0.111479,-0.11289 -0.167216,-0.24941 -0.167216,-0.40922"
       style="fill:#ffffff;fill-opacity:1;fill-rule:evenodd;stroke:none;stroke-width:0.03527778"
       id="path690" />
    <path
       inkscape:connector-curvature="0"
       d="m -55.697305,109.59425 0.0078,-0.0639 c -1.752953,-1.41746 -3.423003,-1.81963 -5.010855,-1.20685 -0.372887,0.13829 -0.740834,0.33549 -1.103137,0.59125 -0.154516,0.32491 -0.215547,0.75142 -0.183797,1.27882 0.0695,0.10654 0.141111,0.20779 0.2159,0.30374 -0.0053,-0.13335 -0.0028,-0.25858 0.0081,-0.37571 0.02117,-0.3249 0.08255,-0.59936 0.183797,-0.82303 1.848909,-1.33208 3.809647,-1.23366 5.882217,0.29563"
       style="fill:#100f0d;fill-opacity:1;fill-rule:evenodd;stroke:none;stroke-width:0.03527778"
       id="path692" />
    <path
       inkscape:connector-curvature="0"
       d="m -61.763319,110.12165 c 1.481666,1.51201 3.455811,1.81328 5.92208,0.90312 l 0.143934,-1.43052 c -2.07257,-1.52929 -4.033309,-1.62771 -5.882217,-0.29563 -0.101247,0.22367 -0.162631,0.49813 -0.183797,0.82303"
       style="fill:#faf6f2;fill-opacity:1;fill-rule:evenodd;stroke:none;stroke-width:0.03527778"
       id="path694" />
    <path
       inkscape:connector-curvature="0"
       d="m -55.841239,111.02477 c -2.466269,0.91016 -4.440414,0.60889 -5.92208,-0.90312 -0.01093,0.11713 -0.01341,0.24236 -0.0081,0.37571 1.330325,1.45451 3.304469,1.65947 5.92208,0.61525 l 0.0081,-0.0878"
       style="fill:#cd7f4f;fill-opacity:1;fill-rule:evenodd;stroke:none;stroke-width:0.03527778"
       id="path696" />
    <path
       inkscape:connector-curvature="0"
       d="m -57.575494,109.86589 c 0,-0.3997 -0.13335,-0.74048 -0.399697,-1.02305 -0.276931,-0.28752 -0.615245,-0.43145 -1.014942,-0.43145 -0.389114,0 -0.724606,0.14393 -1.007181,0.43145 -0.271639,0.28257 -0.407458,0.62335 -0.407458,1.02305 0,0.39441 0.135819,0.73801 0.407458,1.03117 0.282575,0.27693 0.618067,0.41557 1.007181,0.41557 0.399697,0 0.738011,-0.13864 1.014942,-0.41557 0.266347,-0.29316 0.399697,-0.63676 0.399697,-1.03117"
       style="fill:#b05e48;fill-opacity:1;fill-rule:evenodd;stroke:none;stroke-width:0.03527778"
       id="path698" />
    <path
       inkscape:connector-curvature="0"
       d="m -58.38265,110.38518 c 0.19685,-0.20743 0.295628,-0.45544 0.295628,-0.74295 0,-0.29316 -0.09878,-0.54081 -0.295628,-0.7433 -0.207786,-0.20779 -0.455789,-0.31186 -0.743303,-0.31186 -0.282575,0 -0.527402,0.10407 -0.735188,0.31186 -0.197203,0.20249 -0.295981,0.45014 -0.295981,0.7433 0,0.28751 0.09878,0.53552 0.295981,0.74295 0.207786,0.20814 0.452613,0.31186 0.735188,0.31186 0.287514,0 0.535517,-0.10372 0.743303,-0.31186 z m -4.17195,-6.12987 c -0.809977,0.762 -1.270705,1.6891 -1.382536,2.7813 2.408061,-1.74766 5.453239,-2.09126 9.134827,-1.03081 0.772583,-0.34114 0.90029,-1.0922 0.383823,-2.2539 -2.664178,-0.27164 -5.376333,-0.10407 -8.136114,0.50341"
       style="fill:#100f0d;fill-opacity:1;fill-rule:evenodd;stroke:none;stroke-width:0.03527778"
       id="path700" />
    <path
       inkscape:connector-curvature="0"
       d="m -58.778114,109.41222 c 0,-0.15734 -0.05574,-0.29245 -0.166864,-0.40499 -0.111477,-0.11536 -0.245886,-0.17286 -0.40393,-0.17286 -0.157692,0 -0.2921,0.0575 -0.403578,0.17286 -0.111478,0.11254 -0.167217,0.24765 -0.167217,0.40499 0,0.15981 0.05574,0.29633 0.167217,0.40922 0.111478,0.11254 0.245886,0.16898 0.403578,0.16898 0.158044,0 0.292453,-0.0564 0.40393,-0.16898 0.111125,-0.11289 0.166864,-0.24941 0.166864,-0.40922"
       style="fill:#ffffff;fill-opacity:1;fill-rule:evenodd;stroke:none;stroke-width:0.03527778"
       id="path702" />
    <path
       inkscape:connector-curvature="0"
       d="m -48.271334,99.009864 c -2.974621,-0.25894 -5.926667,-1.22908 -8.854369,-2.91042 -0.105833,-0.0706 -0.211666,-0.13546 -0.317852,-0.19402 -4.303536,-1.10526 -7.055556,0.0998 -8.254647,3.61597 -0.553156,1.622776 -0.776111,3.733446 -0.670631,6.332356 l -1.798814,-1.44639 c -0.153105,-1.34055 -0.246944,-2.59891 -0.282222,-3.77472 -0.200025,-5.950296 0.928864,-9.777936 3.386667,-11.482916 l 5.132563,-2.59291 c 3.128434,-1.15253 5.397501,-2.87514 6.808611,-5.1682 0.270934,1.4344 0.946857,2.63984 2.028473,3.61597 v -2.38125 c 1.011412,1.21109 2.322687,2.23415 3.933825,3.06917 1.951919,1.81081 3.186642,3.45722 3.704167,4.93889 0.59972,1.70497 0.840317,3.32775 0.722842,4.86833 -3.574347,-1.41111 -6.755342,-1.8228 -9.542288,-1.23472 0.764471,1.81081 2.099029,3.39266 4.003675,4.74486"
       style="fill:#8c1d1d;fill-opacity:1;fill-rule:evenodd;stroke:none;stroke-width:0.03527778"
       id="path1282" />
    <path
       inkscape:connector-curvature="0"
       d="m -48.271334,99.009864 c -1.904646,-1.3522 -3.239204,-2.93405 -4.003675,-4.74486 2.786946,-0.58808 5.967941,-0.17639 9.542288,1.23472 0.117475,-1.54058 -0.123122,-3.16336 -0.722842,-4.86833 -0.517525,-1.48167 -1.752248,-3.12808 -3.704167,-4.93889 0.611362,0.31715 1.269646,0.60572 1.975202,0.86431 l 5.133269,2.59291 c 0.03528,0.0233 0.0702,0.0469 0.105833,0.0706 3.245557,2.35197 4.103865,8.51923 2.57528,18.503186 -1.775884,0.55245 -2.763309,1.49931 -2.963688,2.83986 l -0.916869,-8.20208 c 0.129469,-3.504136 -2.145948,-5.680076 -6.82625,-6.526386 l 4.021315,3.05118 c -1.411113,0.20037 -2.816225,0.2413 -4.215696,0.12382 z m -9.172221,-3.10444 c -2.18687,0.44697 -3.815645,1.20509 -4.88562,2.27506 -1.081969,1.07033 -1.593497,2.463796 -1.534583,4.180766 l -0.917575,8.20208 c -0.199672,-1.34055 -1.18745,-2.28741 -2.96298,-2.83986 -0.176389,-1.15252 -0.3175,-2.25778 -0.423334,-3.31611 l 1.798814,1.44639 c -0.10548,-2.59891 0.117475,-4.70958 0.670631,-6.332356 1.199091,-3.51614 3.951111,-4.72123 8.254647,-3.61597"
       style="fill:#411715;fill-opacity:1;fill-rule:evenodd;stroke:none;stroke-width:0.03527778"
       id="path1284" />
    <path
       inkscape:connector-curvature="0"
       d="m -45.942646,105.67736 c -0.08255,-0.012 -0.20038,-0.0176 -0.35278,-0.0176 -1.752245,0 -3.01625,0.51753 -3.79236,1.55222 -0.423333,0.61137 -0.652992,1.28165 -0.687917,2.01084 -0.03528,0.81139 0.129469,1.62277 0.49389,2.43416 0.422979,0.90558 0.99342,1.57586 1.71097,2.01084 0.399347,0.24694 0.840317,0.44097 1.322917,0.58208 0.458258,0.11748 0.934863,0.17639 1.428398,0.17639 0.529167,0 1.03505,-0.0706 1.516944,-0.21167 0.482248,-0.16474 0.917575,-0.39969 1.305279,-0.70555 0.376767,-0.28223 0.693912,-0.65864 0.952852,-1.12889 0.258585,-0.47025 0.440973,-0.99942 0.546452,-1.5875 0.09419,-0.52917 0.129823,-1.05834 0.105833,-1.5875 -0.03493,-0.52917 -0.129116,-0.99942 -0.28222,-1.41111 -0.258588,-0.70556 -0.864306,-1.24672 -1.816455,-1.62278 -0.44732,-0.17639 -0.93486,-0.30586 -1.464026,-0.38806 -0.341136,-0.0705 -0.670632,-0.10583 -0.987777,-0.10583 z m 0,-0.37042 c 0.787752,0.0469 1.534228,0.18803 2.239785,0.42334 1.234723,0.39969 2.016831,1.04069 2.346325,1.92264 l 0.01765,0.0529 c 0.211312,0 0.44097,-0.0236 0.687916,-0.0705 0.1524,-0.0116 0.246944,0.10583 0.282221,0.35277 0.03493,0.23495 -0.03528,0.3997 -0.211667,0.49389 -0.09454,0.0586 -0.270933,0.0882 -0.529167,0.0882 0.164748,0.9405 0.11148,1.89336 -0.15875,2.8575 -0.317852,1.04669 -0.817737,1.83444 -1.499303,2.36361 -0.43533,0.32914 -0.911225,0.57609 -1.42875,0.74083 -0.517525,0.16475 -1.058334,0.24695 -1.623132,0.24695 -0.529167,0 -1.04634,-0.0649 -1.551868,-0.19403 -0.49389,-0.14111 -0.9525,-0.34678 -1.375834,-0.61736 -0.788106,-0.48225 -1.405466,-1.19945 -1.852083,-2.15195 -0.388057,-0.88194 -0.564446,-1.75224 -0.529167,-2.61055 0.01164,-0.22366 0.04127,-0.42933 0.08819,-0.61736 h -0.01765 l -0.08819,-1.46403 c -0.117475,-0.10583 -0.282224,-0.20567 -0.494242,-0.29986 -0.364419,-0.14111 -0.805392,-0.21167 -1.322917,-0.21167 -0.493535,0 -0.916868,0.0706 -1.269648,0.21167 -0.235302,0.0942 -0.40005,0.19403 -0.494242,0.29986 l -0.05256,1.46403 c 0.03528,0.22331 0.05856,0.42897 0.0702,0.61736 0.03563,0.85831 -0.1524,1.72861 -0.564091,2.61055 -0.423686,0.9525 -1.029053,1.6697 -1.817159,2.15195 -0.42298,0.25858 -0.887588,0.45861 -1.393119,0.59972 -0.493889,0.12947 -0.999772,0.19403 -1.517297,0.19403 -0.587728,0 -1.140178,-0.0765 -1.657703,-0.22931 -0.505883,-0.17639 -0.976489,-0.42333 -1.411111,-0.74083 -0.693914,-0.52917 -1.187803,-1.31692 -1.481667,-2.36361 -0.282222,-0.96414 -0.341136,-1.917 -0.176389,-2.8575 -0.246944,0 -0.42933,-0.0353 -0.546805,-0.10584 -0.164747,-0.0822 -0.229306,-0.2413 -0.194381,-0.47625 0.03563,-0.24694 0.12947,-0.36441 0.282575,-0.35277 0.02328,0 0.111478,0.0116 0.264584,0.0353 0.152752,0.0233 0.287866,0.0353 0.405341,0.0353 l 0.01764,-0.0529 c 0.341136,-0.88195 1.123245,-1.52295 2.346325,-1.92264 0.717197,-0.23531 1.470025,-0.37642 2.257778,-0.42334 1.834091,-0.0709 3.215922,0.39406 4.145139,1.39348 0.27058,0.28222 0.48789,0.60536 0.652638,0.97013 l 0.03493,-0.70555 c 0,-0.012 0.03563,-0.0649 0.106186,-0.15875 0.105833,-0.10583 0.223308,-0.20602 0.352776,-0.29986 0.434624,-0.28222 0.981782,-0.42333 1.640065,-0.42333 0.693915,0 1.25236,0.14111 1.675694,0.42333 0.212021,0.14111 0.364773,0.29386 0.458613,0.45861 l 0.03563,0.0353 0.03493,0.68791 c 0.164749,-0.36442 0.382059,-0.69391 0.652992,-0.98777 0.928865,-0.99942 2.31634,-1.46438 4.16278,-1.39348 z m -13.599584,0.35278 c -0.153106,0 -0.264584,0.006 -0.335139,0.0176 -0.317853,0 -0.658636,0.0353 -1.023409,0.10583 -0.529166,0.0822 -1.011061,0.21167 -1.446036,0.38806 -0.9525,0.37606 -1.564216,0.91722 -1.834444,1.62278 -0.141464,0.41169 -0.235303,0.88194 -0.282222,1.41111 -0.02399,0.52916 0.01764,1.05833 0.123119,1.5875 0.105834,0.58808 0.288572,1.11725 0.546806,1.5875 0.258939,0.47025 0.570441,0.84666 0.935214,1.12889 0.799394,0.61136 1.751894,0.91722 2.857147,0.91722 0.470605,0 0.940858,-0.0589 1.411111,-0.17639 0.482247,-0.14111 0.917575,-0.33514 1.305278,-0.58208 0.729544,-0.43498 1.30563,-1.10526 1.728962,-2.01084 0.364422,-0.81139 0.529167,-1.62277 0.493538,-2.43416 -0.03493,-0.75248 -0.270229,-1.42276 -0.705556,-2.01084 -0.775758,-1.03469 -2.034117,-1.55222 -3.774369,-1.55222"
       style="fill:#100f0d;fill-opacity:1;fill-rule:evenodd;stroke:none;stroke-width:0.03527778"
       id="path1286" />
  </g>
</svg>
