<?xml version="1.0" encoding="UTF-8" standalone="no"?>
<!-- Created with Inkscape (http://www.inkscape.org/) -->

<svg
   xmlns:dc="http://purl.org/dc/elements/1.1/"
   xmlns:cc="http://creativecommons.org/ns#"
   xmlns:rdf="http://www.w3.org/1999/02/22-rdf-syntax-ns#"
   xmlns:svg="http://www.w3.org/2000/svg"
   xmlns="http://www.w3.org/2000/svg"
   xmlns:sodipodi="http://sodipodi.sourceforge.net/DTD/sodipodi-0.dtd"
   xmlns:inkscape="http://www.inkscape.org/namespaces/inkscape"
   width="60.924358mm"
   height="60.924721mm"
   viewBox="0 0 60.924358 60.924721"
   version="1.1"
   id="svg5725"
   inkscape:version="0.92.1 r15371"
   sodipodi:docname="face1.svg">
  <defs
     id="defs5719" />
  <sodipodi:namedview
     id="base"
     pagecolor="#ffffff"
     bordercolor="#666666"
     borderopacity="1.0"
     inkscape:pageopacity="0.0"
     inkscape:pageshadow="2"
     inkscape:zoom="2.8"
     inkscape:cx="249.80886"
     inkscape:cy="102.61293"
     inkscape:document-units="mm"
     inkscape:current-layer="layer1"
     showgrid="false"
     fit-margin-top="0"
     fit-margin-left="0"
     fit-margin-right="0"
     fit-margin-bottom="0"
     inkscape:window-width="1920"
     inkscape:window-height="1001"
     inkscape:window-x="-9"
     inkscape:window-y="-9"
     inkscape:window-maximized="1" />
  <metadata
     id="metadata5722">
    <rdf:RDF>
      <cc:Work
         rdf:about="">
        <dc:format>image/svg+xml</dc:format>
        <dc:type
           rdf:resource="http://purl.org/dc/dcmitype/StillImage" />
        <dc:title></dc:title>
      </cc:Work>
    </rdf:RDF>
  </metadata>
  <g
     inkscape:label="Layer 1"
     inkscape:groupmode="layer"
     id="layer1"
     transform="translate(186.18837,-85.865021)">
    <path
       inkscape:connector-curvature="0"
       d="m -159.55365,132.55516 c 2.09303,1.12889 4.25661,1.42275 6.49075,0.88194 l 1.23473,5.39715 -2.41618,4.95688 -2.2225,-2.20486 c -1.68204,-1.29364 -2.89277,-3.15136 -3.63396,-5.57424 l 0.54716,-3.45687"
       style="fill:#f6af73;fill-opacity:1;fill-rule:evenodd;stroke:none;stroke-width:0.03527778"
       id="path382" />
    <path
       inkscape:connector-curvature="0"
       d="m -144.3581,144.69071 c -1.35608,0.54187 -2.7552,0.98002 -4.19771,1.3141 -0.31397,-3.11997 -0.68121,-6.28015 -1.10243,-9.4809 l -0.0176,-0.28222 c -0.0116,-0.16475 -0.0356,-0.34114 -0.0706,-0.52917 l -0.17639,-0.84702 3.70417,1.55257 1.37548,1.62243 1.41111,1.65841 -3.10444,3.24555 2.1784,1.74625"
       style="fill:#4e4f51;fill-opacity:1;fill-rule:evenodd;stroke:none;stroke-width:0.03527778"
       id="path384" />
    <path
       inkscape:connector-curvature="0"
       d="m -142.45275,143.84405 -0.92604,-1.00542 3.47451,-1.35855 0.5207,0.61736 c -0.99519,0.64982 -2.0186,1.2319 -3.06917,1.74661"
       style="fill:#4e4f51;fill-opacity:1;fill-rule:evenodd;stroke:none;stroke-width:0.03527778"
       id="path386" />
    <path
       inkscape:connector-curvature="0"
       d="m -160.10081,136.01203 c -0.0106,3.50026 0.0395,7.0044 0.15028,10.51313 -1.29575,-0.1651 -2.56011,-0.40887 -3.79236,-0.73202 l 0.87313,-0.85548 -3.75744,-0.70556 1.90535,-3.43958 0.97014,-1.74625 3.6509,-3.03424"
       style="fill:#4e4f51;fill-opacity:1;fill-rule:evenodd;stroke:none;stroke-width:0.03527778"
       id="path388" />
    <path
       inkscape:connector-curvature="0"
       d="m -167.08581,142.27383 -0.83785,2.07257 c -0.47942,-0.21096 -0.95285,-0.43462 -1.41958,-0.66992 l 2.25743,-1.40265"
       style="fill:#4e4f51;fill-opacity:1;fill-rule:evenodd;stroke:none;stroke-width:0.03527778"
       id="path390" />
    <path
       inkscape:connector-curvature="0"
       d="m -149.65824,136.52391 c 0.42122,3.20075 0.78846,6.36093 1.10243,9.4809 -0.4579,0.10407 -0.91969,0.19791 -1.38465,0.28187 -0.88159,-1.07103 -1.81081,-1.72085 -2.78694,-1.94875 2.17558,-2.41088 3.19828,-5.01544 3.06916,-7.81402"
       style="fill:#e9eae9;fill-opacity:1;fill-rule:evenodd;stroke:none;stroke-width:0.03527778"
       id="path392" />
    <path
       inkscape:connector-curvature="0"
       d="m -158.09845,146.71037 0.69674,-1.22591 0.097,1.27 c -0.2674,-0.0124 -0.53198,-0.0272 -0.79375,-0.0441"
       style="fill:#e9eae9;fill-opacity:1;fill-rule:evenodd;stroke:none;stroke-width:0.03527778"
       id="path394" />
    <path
       inkscape:connector-curvature="0"
       d="m -156.46685,141.58627 c -1.18251,0.41204 -2.25531,2.0701 -3.2191,4.97416 -0.0875,-0.0116 -0.17568,-0.024 -0.26458,-0.0353 -0.11077,-3.50872 -0.16086,-7.01286 -0.15028,-10.51312 0.74119,2.42287 1.95192,4.2806 3.63396,5.57423"
       style="fill:#e9eae9;fill-opacity:1;fill-rule:evenodd;stroke:none;stroke-width:0.03527778"
       id="path396" />
    <path
       inkscape:connector-curvature="0"
       d="m -153.0629,133.4371 c -2.23414,0.54081 -4.39772,0.24695 -6.49075,-0.88194 l 1.79916,-11.37709 h 4.70923 l 2.57564,11.27125 c -0.88195,0.44662 -1.74625,0.77612 -2.59328,0.98778"
       style="fill:#cd7f4f;fill-opacity:1;fill-rule:evenodd;stroke:none;stroke-width:0.03527778"
       id="path398" />
    <path
       inkscape:connector-curvature="0"
       d="m -155.81421,146.78974 -0.65264,-5.20347 2.2225,2.20486 2.41618,-4.95688 -1.23473,-5.39715 c 0.84703,-0.21166 1.71133,-0.54116 2.59328,-0.98778 l 0.5468,2.41618 0.17639,0.84702 c 0.0349,0.18803 0.0589,0.36442 0.0706,0.52917 l 0.0177,0.28222 c 0.12912,2.79858 -0.89359,5.40314 -3.06917,7.81402 l -0.39687,2.3548 c -0.85302,0.0646 -1.72015,0.097 -2.60174,0.097 -0.0293,0 -0.0586,0 -0.0882,0"
       style="fill:#e99152;fill-opacity:1;fill-rule:evenodd;stroke:none;stroke-width:0.03527778"
       id="path400" />
    <path
       inkscape:connector-curvature="0"
       d="m -153.12428,146.69273 0.39688,-2.3548 c 0.97613,0.2279 1.90535,0.87772 2.78694,1.94875 -1.03893,0.18768 -2.10009,0.32279 -3.18382,0.40605"
       style="fill:#c1bfbd;fill-opacity:1;fill-rule:evenodd;stroke:none;stroke-width:0.03527778"
       id="path402" />
    <path
       inkscape:connector-curvature="0"
       d="m -159.68595,146.56043 c 0.96379,-2.90406 2.03659,-4.56212 3.2191,-4.97416 l 0.65264,5.20347 c -0.5013,-0.001 -0.99801,-0.013 -1.49049,-0.0353 l -0.097,-1.27 -0.69673,1.2259 c -0.5334,-0.0374 -1.06257,-0.0871 -1.5875,-0.14993"
       style="fill:#c1bfbd;fill-opacity:1;fill-rule:evenodd;stroke:none;stroke-width:0.03527778"
       id="path404" />
    <path
       inkscape:connector-curvature="0"
       d="m -139.38358,142.09744 -0.5207,-0.61736 -3.47451,1.35855 0.92604,1.00542 c -0.62477,0.30515 -1.25977,0.58737 -1.90535,0.84666 l -2.17841,-1.74625 3.10445,-3.24555 -1.41111,-1.65841 7.02945,2.96368 c -0.51576,0.38453 -1.03893,0.74895 -1.56986,1.09326"
       style="fill:#2b2929;fill-opacity:1;fill-rule:evenodd;stroke:none;stroke-width:0.03527778"
       id="path406" />
    <path
       inkscape:connector-curvature="0"
       d="m -167.92366,144.3464 0.83785,-2.07257 2.36396,-1.48131 -1.90535,3.43958 3.75744,0.70556 -0.87313,0.85548 c -1.43863,-0.37676 -2.83175,-0.85901 -4.18077,-1.44674"
       style="fill:#2b2929;fill-opacity:1;fill-rule:evenodd;stroke:none;stroke-width:0.03527778"
       id="path408" />
    <path
       inkscape:connector-curvature="0"
       d="m -143.16748,119.16689 0.77611,-7.16104 c 0.0356,-0.0236 0.0709,-0.0413 0.10584,-0.0529 2.75202,-1.52894 3.96875,-1.02905 3.6516,1.49931 -0.15311,0.89359 -0.45262,1.72261 -0.89958,2.48708 -0.0236,0.0116 -0.0356,0.0233 -0.0356,0.0353 -1.44604,2.36361 -2.61021,3.43959 -3.49215,3.22792 -0.0356,-0.0116 -0.0706,-0.0233 -0.10619,-0.0356"
       style="fill:#f6af73;fill-opacity:1;fill-rule:evenodd;stroke:none;stroke-width:0.03527778"
       id="path536" />
    <path
       inkscape:connector-curvature="0"
       d="m -166.96199,119.0787 c -0.0356,0.0124 -0.0649,0.0296 -0.0882,0.0533 -0.0236,0.0116 -0.0529,0.0233 -0.0882,0.0349 -0.90558,0.35277 -2.12301,-0.7112 -3.6516,-3.19229 0,-0.012 -0.006,-0.0236 -0.0173,-0.0353 -0.45861,-0.76447 -0.76447,-1.5935 -0.91722,-2.48708 -0.30586,-2.42253 0.79975,-2.98697 3.31576,-1.69369 0.0356,0.024 0.0709,0.0473 0.10583,0.0709 0.0356,0.0116 0.0706,0.0296 0.10619,0.0529 l 1.23472,7.19632"
       style="fill:#f6af73;fill-opacity:1;fill-rule:evenodd;stroke:none;stroke-width:0.03527778"
       id="path538" />
    <path
       inkscape:connector-curvature="0"
       d="m -166.71539,118.86738 -0.31715,-3.05188 c 0.14076,-10.80629 1.85208,-15.61606 5.13291,-14.42826 5.99723,2.71639 10.15965,2.72239 12.48834,0.0176 2.65747,0.36442 4.14514,2.12831 4.46228,5.29167 l -0.91686,15.98083 c -1.02341,6.09106 -6.03286,8.6487 -15.02869,7.67292 -3.12773,-1.79917 -4.95053,-3.92748 -5.46806,-6.38528 l -0.15839,-1.97591 -0.19438,-3.12173"
       style="fill:#f6af73;fill-opacity:1;fill-rule:evenodd;stroke:none;stroke-width:0.03527778"
       id="path540" />
    <path
       inkscape:connector-curvature="0"
       d="m -142.39137,112.00585 -0.77611,7.16104 c -0.0233,0 -0.0526,-0.006 -0.0882,-0.0173 -0.12912,-0.0709 -0.25294,-0.16475 -0.37042,-0.28222 l 0.68827,-6.54403 c 0.15276,-0.0942 0.29951,-0.18239 0.44098,-0.26458 0.0349,-0.0233 0.0706,-0.0413 0.10548,-0.0529"
       style="fill:#cd7f4f;fill-opacity:1;fill-rule:evenodd;stroke:none;stroke-width:0.03527778"
       id="path542" />
    <path
       inkscape:connector-curvature="0"
       d="m -166.71539,118.86738 c -0.0818,0.0822 -0.16475,0.15275 -0.2466,0.21132 l -1.23472,-7.19632 c 0.23495,0.12912 0.49354,0.27623 0.77576,0.44097 l 0.38841,3.49215 0.31715,3.05188"
       style="fill:#cd7f4f;fill-opacity:1;fill-rule:evenodd;stroke:none;stroke-width:0.03527778"
       id="path544" />
    <path
       inkscape:connector-curvature="0"
       d="m -142.93782,112.32335 -0.68827,6.54403 -0.17639,3.12173 -0.15875,1.97591 c -0.59937,3.03389 -3.20992,5.56225 -7.83131,7.58472 -1.98755,0.85866 -4.2157,0.85866 -6.68514,0 -0.88194,-0.38841 -1.68734,-0.78775 -2.41688,-1.19944 8.99583,0.97578 14.00528,-1.58186 15.02869,-7.67292 l 0.91686,-15.98083 c -0.31714,-3.16336 -1.80481,-4.92725 -4.46228,-5.29167 -2.32869,2.70475 -6.49111,2.69875 -12.48834,-0.0176 -3.28083,-1.1878 -4.99215,3.62197 -5.13291,14.42826 l -0.38841,-3.49215 -0.12312,-1.09396 c -1.8228,-11.947173 1.38748,-18.132425 9.63048,-18.555759 h 5.37986 c 8.23137,0.423334 11.47128,6.608586 9.71903,18.555759 l -0.12312,1.09396"
       style="fill:#e99152;fill-opacity:1;fill-rule:evenodd;stroke:none;stroke-width:0.03527778"
       id="path546" />
    <path
       inkscape:connector-curvature="0"
       d="m -158.95428,120.1903 c 1.87007,1.5875 3.92183,1.5875 6.15597,0 -2.29306,4.37444 -4.34481,4.37444 -6.15597,0"
       style="fill:#e99152;fill-opacity:1;fill-rule:evenodd;stroke:none;stroke-width:0.03527778"
       id="path984" />
    <path
       inkscape:connector-curvature="0"
       d="m -158.95428,120.1903 c 2.0581,0.70555 4.11021,0.70555 6.15597,0 -2.23414,1.5875 -4.2859,1.5875 -6.15597,0"
       style="fill:#9b4c31;fill-opacity:1;fill-rule:evenodd;stroke:none;stroke-width:0.03527778"
       id="path986" />
    <path
       inkscape:connector-curvature="0"
       d="m -148.28276,125.67599 -1.62242,0.22931 c -3.08116,1.36384 -6.70278,1.46967 -10.86556,0.31715 -0.0705,-0.0349 -0.1471,-0.0702 -0.22965,-0.10549 l -1.1991,-0.14111 1.1991,-0.10618 c 3.63361,0.56479 7.40833,0.41169 11.32452,-0.45826 l 1.39311,0.26458"
       style="fill:#9b4c31;fill-opacity:1;fill-rule:evenodd;stroke:none;stroke-width:0.03527778"
       id="path988" />
    <path
       inkscape:connector-curvature="0"
       d="m -142.83199,117.50813 c 0.91123,-0.7994 1.03929,-1.59597 0.38383,-2.38972 -0.0691,-0.0854 -0.14641,-0.16792 -0.23178,-0.24765 0.98037,-1.86478 1.96321,-2.56046 2.94922,-2.08633 0.47414,0.34114 0.33302,1.32151 -0.42368,2.94147 0.45296,-1.65171 0.42086,-2.49344 -0.0959,-2.52554 -0.53834,-0.12806 -1.17229,0.36759 -1.90218,1.48625 0.71931,-0.18097 1.11089,0.0882 1.17475,0.80751 -0.35701,-0.38382 -0.72179,-0.54892 -1.09467,-0.49565 0.75106,1.06045 0.49812,1.89688 -0.75953,2.50966"
       style="fill:#cd7f4f;fill-opacity:1;fill-rule:evenodd;stroke:none;stroke-width:0.03527778"
       id="path990" />
    <path
       inkscape:connector-curvature="0"
       d="m -167.50914,117.68452 c -0.91123,-0.7994 -1.03894,-1.59597 -0.38383,-2.38972 0.0695,-0.0854 0.14676,-0.16792 0.23178,-0.24765 -0.98037,-1.86478 -1.96321,-2.56046 -2.94887,-2.08633 -0.47449,0.34114 -0.33302,1.32151 0.42333,2.94146 -0.45296,-1.6517 -0.42086,-2.49343 0.096,-2.52553 0.53834,-0.12806 1.17228,0.36759 1.90218,1.48625 -0.71931,-0.18098 -1.1109,0.0882 -1.17475,0.80751 0.35701,-0.38382 0.72178,-0.54892 1.09467,-0.49565 -0.75106,1.06045 -0.49812,1.89688 0.75953,2.50966"
       style="fill:#cd7f4f;fill-opacity:1;fill-rule:evenodd;stroke:none;stroke-width:0.03527778"
       id="path992" />
    <path
       inkscape:connector-curvature="0"
       d="m -152.12733,112.9774 -0.008,-0.0642 c 1.75295,-1.4171 3.42335,-1.81927 5.01121,-1.2065 0.37288,0.13829 0.74048,0.3355 1.10278,0.59126 0.15452,0.32491 0.2159,0.75106 0.1838,1.27882 -0.0691,0.10654 -0.14111,0.20778 -0.21555,0.30374 0.005,-0.13335 0.002,-0.25859 -0.008,-0.37571 -0.0212,-0.32526 -0.0825,-0.59937 -0.1838,-0.82303 -1.84891,-1.33209 -3.80964,-1.23366 -5.88221,0.29563"
       style="fill:#100f0d;fill-opacity:1;fill-rule:evenodd;stroke:none;stroke-width:0.03527778"
       id="path994" />
    <path
       inkscape:connector-curvature="0"
       d="m -146.06131,113.50481 c -1.48202,1.512 -3.45581,1.81327 -5.92209,0.90311 l -0.14393,-1.43052 c 2.07257,-1.52929 4.03331,-1.62771 5.88222,-0.29563 0.10125,0.22367 0.16263,0.49778 0.1838,0.82304"
       style="fill:#faf6f2;fill-opacity:1;fill-rule:evenodd;stroke:none;stroke-width:0.03527778"
       id="path996" />
    <path
       inkscape:connector-curvature="0"
       d="m -151.9834,114.40792 c 2.46628,0.91016 4.44007,0.60889 5.92209,-0.90311 0.0106,0.11712 0.0134,0.24235 0.008,0.3757 -1.33033,1.45451 -3.30448,1.65947 -5.92244,0.61525 l -0.008,-0.0878"
       style="fill:#cd7f4f;fill-opacity:1;fill-rule:evenodd;stroke:none;stroke-width:0.03527778"
       id="path998" />
    <path
       inkscape:connector-curvature="0"
       d="m -150.24914,113.24904 c 0,-0.39969 0.133,-0.74083 0.3997,-1.02305 0.27693,-0.28787 0.61524,-0.43145 1.01494,-0.43145 0.38876,0 0.7246,0.14358 1.00683,0.43145 0.27199,0.28222 0.40781,0.62336 0.40781,1.02305 0,0.39406 -0.13582,0.73801 -0.40781,1.03117 -0.28223,0.27693 -0.61807,0.41557 -1.00683,0.41557 -0.3997,0 -0.73801,-0.13864 -1.01494,-0.41557 -0.2667,-0.29316 -0.3997,-0.63711 -0.3997,-1.03117"
       style="fill:#b05e48;fill-opacity:1;fill-rule:evenodd;stroke:none;stroke-width:0.03527778"
       id="path1000" />
    <path
       inkscape:connector-curvature="0"
       d="m -149.44198,113.76833 c -0.19721,-0.20743 -0.29563,-0.45543 -0.29563,-0.7433 0,-0.29281 0.0984,-0.54046 0.29563,-0.74295 0.20778,-0.20814 0.45543,-0.31186 0.7433,-0.31186 0.28222,0 0.5274,0.10372 0.73519,0.31186 0.1972,0.20249 0.29598,0.45014 0.29598,0.74295 0,0.28787 -0.0988,0.53587 -0.29598,0.7433 -0.20779,0.20814 -0.45297,0.31186 -0.73519,0.31186 -0.28787,0 -0.53552,-0.10372 -0.7433,-0.31186 z m 4.17195,-6.12987 c 0.80997,0.762 1.2707,1.6891 1.38253,2.7813 -2.40806,-1.74766 -5.45324,-2.09126 -9.13482,-1.03117 -0.77259,-0.34078 -0.90065,-1.0922 -0.38383,-2.25354 2.66418,-0.27164 5.37598,-0.10407 8.13612,0.50341"
       style="fill:#100f0d;fill-opacity:1;fill-rule:evenodd;stroke:none;stroke-width:0.03527778"
       id="path1002" />
    <path
       inkscape:connector-curvature="0"
       d="m -149.04687,112.79537 c 0,-0.15734 0.0557,-0.29245 0.16721,-0.40534 0.11148,-0.11501 0.24589,-0.17251 0.40358,-0.17251 0.15805,0 0.29246,0.0575 0.40393,0.17251 0.11148,0.11289 0.16687,0.248 0.16687,0.40534 0,0.15981 -0.0554,0.29633 -0.16687,0.40887 -0.11147,0.11289 -0.24588,0.16933 -0.40393,0.16933 -0.15769,0 -0.2921,-0.0564 -0.40358,-0.16933 -0.11147,-0.11254 -0.16721,-0.24906 -0.16721,-0.40887"
       style="fill:#ffffff;fill-opacity:1;fill-rule:evenodd;stroke:none;stroke-width:0.03527778"
       id="path1004" />
    <path
       inkscape:connector-curvature="0"
       d="m -158.72498,112.9774 0.008,-0.0642 c -1.75295,-1.4171 -3.42335,-1.81927 -5.01085,-1.2065 -0.37324,0.13829 -0.74084,0.3355 -1.10314,0.59126 -0.15452,0.32491 -0.2159,0.75106 -0.1838,1.27882 0.0691,0.10654 0.14111,0.20778 0.2159,0.30374 -0.006,-0.13335 -0.003,-0.25859 0.008,-0.37571 0.0215,-0.32526 0.0825,-0.59937 0.18415,-0.82303 1.84856,-1.33209 3.8093,-1.23366 5.88187,0.29563"
       style="fill:#100f0d;fill-opacity:1;fill-rule:evenodd;stroke:none;stroke-width:0.03527778"
       id="path1006" />
    <path
       inkscape:connector-curvature="0"
       d="m -164.79099,113.50481 c 1.48202,1.512 3.45616,1.81327 5.92243,0.90311 l 0.14358,-1.43052 c -2.07257,-1.52929 -4.03331,-1.62771 -5.88186,-0.29563 -0.1016,0.22367 -0.16263,0.49778 -0.18415,0.82304"
       style="fill:#faf6f2;fill-opacity:1;fill-rule:evenodd;stroke:none;stroke-width:0.03527778"
       id="path1008" />
    <path
       inkscape:connector-curvature="0"
       d="m -158.86856,114.40792 c -2.46627,0.91016 -4.44041,0.60889 -5.92243,-0.90311 -0.0106,0.11712 -0.0134,0.24235 -0.008,0.3757 1.32997,1.45451 3.30411,1.65947 5.92208,0.61525 l 0.008,-0.0878"
       style="fill:#cd7f4f;fill-opacity:1;fill-rule:evenodd;stroke:none;stroke-width:0.03527778"
       id="path1010" />
    <path
       inkscape:connector-curvature="0"
       d="m -160.60281,113.24904 c 0,-0.39969 -0.13335,-0.74083 -0.3997,-1.02305 -0.27728,-0.28787 -0.6156,-0.43145 -1.01494,-0.43145 -0.38912,0 -0.72461,0.14358 -1.00718,0.43145 -0.27164,0.28222 -0.40746,0.62336 -0.40746,1.02305 0,0.39406 0.13582,0.73801 0.40746,1.03117 0.28257,0.27693 0.61806,0.41557 1.00718,0.41557 0.39934,0 0.73766,-0.13864 1.01494,-0.41557 0.26635,-0.29316 0.3997,-0.63711 0.3997,-1.03117"
       style="fill:#b05e48;fill-opacity:1;fill-rule:evenodd;stroke:none;stroke-width:0.03527778"
       id="path1012" />
    <path
       inkscape:connector-curvature="0"
       d="m -161.41032,113.76833 c 0.1972,-0.20743 0.29598,-0.45543 0.29598,-0.7433 0,-0.29281 -0.0988,-0.54046 -0.29598,-0.74295 -0.20779,-0.20814 -0.45544,-0.31186 -0.74331,-0.31186 -0.28222,0 -0.5274,0.10372 -0.73518,0.31186 -0.19721,0.20249 -0.29563,0.45014 -0.29563,0.74295 0,0.28787 0.0984,0.53587 0.29563,0.7433 0.20778,0.20814 0.45296,0.31186 0.73518,0.31186 0.28787,0 0.53552,-0.10372 0.74331,-0.31186 z m -4.17195,-6.12987 c -0.80963,0.762 -1.27071,1.6891 -1.38254,2.7813 2.40842,-1.74766 5.45324,-2.09126 9.13518,-1.03117 0.77258,-0.34078 0.90029,-1.0922 0.38347,-2.25354 -2.66418,-0.27164 -5.37598,-0.10407 -8.13611,0.50341"
       style="fill:#100f0d;fill-opacity:1;fill-rule:evenodd;stroke:none;stroke-width:0.03527778"
       id="path1014" />
    <path
       inkscape:connector-curvature="0"
       d="m -161.80543,112.79537 c 0,-0.15734 -0.0557,-0.29245 -0.16722,-0.40534 -0.11113,-0.11501 -0.24589,-0.17251 -0.40358,-0.17251 -0.15769,0 -0.29245,0.0575 -0.40358,0.17251 -0.11147,0.11289 -0.16721,0.248 -0.16721,0.40534 0,0.15981 0.0557,0.29633 0.16721,0.40887 0.11113,0.11289 0.24589,0.16933 0.40358,0.16933 0.15769,0 0.29245,-0.0564 0.40358,-0.16933 0.11148,-0.11254 0.16722,-0.24906 0.16722,-0.40887"
       style="fill:#ffffff;fill-opacity:1;fill-rule:evenodd;stroke:none;stroke-width:0.03527778"
       id="path1016" />
    <path
       inkscape:connector-curvature="0"
       d="m -155.16192,91.43891 c 3.77472,0.646641 4.88032,2.13995 3.31646,4.480277 -1.36454,1.846086 -3.71016,2.481086 -7.03827,1.904648 -1.3402,-1.234723 -2.74567,-1.534231 -4.21569,-0.899231 -0.0469,0.01164 -0.0882,0.02963 -0.12312,0.05292 -4.08058,1.340555 -5.79155,5.803196 -5.13292,13.387916 l -0.65299,-0.75847 -0.89958,-5.8032 c -1.24637,-7.773102 1.44039,-11.88896 8.06132,-12.347218 0.0353,-0.01199 0.0765,-0.01764 0.12347,-0.01764 z m 12.10063,21.97805 c 0,0.0116 0,0.0233 0,0.0353 l 0.44097,-0.63535 -1.65805,11.20069 c -0.28223,2.17558 -1.76989,4.03367 -4.463,5.57424 -3.09245,1.5875 -6.49075,2.06375 -10.19492,1.42875 h -3.54577 c -2.55129,-1.38782 -4.08623,-3.4163 -4.60375,-6.08541 l -1.60479,-13.31736 0.61736,0.75812 c 0.63465,6.07977 1.74625,10.76572 3.33375,14.05854 0.44662,0.78776 1.23473,1.30528 2.36361,1.55187 1.8341,1.25872 3.69782,1.99919 5.59153,2.22286 l -1.14652,-2.84022 h 6.29672 l -1.72825,2.66383 c 2.09268,-0.43498 4.21569,-1.48767 6.36764,-3.15736 l -1.74661,-2.6282 -0.68791,-1.07597 -1.81646,0.84631 c -3.66924,0.81174 -6.93808,0.81174 -9.80722,0 -1.17616,-0.37606 -1.88771,0.27058 -2.13466,1.94028 -0.16474,-2.9397 0.61736,-4.13279 2.34633,-3.58034 3.63326,2.49273 7.61964,2.21086 11.95917,-0.84667 1.54022,-0.34113 2.48108,1.18181 2.82222,4.56847 l 2.99861,-12.68236"
       style="fill:#753a2b;fill-opacity:1;fill-rule:evenodd;stroke:none;stroke-width:0.03527778"
       id="path1278" />
    <path
       inkscape:connector-curvature="0"
       d="m -162.48206,131.02057 h 3.54577 c 3.70417,0.635 7.10247,0.15875 10.19492,-1.42875 2.69311,-1.54057 4.18077,-3.39866 4.463,-5.57424 l 1.65805,-11.20069 -0.44097,0.63535 c 0,-0.012 0,-0.0236 0,-0.0353 l 0.0177,-0.0709 c 0,-0.0349 0,-0.0702 0,-0.10548 0.66992,-7.39669 -0.30021,-12.5356 -2.91042,-15.41674 -1.99919,-1.634067 -3.88055,-1.634067 -5.64444,0 -0.72955,1.093963 -1.92264,1.658408 -3.58105,1.693686 -0.0466,0 -0.0882,0 -0.12312,0 -1.64642,-0.03528 -2.83987,-0.599723 -3.58106,-1.693686 3.32811,0.576438 5.67373,-0.05856 7.03827,-1.904648 1.56387,-2.340327 0.45826,-3.833636 -3.31646,-4.480277 l 6.08542,-0.01764 c 6.93808,0.317147 9.77194,4.445 8.50229,12.382495 l -1.21708,7.81404 -1.25236,12.32958 c -0.9525,4.70359 -4.7685,7.75547 -11.44764,9.15423 -3.30482,-0.29386 -5.96794,-0.98742 -7.99077,-2.08104 z m 13.74069,-6.77333 c -3.66853,1.02306 -7.91986,1.26401 -12.75256,0.7232 l -0.88195,3.01589 c -1.12888,-0.24659 -1.91699,-0.76411 -2.36361,-1.55187 -1.5875,-3.29282 -2.6991,-7.97877 -3.33375,-14.05854 l -0.61736,-0.75812 -0.31785,-2.01084 0.65299,0.75848 c -0.65863,-7.58473 1.05234,-12.047364 5.13292,-13.387919 -0.43533,0.199672 -0.8703,0.481894 -1.30563,0.846314 -2.61021,2.881135 -3.54507,7.990765 -2.80459,15.328545 0,0.0589 0.006,0.12347 0.018,0.19368 0.58773,5.87974 1.96357,10.0838 4.12715,12.6118 0.24695,-1.6697 0.9585,-2.31634 2.13466,-1.94028 2.86914,0.81174 6.13798,0.81174 9.80722,0 l 1.81646,-0.84631 0.68791,1.07597"
       style="fill:#3c211b;fill-opacity:1;fill-rule:evenodd;stroke:none;stroke-width:0.03527778"
       id="path1280" />
  </g>
</svg>
