<?xml version="1.0" encoding="UTF-8" standalone="no"?>
<!-- Created with Inkscape (http://www.inkscape.org/) -->

<svg
   xmlns:dc="http://purl.org/dc/elements/1.1/"
   xmlns:cc="http://creativecommons.org/ns#"
   xmlns:rdf="http://www.w3.org/1999/02/22-rdf-syntax-ns#"
   xmlns:svg="http://www.w3.org/2000/svg"
   xmlns="http://www.w3.org/2000/svg"
   xmlns:sodipodi="http://sodipodi.sourceforge.net/DTD/sodipodi-0.dtd"
   xmlns:inkscape="http://www.inkscape.org/namespaces/inkscape"
   width="60.924648mm"
   height="60.92466mm"
   viewBox="0 0 60.924647 60.92466"
   version="1.1"
   id="svg5725"
   inkscape:version="0.92.1 r15371"
   sodipodi:docname="face5.svg">
  <defs
     id="defs5719" />
  <sodipodi:namedview
     id="base"
     pagecolor="#ffffff"
     bordercolor="#666666"
     borderopacity="1.0"
     inkscape:pageopacity="0.0"
     inkscape:pageshadow="2"
     inkscape:zoom="2.8"
     inkscape:cx="-79.169485"
     inkscape:cy="152.20829"
     inkscape:document-units="mm"
     inkscape:current-layer="layer1"
     showgrid="false"
     fit-margin-top="0"
     fit-margin-left="0"
     fit-margin-right="0"
     fit-margin-bottom="0"
     inkscape:window-width="1920"
     inkscape:window-height="1001"
     inkscape:window-x="-9"
     inkscape:window-y="-9"
     inkscape:window-maximized="1" />
  <metadata
     id="metadata5722">
    <rdf:RDF>
      <cc:Work
         rdf:about="">
        <dc:format>image/svg+xml</dc:format>
        <dc:type
           rdf:resource="http://purl.org/dc/dcmitype/StillImage" />
        <dc:title></dc:title>
      </cc:Work>
    </rdf:RDF>
  </metadata>
  <g
     inkscape:label="Layer 1"
     inkscape:groupmode="layer"
     id="layer1"
     transform="translate(99.146182,-117.886)">
    <path
       inkscape:connector-curvature="0"
       d="m -64.41528,169.83246 -0.79375,-2.69875 -0.264584,-0.88194 2.804936,0.47625 z m -8.819445,-1.4993 -0.07056,0.82903 -1.234652,-1.3582 1.340838,-0.0882 -0.03563,0.61736"
       style="fill:#5e6061;fill-opacity:1;fill-rule:evenodd;stroke:none;stroke-width:0.03527778"
       id="path76" />
    <path
       inkscape:connector-curvature="0"
       d="m -73.199095,167.7158 0.05256,-0.70556 c 1.681692,1.02306 3.369028,1.41111 5.062713,1.16389 l 0.829029,3.59861 -0.705556,2.22222 -5.27438,-5.6618 0.03563,-0.61736"
       style="fill:#f9b282;fill-opacity:1;fill-rule:evenodd;stroke:none;stroke-width:0.03527778"
       id="path78" />
    <path
       inkscape:connector-curvature="0"
       d="m -71.409102,178.70482 0.908405,-1.95791 0.600075,2.04611 c -0.508355,-0.0179 -1.011063,-0.0476 -1.50848,-0.0882 z m 3.801534,0.0882 1.76389,-2.57528 1.993193,2.20486 -0.0441,0.0529 c -1.210734,0.1743 -2.447925,0.28056 -3.712988,0.3175 z m 6.120341,-6.89681 -2.04611,5.29167 -2.751315,-4.1275 1.869372,-3.22792 1.746602,-3.10444 2.099026,2.75167 z m -13.802358,6.25299 c -1.458384,-1.31093 -2.819471,-2.91317 -4.083121,-4.8066 l 0.59944,-0.29986 6.764796,5.60917 c -1.116894,-0.11109 -2.210364,-0.27824 -3.281115,-0.50271 z m 5.935415,-4.73604 -2.734027,4.0393 -5.750067,-4.90361 -0.740692,-0.635 4.039023,-4.10986 1.234652,1.3582 3.951111,4.25097"
       style="fill:#e9eae9;fill-opacity:1;fill-rule:evenodd;stroke:none;stroke-width:0.03527778"
       id="path80" />
    <path
       inkscape:connector-curvature="0"
       d="m -65.473614,166.25177 0.264584,0.88194 c -0.964142,0.55288 -1.92264,0.89959 -2.874788,1.04042 -1.693685,0.24722 -3.381021,-0.14083 -5.062713,-1.16389 l 0.899584,-11.51819 h 3.598333 l 3.175,10.75972"
       style="fill:#cd7f4f;fill-opacity:1;fill-rule:evenodd;stroke:none;stroke-width:0.03527778"
       id="path82" />
    <path
       inkscape:connector-curvature="0"
       d="m -68.224928,178.81066 -1.129242,-5.3975 -3.951111,-4.25097 0.07056,-0.82903 5.27438,5.6618 0.705556,-2.22222 -0.829029,-3.59861 c 0.952148,-0.14083 1.910646,-0.48754 2.874788,-1.04042 l 0.79375,2.69875 -1.869372,3.22792 -1.561041,5.74117 c -0.126646,0.003 -0.252942,0.006 -0.379235,0.009"
       style="fill:#e99152;fill-opacity:1;fill-rule:evenodd;stroke:none;stroke-width:0.03527778"
       id="path84" />
    <path
       inkscape:connector-curvature="0"
       d="m -67.845693,178.80155 1.561041,-5.74117 2.751315,4.1275 2.04611,-5.29167 0.388409,0.14111 c 0.117475,0.9875 0.123121,1.91672 0.01765,2.78695 -0.159809,1.24534 -0.547865,2.36541 -1.164167,3.35992 -0.543984,0.11039 -1.093965,0.2074 -1.649235,0.29133 l 0.04409,-0.0529 -1.993193,-2.20486 -1.76389,2.57528 c -0.07902,0.002 -0.158396,0.006 -0.238125,0.009 z m -1.508477,-5.38839 1.129242,5.3975 c -0.152752,0 -0.305859,0 -0.458611,0 -0.409223,0 -0.815271,-0.006 -1.217083,-0.0176 l -0.600075,-2.04611 -0.908405,1.95791 c -0.19967,-0.0161 -0.40005,-0.0338 -0.599368,-0.0529 l -6.764796,-5.60917 0.935002,-0.49389 5.750067,4.90361 2.734027,-4.0393"
       style="fill:#c1bfbd;fill-opacity:1;fill-rule:evenodd;stroke:none;stroke-width:0.03527778"
       id="path86" />
    <path
       inkscape:connector-curvature="0"
       d="m -79.372706,173.3426 c 1.26365,1.89343 2.624737,3.49567 4.083121,4.8066 -2.765708,-0.58142 -5.373229,-1.54231 -7.822848,-2.88396 z m 18.291528,1.48167 3.615973,1.94881 c -1.537055,0.60428 -3.130198,1.07488 -4.78014,1.41111 0.616302,-0.99451 1.004358,-2.11458 1.164167,-3.35992"
       style="fill:#9a231f;fill-opacity:1;fill-rule:evenodd;stroke:none;stroke-width:0.03527778"
       id="path88" />
    <path
       inkscape:connector-curvature="0"
       d="m -57.465205,176.77308 -3.615973,-1.94881 c 0.105481,-0.87023 0.09983,-1.79945 -0.01765,-2.78695 l 7.231946,3.01597 c -1.165225,0.66037 -2.364671,1.23363 -3.598333,1.71979"
       style="fill:#6b1e17;fill-opacity:1;fill-rule:evenodd;stroke:none;stroke-width:0.03527778"
       id="path90" />
    <path
       inkscape:connector-curvature="0"
       d="m -57.553402,153.76351 0.776113,-7.16139 c 0.03493,-0.0233 0.07055,-0.0413 0.105834,-0.0529 2.751312,-1.52858 3.96875,-1.0287 3.650895,1.49931 -0.1524,0.89358 -0.452612,1.72261 -0.899583,2.48673 -0.02328,0.0123 -0.03493,0.024 -0.03493,0.0356 -1.446742,2.36361 -2.610909,3.43958 -3.492852,3.22756 -0.03493,-0.0116 -0.07056,-0.0233 -0.105482,-0.0349"
       style="fill:#f6af73;fill-opacity:1;fill-rule:evenodd;stroke:none;stroke-width:0.03527778"
       id="path452" />
    <path
       inkscape:connector-curvature="0"
       d="m -81.348544,151.1526 c 0.623288,-7.26687 2.622409,-11.81206 5.997222,-13.63451 4.445283,1.46967 7.996344,1.62842 10.65417,0.47625 3.880557,0.42333 5.755924,4.01002 5.626807,10.75972 l -1.340557,9.63048 c -3.022245,6.78533 -8.220075,8.82537 -15.592917,6.12098 -2.692965,-1.70533 -4.274679,-3.68653 -4.744861,-5.94459 l -0.158891,-1.97527 -0.193887,-3.12202 -0.247086,-2.31104"
       style="fill:#f6af73;fill-opacity:1;fill-rule:evenodd;stroke:none;stroke-width:0.03527778"
       id="path454" />
    <path
       inkscape:connector-curvature="0"
       d="m -82.583266,146.47829 1.234722,7.19702 c -0.03514,0.0116 -0.06435,0.0293 -0.08819,0.0529 -0.02342,0.0116 -0.05263,0.0236 -0.08819,0.0353 -0.905368,0.35277 -2.122452,-0.71156 -3.651108,-3.19264 0,-0.0116 -0.0058,-0.0233 -0.0175,-0.0356 -0.458893,-0.76412 -0.76454,-1.59315 -0.917505,-2.48673 -0.305505,-2.42253 0.799677,-2.98697 3.316253,-1.69334 0.03514,0.0233 0.0707,0.0473 0.105833,0.0706 0.03514,0.0116 0.07055,0.0293 0.105692,0.0526"
       style="fill:#f6af73;fill-opacity:1;fill-rule:evenodd;stroke:none;stroke-width:0.03527778"
       id="path456" />
    <path
       inkscape:connector-curvature="0"
       d="m -56.777289,146.60212 -0.776113,7.16139 c -0.02363,0 -0.05327,-0.006 -0.08819,-0.0177 -0.129823,-0.0706 -0.252942,-0.16475 -0.370417,-0.28222 l 0.687917,-6.54438 c 0.152752,-0.0938 0.29986,-0.18204 0.440973,-0.26459 0.03528,-0.0233 0.0702,-0.0409 0.105833,-0.0526"
       style="fill:#cd7f4f;fill-opacity:1;fill-rule:evenodd;stroke:none;stroke-width:0.03527778"
       id="path458" />
    <path
       inkscape:connector-curvature="0"
       d="m -81.348544,153.67531 -1.234722,-7.19702 c 0.235373,0.12983 0.49403,0.27693 0.776252,0.44098 l 0.45847,4.23333 0.247086,2.31104 c -0.08241,0.0825 -0.164677,0.15276 -0.247086,0.21167"
       style="fill:#cd7f4f;fill-opacity:1;fill-rule:evenodd;stroke:none;stroke-width:0.03527778"
       id="path460" />
    <path
       inkscape:connector-curvature="0"
       d="m -57.324095,146.91927 -0.687917,6.54437 -0.17639,3.12202 -0.15875,1.97527 c -0.600075,3.03417 -3.210276,5.56218 -7.832018,7.58472 -1.986844,0.85867 -4.215694,0.85867 -6.685139,0 -1.175808,-0.51674 -2.222429,-1.06397 -3.13951,-1.64013 7.372842,2.70439 12.570672,0.66435 15.592917,-6.12098 l 1.340557,-9.63048 c 0.129117,-6.7497 -1.74625,-10.33639 -5.626807,-10.75972 -2.657826,1.15217 -6.208887,0.99342 -10.65417,-0.47625 -3.374813,1.82245 -5.373934,6.36764 -5.997222,13.63451 l -0.45847,-4.23333 -0.123331,-1.09326 c -1.822873,-11.94718 1.387264,-18.13313 9.630833,-18.55611 h 5.37986 c 8.231365,0.42298 11.470924,6.60893 9.71903,18.55611 l -0.123473,1.09326"
       style="fill:#e99152;fill-opacity:1;fill-rule:evenodd;stroke:none;stroke-width:0.03527778"
       id="path462" />
    <path
       inkscape:connector-curvature="0"
       d="m -73.217087,156.30344 c 1.870075,0.9525 3.921832,0.9525 6.155973,0 -2.293056,2.63426 -4.344813,2.63426 -6.155973,0"
       style="fill:#e99152;fill-opacity:1;fill-rule:evenodd;stroke:none;stroke-width:0.03527778"
       id="path788" />
    <path
       inkscape:connector-curvature="0"
       d="m -75.315762,159.70746 c 1.881364,0.79968 3.856919,1.17052 5.926667,1.11153 2.116667,0.19967 3.957108,-0.19403 5.520618,-1.1818 l 0.776113,0.75847 -0.758121,-0.19403 c -0.258585,0.0823 -0.523168,0.18203 -0.79375,0.29958 -3.469217,1.34084 -6.79097,1.28792 -9.965971,-0.15847 -0.188101,-0.10611 -0.376626,-0.19431 -0.564727,-0.26458 l -0.828886,0.37042 0.688057,-0.74112"
       style="fill:#9b4c31;fill-opacity:1;fill-rule:evenodd;stroke:none;stroke-width:0.03527778"
       id="path790" />
    <path
       inkscape:connector-curvature="0"
       d="m -73.217087,156.30344 c 2.058107,0.42333 4.110215,0.42333 6.155973,0 -2.234141,0.9525 -4.285898,0.9525 -6.155973,0"
       style="fill:#9b4c31;fill-opacity:1;fill-rule:evenodd;stroke:none;stroke-width:0.03527778"
       id="path792" />
    <path
       inkscape:connector-curvature="0"
       d="m -66.867087,164.15274 c -1.987198,-0.42333 -3.880556,-0.40569 -5.679368,0.0526 0.387702,-0.76412 1.334558,-1.11097 2.839508,-1.04042 1.49366,-0.0236 2.440162,0.30551 2.83986,0.98778"
       style="fill:#b66f54;fill-opacity:1;fill-rule:evenodd;stroke:none;stroke-width:0.03527778"
       id="path794" />
    <path
       inkscape:connector-curvature="0"
       d="m -57.21791,152.10439 c 0.910873,-0.79904 1.038932,-1.59561 0.383471,-2.38971 -0.06915,-0.085 -0.146404,-0.16757 -0.231775,-0.24765 0.980369,-1.86479 1.963561,-2.56011 2.949221,-2.08598 0.474133,0.34078 0.333023,1.32151 -0.423685,2.94111 0.452966,-1.65171 0.420864,-2.49343 -0.09596,-2.52554 -0.537985,-0.1277 -1.171927,0.3676 -1.902177,1.48661 0.719315,-0.18133 1.110898,0.0878 1.175102,0.80715 -0.35701,-0.38346 -0.722135,-0.54892 -1.09502,-0.49565 0.751062,1.06045 0.49812,1.89689 -0.75918,2.50966"
       style="fill:#cd7f4f;fill-opacity:1;fill-rule:evenodd;stroke:none;stroke-width:0.03527778"
       id="path796" />
    <path
       inkscape:connector-curvature="0"
       d="m -81.895349,152.28078 c -0.911155,-0.79904 -1.039036,-1.59561 -0.383646,-2.38971 0.06918,-0.085 0.146509,-0.16758 0.23181,-0.24765 -0.980475,-1.86479 -1.963455,-2.56011 -2.949151,-2.08598 -0.474204,0.34078 -0.333093,1.3215 0.423615,2.94111 -0.452966,-1.65171 -0.421005,-2.49343 0.09588,-2.52554 0.538127,-0.1277 1.172175,0.3676 1.902107,1.48661 -0.719313,-0.18133 -1.110826,0.0878 -1.174891,0.80715 0.357047,-0.38347 0.72196,-0.54892 1.094987,-0.49565 -0.751169,1.06045 -0.498157,1.89689 0.759284,2.50966"
       style="fill:#cd7f4f;fill-opacity:1;fill-rule:evenodd;stroke:none;stroke-width:0.03527778"
       id="path798" />
    <path
       inkscape:connector-curvature="0"
       d="m -66.513955,147.57332 -0.0078,-0.0639 c 1.752955,-1.41746 3.423357,-1.81963 5.010857,-1.20685 0.37324,0.13864 0.740833,0.33584 1.103135,0.59161 0.154517,0.32455 0.215548,0.75106 0.183798,1.27846 -0.06914,0.10654 -0.14111,0.20779 -0.2159,0.30375 0.0053,-0.133 0.0028,-0.25859 -0.0078,-0.37571 -0.02151,-0.32491 -0.08291,-0.59937 -0.18415,-0.82303 -1.848557,-1.33209 -3.809296,-1.23367 -5.882217,0.29563"
       style="fill:#100f0d;fill-opacity:1;fill-rule:evenodd;stroke:none;stroke-width:0.03527778"
       id="path800" />
    <path
       inkscape:connector-curvature="0"
       d="m -60.447589,148.10072 c -1.482021,1.512 -3.456164,1.81327 -5.922433,0.90311 l -0.143933,-1.43051 c 2.07292,-1.5293 4.03366,-1.62772 5.882216,-0.29563 0.101246,0.22366 0.162629,0.49812 0.18415,0.82303"
       style="fill:#faf6f2;fill-opacity:1;fill-rule:evenodd;stroke:none;stroke-width:0.03527778"
       id="path802" />
    <path
       inkscape:connector-curvature="0"
       d="m -66.370022,149.00383 c 2.466269,0.91016 4.440412,0.60889 5.922433,-0.90311 0.01058,0.11712 0.01304,0.24271 0.0078,0.37571 -1.330325,1.4545 -3.304469,1.65946 -5.922082,0.61524 l -0.0081,-0.0878"
       style="fill:#cd7f4f;fill-opacity:1;fill-rule:evenodd;stroke:none;stroke-width:0.03527778"
       id="path804" />
    <path
       inkscape:connector-curvature="0"
       d="m -64.635768,147.84495 c 0,-0.39934 0.13335,-0.74048 0.399698,-1.02305 0.276931,-0.28752 0.615243,-0.43145 1.014942,-0.43145 0.389114,0 0.724606,0.14393 1.007181,0.43145 0.271637,0.28257 0.407458,0.62371 0.407458,1.02305 0,0.39441 -0.135821,0.73802 -0.407458,1.03117 -0.282575,0.27693 -0.618067,0.41557 -1.007181,0.41557 -0.399699,0 -0.738011,-0.13864 -1.014942,-0.41557 -0.266348,-0.29315 -0.399698,-0.63676 -0.399698,-1.03117"
       style="fill:#b05e48;fill-opacity:1;fill-rule:evenodd;stroke:none;stroke-width:0.03527778"
       id="path806" />
    <path
       inkscape:connector-curvature="0"
       d="m -63.828612,148.36459 c -0.19685,-0.20778 -0.295627,-0.45543 -0.295627,-0.7433 0,-0.29316 0.09878,-0.54081 0.295627,-0.7433 0.207785,-0.20779 0.45579,-0.3115 0.743302,-0.3115 0.282575,0 0.527757,0.10371 0.73519,0.3115 0.197556,0.20249 0.295981,0.45014 0.295981,0.7433 0,0.28787 -0.09843,0.53552 -0.295981,0.7433 -0.207433,0.20779 -0.452615,0.31151 -0.73519,0.31151 -0.287512,0 -0.535517,-0.10372 -0.743302,-0.31151 z m 4.17195,-6.12986 c 0.809977,0.76165 1.270707,1.68875 1.38289,2.78095 -2.408415,-1.74767 -5.453592,-2.09092 -9.135181,-1.03082 -0.772584,-0.34114 -0.90029,-1.0922 -0.383469,-2.2539 2.663825,-0.27164 5.375979,-0.10371 8.13576,0.50377"
       style="fill:#100f0d;fill-opacity:1;fill-rule:evenodd;stroke:none;stroke-width:0.03527778"
       id="path808" />
    <path
       inkscape:connector-curvature="0"
       d="m -63.433147,147.39128 c 0,-0.15699 0.05574,-0.29245 0.166862,-0.40499 0.11148,-0.11536 0.245888,-0.17286 0.403932,-0.17286 0.157691,0 0.292451,0.0575 0.403576,0.17286 0.11148,0.11254 0.167217,0.248 0.167217,0.40499 0,0.16016 -0.05574,0.29634 -0.167217,0.40922 -0.111125,0.11254 -0.245885,0.16898 -0.403576,0.16898 -0.158044,0 -0.292452,-0.0564 -0.403932,-0.16898 -0.111125,-0.11288 -0.166862,-0.24906 -0.166862,-0.40922"
       style="fill:#ffffff;fill-opacity:1;fill-rule:evenodd;stroke:none;stroke-width:0.03527778"
       id="path810" />
    <path
       inkscape:connector-curvature="0"
       d="m -73.1109,147.57332 0.0078,-0.0639 c -1.752777,-1.41746 -3.423074,-1.81963 -5.010856,-1.20685 -0.373062,0.13864 -0.740692,0.33584 -1.102995,0.59161 -0.154622,0.32455 -0.215653,0.75106 -0.183832,1.27846 0.06932,0.10654 0.141252,0.20779 0.215794,0.30375 -0.0054,-0.133 -0.0028,-0.25859 0.008,-0.37571 0.02134,-0.32491 0.08255,-0.59937 0.183832,-0.82303 1.848768,-1.33209 3.809577,-1.23367 5.882287,0.29563"
       style="fill:#100f0d;fill-opacity:1;fill-rule:evenodd;stroke:none;stroke-width:0.03527778"
       id="path812" />
    <path
       inkscape:connector-curvature="0"
       d="m -79.17702,148.10072 c 1.481949,1.512 3.455987,1.81327 5.922186,0.90311 l 0.143934,-1.43051 c -2.072711,-1.5293 -4.03352,-1.62772 -5.882288,-0.29563 -0.101282,0.22366 -0.162489,0.49812 -0.183832,0.82303"
       style="fill:#faf6f2;fill-opacity:1;fill-rule:evenodd;stroke:none;stroke-width:0.03527778"
       id="path814" />
    <path
       inkscape:connector-curvature="0"
       d="m -73.254834,149.00383 c -2.466199,0.91016 -4.440237,0.60889 -5.922186,-0.90311 -0.01076,0.11712 -0.01337,0.24271 -0.008,0.37571 1.330219,1.4545 3.304399,1.65946 5.922081,0.61524 l 0.0081,-0.0878"
       style="fill:#cd7f4f;fill-opacity:1;fill-rule:evenodd;stroke:none;stroke-width:0.03527778"
       id="path816" />
    <path
       inkscape:connector-curvature="0"
       d="m -74.989019,147.84495 c 0,-0.39934 -0.133279,-0.74048 -0.399626,-1.02305 -0.277143,-0.28752 -0.615457,-0.43145 -1.015083,-0.43145 -0.389008,0 -0.72457,0.14393 -1.007075,0.43145 -0.271745,0.28257 -0.407599,0.62371 -0.407599,1.02305 0,0.39441 0.135854,0.73802 0.407599,1.03117 0.282505,0.27693 0.618067,0.41557 1.007075,0.41557 0.399626,0 0.73794,-0.13864 1.015083,-0.41557 0.266347,-0.29315 0.399626,-0.63676 0.399626,-1.03117"
       style="fill:#b05e48;fill-opacity:1;fill-rule:evenodd;stroke:none;stroke-width:0.03527778"
       id="path818" />
    <path
       inkscape:connector-curvature="0"
       d="m -75.79628,148.36459 c 0.197062,-0.20778 0.295733,-0.45543 0.295733,-0.7433 0,-0.29316 -0.09867,-0.54081 -0.295733,-0.7433 -0.207822,-0.20779 -0.455577,-0.3115 -0.743303,-0.3115 -0.282363,0 -0.527544,0.10371 -0.735189,0.3115 -0.197344,0.20249 -0.295875,0.45014 -0.295875,0.7433 0,0.28787 0.09853,0.53552 0.295875,0.7433 0.207645,0.20779 0.452826,0.31151 0.735189,0.31151 0.287726,0 0.535481,-0.10372 0.743303,-0.31151 z m -4.17202,-6.12986 c -0.809873,0.76165 -1.270671,1.68875 -1.382572,2.78095 2.408238,-1.74767 5.453309,-2.09092 9.134969,-1.03082 0.772583,-0.34114 0.900641,-1.0922 0.383823,-2.2539 -2.664179,-0.27164 -5.376158,-0.10371 -8.13622,0.50377"
       style="fill:#100f0d;fill-opacity:1;fill-rule:evenodd;stroke:none;stroke-width:0.03527778"
       id="path820" />
    <path
       inkscape:connector-curvature="0"
       d="m -76.191638,147.39128 c 0,-0.15699 -0.05553,-0.29245 -0.167005,-0.40499 -0.111372,-0.11536 -0.245851,-0.17286 -0.40379,-0.17286 -0.157656,0 -0.292276,0.0575 -0.403613,0.17286 -0.111477,0.11254 -0.16704,0.248 -0.16704,0.40499 0,0.16016 0.05556,0.29634 0.16704,0.40922 0.111337,0.11254 0.245957,0.16898 0.403613,0.16898 0.157939,0 0.292418,-0.0564 0.40379,-0.16898 0.111478,-0.11288 0.167005,-0.24906 0.167005,-0.40922"
       style="fill:#ffffff;fill-opacity:1;fill-rule:evenodd;stroke:none;stroke-width:0.03527778"
       id="path822" />
    <path
       inkscape:connector-curvature="0"
       d="m -69.847705,122.331 c 9.066035,3.76273 12.482335,7.69656 10.248193,11.80007 -2.057752,-2.22215 -4.14514,-2.9277 -6.261806,-2.11667 -0.03563,0.024 -0.07655,0.0416 -0.123825,0.0533 -1.422752,1.48167 -3.856567,2.42853 -7.302146,2.83986 -0.423334,-0.1531 -0.846808,-0.32949 -1.270283,-0.52916 -6.573096,-0.37642 -9.577634,3.36303 -9.01333,11.21798 -0.917082,-2.72803 -1.205513,-6.57296 -0.864447,-11.53548 -0.717268,0.0586 -1.434536,0.42898 -2.151803,1.11125 0.858237,-1.69334 1.993053,-2.91642 3.404164,-3.66889 0.176389,-2.52836 1.152737,-4.81542 2.928338,-6.86153 -0.294217,0.70556 -0.294217,1.40512 0,2.09903 3.292404,-2.46945 6.761338,-3.93947 10.406945,-4.40973"
       style="fill:#4e4f51;fill-opacity:1;fill-rule:evenodd;stroke:none;stroke-width:0.03527778"
       id="path1270" />
    <path
       inkscape:connector-curvature="0"
       d="m -74.557572,134.37837 c -4.503702,0.4706 -6.749485,2.97497 -6.737914,7.51381 -0.364349,2.31705 -0.45847,4.6923 -0.282081,7.12646 -0.846808,-0.82302 -1.511018,-1.96391 -1.993335,-3.42229 -0.564304,-7.85495 2.440234,-11.5944 9.01333,-11.21798"
       style="fill:#2b2929;fill-opacity:1;fill-rule:evenodd;stroke:none;stroke-width:0.03527778"
       id="path1272" />
    <path
       inkscape:connector-curvature="0"
       d="m -73.287289,134.90753 c 3.445579,-0.41133 5.879394,-1.35819 7.302146,-2.83986 0.04727,-0.0116 0.0882,-0.0293 0.123825,-0.0533 2.116666,-0.81103 4.204054,-0.10548 6.261806,2.11667 2.234142,-4.10351 -1.182158,-8.03734 -10.248193,-11.80007 3.327752,-0.44661 6.80861,-0.0473 10.44222,1.19945 l -4.780137,0.45826 c 6.561312,0.91757 10.483495,3.92218 11.764785,9.01382 l -1.499306,-1.30527 c 0.705556,3.49214 0.440973,6.80261 -0.79375,9.93034 l -0.652285,-2.48673 c -0.08255,3.798 -0.782109,6.82625 -2.099027,9.08402 l -1.093613,-7.56743 c -0.388409,-3.77437 -2.716387,-5.97323 -6.985352,-6.59659 -2.55129,1.44639 -5.132917,1.72861 -7.743119,0.84666"
       style="fill:#2b2929;fill-opacity:1;fill-rule:evenodd;stroke:none;stroke-width:0.03527778"
       id="path1274" />
    <path
       inkscape:connector-curvature="0"
       d="m -81.665761,148.71878 c -0.12954,-0.58808 -0.311856,-0.98178 -0.547088,-1.18215 -0.07027,-0.0819 -0.14097,-0.12912 -0.211526,-0.14076 l -0.08819,-0.0177 v -1.46403 c 0.964212,-0.7172 2.457732,-1.1818 4.480277,-1.39347 0.799677,-0.0825 1.593427,-0.11183 2.38125,-0.0882 0.72898,0.0236 1.317132,0.0882 1.76403,0.19367 0.799395,0.18874 1.499307,0.31186 2.099027,0.37077 0.470255,0.0469 1.087615,0.0702 1.852083,0.0702 0.740834,0 1.3462,-0.0233 1.816455,-0.0702 0.611717,-0.0589 1.31727,-0.18203 2.116667,-0.37077 0.435327,-0.10548 1.023408,-0.17004 1.763887,-0.19367 0.776465,-0.0236 1.570215,0.006 2.38125,0.0882 2.034471,0.21167 3.533775,0.67627 4.497916,1.39347 v 1.46403 c -0.105478,-0.0116 -0.211312,0.0409 -0.317145,0.1584 -0.235305,0.20037 -0.41769,0.59407 -0.547158,1.18216 -0.188032,0.90522 -0.458613,1.66969 -0.81139,2.29305 -0.470252,0.90523 -1.075619,1.5053 -1.816452,1.79917 -0.917575,0.35278 -1.94663,0.51153 -3.086806,0.47625 -1.270352,-0.0353 -2.240492,-0.3235 -2.910417,-0.86431 -0.599723,-0.50588 -1.076325,-1.14652 -1.429102,-1.92264 -0.188031,-0.39969 -0.382058,-0.98178 -0.581731,-1.74625 -0.164749,-0.68192 -0.264584,-1.05833 -0.300215,-1.12924 -0.1524,-0.29386 -0.411337,-0.44097 -0.775759,-0.44097 -0.388408,0 -0.652991,0.14711 -0.79375,0.44097 -0.04727,0.0709 -0.153103,0.44732 -0.3175,1.12924 -0.200025,0.75248 -0.394403,1.33456 -0.582435,1.74625 -0.352777,0.77612 -0.828675,1.41676 -1.42875,1.92264 -0.669925,0.54081 -1.640063,0.82903 -2.910346,0.86431 -1.140601,0.0353 -2.169301,-0.12347 -3.086805,-0.47625 -0.72898,-0.29387 -1.334629,-0.89394 -1.816523,-1.79917 -0.341066,-0.62336 -0.605649,-1.38783 -0.79375,-2.29305 z m 18.115139,-3.6516 c -0.881946,-0.0116 -1.68769,0.0649 -2.41653,0.22966 -0.976487,0.19967 -1.65241,0.52317 -2.02847,0.97014 -0.388408,0.47025 -0.476605,1.22872 -0.264583,2.27541 0.176387,0.87031 0.481893,1.68734 0.91722,2.45181 0.399346,0.67028 0.934863,1.15253 1.604788,1.44639 0.741185,0.30586 1.67005,0.40005 2.787295,0.28222 1.058334,-0.11747 1.834447,-0.34113 2.327982,-0.67028 0.341135,-0.22366 0.688268,-0.629 1.041048,-1.21708 0.293862,-0.50588 0.511527,-1.28764 0.652285,-2.34597 0.117827,-1.05834 0.08255,-1.81681 -0.105833,-2.27577 -0.164394,-0.39934 -0.805392,-0.69921 -1.92264,-0.89923 -0.775758,-0.15275 -1.640062,-0.23495 -2.592562,-0.2473 z m -17.409584,3.4223 c 0.117405,1.05833 0.32893,1.84009 0.634859,2.34597 0.36449,0.58808 0.705555,0.99342 1.022914,1.21708 0.49403,0.32915 1.276068,0.55281 2.346114,0.67028 1.117317,0.11783 2.04597,0.0236 2.787085,-0.28222 0.669925,-0.29386 1.205089,-0.77611 1.605139,-1.44639 0.446617,-0.76447 0.752475,-1.5815 0.916868,-2.45181 0.212022,-1.04669 0.123825,-1.80516 -0.264583,-2.27541 -0.37606,-0.44697 -1.058332,-0.77047 -2.045898,-0.97014 -0.72898,-0.16475 -1.528516,-0.2413 -2.398889,-0.22966 -0.9525,0.0124 -1.816947,0.0945 -2.593058,0.2473 -1.116894,0.20002 -1.75768,0.49989 -1.922356,0.89923 -0.188102,0.45896 -0.217735,1.21743 -0.08819,2.27577"
       style="fill:#100f0d;fill-opacity:1;fill-rule:evenodd;stroke:none;stroke-width:0.03527778"
       id="path1276" />
  </g>
</svg>
