<?xml version="1.0" encoding="UTF-8" standalone="no"?>
<!-- Created with Inkscape (http://www.inkscape.org/) -->

<svg
   xmlns:dc="http://purl.org/dc/elements/1.1/"
   xmlns:cc="http://creativecommons.org/ns#"
   xmlns:rdf="http://www.w3.org/1999/02/22-rdf-syntax-ns#"
   xmlns:svg="http://www.w3.org/2000/svg"
   xmlns="http://www.w3.org/2000/svg"
   xmlns:sodipodi="http://sodipodi.sourceforge.net/DTD/sodipodi-0.dtd"
   xmlns:inkscape="http://www.inkscape.org/namespaces/inkscape"
   width="60.924648mm"
   height="60.924759mm"
   viewBox="0 0 60.924647 60.924759"
   version="1.1"
   id="svg5725"
   inkscape:version="0.92.1 r15371"
   sodipodi:docname="face6.svg">
  <defs
     id="defs5719" />
  <sodipodi:namedview
     id="base"
     pagecolor="#ffffff"
     bordercolor="#666666"
     borderopacity="1.0"
     inkscape:pageopacity="0.0"
     inkscape:pageshadow="2"
     inkscape:zoom="2.8"
     inkscape:cx="-91.893435"
     inkscape:cy="153.77026"
     inkscape:document-units="mm"
     inkscape:current-layer="layer1"
     showgrid="false"
     fit-margin-top="0"
     fit-margin-left="0"
     fit-margin-right="0"
     fit-margin-bottom="0"
     inkscape:window-width="1920"
     inkscape:window-height="1001"
     inkscape:window-x="-9"
     inkscape:window-y="-9"
     inkscape:window-maximized="1" />
  <metadata
     id="metadata5722">
    <rdf:RDF>
      <cc:Work
         rdf:about="">
        <dc:format>image/svg+xml</dc:format>
        <dc:type
           rdf:resource="http://purl.org/dc/dcmitype/StillImage" />
        <dc:title></dc:title>
      </cc:Work>
    </rdf:RDF>
  </metadata>
  <g
     inkscape:label="Layer 1"
     inkscape:groupmode="layer"
     id="layer1"
     transform="translate(95.779637,-118.29917)">
    <path
       inkscape:connector-curvature="0"
       d="m -47.351785,173.40306 c -0.06103,0.048 -0.122767,0.0949 -0.185563,0.14111 -0.840317,-1.3649 -1.645709,-3.02295 -2.416175,-4.97417 -0.270579,-1.36419 -0.588079,-2.74567 -0.952852,-4.14514 -0.188032,-0.74118 -0.3937,-1.48766 -0.61736,-2.24049 l -2.133955,-4.26826 c 0.529167,3.09245 0.881946,5.84412 1.058333,8.255 0.397582,5.27862 -0.03775,8.92387 -1.305628,10.93611 -0.666398,0.26741 -1.342673,0.50871 -2.028473,0.7232 -1.20015,-2.95205 -1.870427,-5.727 -2.010834,-8.32591 -0.04692,-0.64664 -0.05257,-1.28729 -0.01765,-1.92229 -0.129117,-3.32775 -0.529167,-6.50875 -1.199092,-9.54299 -0.106185,-0.50517 -0.22366,-1.01106 -0.352777,-1.51659 -0.693915,-2.75167 -1.617133,-5.38586 -2.769658,-7.90222 -0.140759,-0.30586 -0.281869,-0.59972 -0.423334,-0.88195 l -5.820833,-14.32277 c 1.293643,-4.82106 3.381031,-8.22572 6.261814,-10.21327 4.362802,1.1056 8.237712,4.13949 11.624027,9.10202 0.117475,0.18803 0.2413,0.38206 0.370417,0.58208 0.188031,0.3175 0.370768,0.64065 0.547158,0.97014 1.869723,3.80965 2.004835,9.27206 0.405342,16.38653 l 0.01765,0.17639 c -0.211315,3.09245 0.188028,6.80261 1.199795,11.13013 0.529167,2.29306 1.234723,4.7625 2.116667,7.40834 -0.682271,-0.84667 -1.293635,-1.79317 -1.834796,-2.83986 -0.01164,0 -0.01728,-0.006 -0.01728,-0.0177 -0.54116,-1.02305 -1.017058,-2.13995 -1.42875,-3.35139 -0.823029,-2.37525 -1.41111,-5.09764 -1.763887,-8.1668 l -0.829382,-1.71098 2.487436,13.95237 2.019654,6.5793"
       style="fill:#ab6756;fill-opacity:1;fill-rule:evenodd;stroke:none;stroke-width:0.03527778"
       id="path68" />
    <path
       inkscape:connector-curvature="0"
       d="m -47.819569,166.1182 c 0.334786,2.15194 0.845961,4.30106 1.534936,6.44701 -0.351719,0.28963 -0.707674,0.56903 -1.067152,0.83785 l -2.019655,-6.57931 -2.487435,-13.95236 0.829381,1.71097 c 0.352777,3.06917 0.940859,5.79156 1.763887,8.16681 0.411692,1.21144 0.88759,2.32833 1.42875,3.35139 0,0.0116 0.0056,0.0176 0.01728,0.0176 z m -2.133954,2.4518 c 0.402873,2.07222 0.691091,4.08587 0.864306,6.04132 -1.538465,0.9906 -3.143602,1.82245 -4.815768,2.4959 1.267883,-2.01224 1.70321,-5.65749 1.305628,-10.93611 -0.176387,-2.41088 -0.529166,-5.16255 -1.058333,-8.255 l 2.133955,4.26826 c 0.22366,0.75283 0.429328,1.49931 0.61736,2.24049 0.364773,1.39947 0.682273,2.78095 0.952852,4.14514 z m -12.329935,-19.94958 c 1.152525,2.51636 2.075743,5.15055 2.769658,7.90222 0.129117,0.50553 0.246592,1.01142 0.352777,1.51659 0.669925,3.03424 1.069975,6.21524 1.199091,9.54299 -0.03493,0.635 -0.02928,1.27565 0.01765,1.92229 -0.599368,1.96427 -1.664052,3.92218 -3.19264,5.8741 -0.767643,1.24072 -1.446741,2.49908 -2.036937,3.77472 -0.70485,0.0469 -1.418873,0.0706 -2.143125,0.0706 -0.1016,0 -0.204613,0 -0.308681,0 -0.964848,-0.008 -1.91135,-0.0586 -2.83986,-0.15028 0.385585,-3.01237 1.329266,-6.108 2.830687,-9.28652 2.48144,-7.05556 3.598688,-14.11112 3.35139,-21.16667 z m 16.298685,20.33764 c -0.881944,-2.64584 -1.5875,-5.11528 -2.116667,-7.40834 -1.011767,-4.32752 -1.41111,-8.03768 -1.199795,-11.13013 l -0.01765,-0.17639 c 1.599494,-7.11447 1.464381,-12.57688 -0.405342,-16.38653 -0.176389,-0.32949 -0.359127,-0.65264 -0.547158,-0.97014 -0.129117,-0.20002 -0.252942,-0.39405 -0.370417,-0.58208 -3.386314,-4.96253 -7.261225,-7.99642 -11.624027,-9.10202 1.481667,-1.0227 3.175,-1.6757 5.080352,-1.95757 l -1.922991,1.05834 c 7.538156,0.28187 11.794773,3.38102 12.770908,9.29569 -2.116667,-3.63396 -5.033081,-5.69171 -8.74889,-6.17361 5.761921,2.16359 8.772173,6.63222 9.030759,13.40556 l -0.05256,0.45861 c 0.129117,3.42194 -0.206023,6.83789 -1.005771,10.24819 -0.411691,3.5627 -0.335137,7.14375 0.229659,10.74208 0.534458,3.38314 1.498954,6.79062 2.892779,10.22174 -0.09313,0.096 -0.186973,0.19015 -0.282575,0.28187 -0.610306,-0.54504 -1.180396,-1.15358 -1.710621,-1.82527"
       style="fill:#81463f;fill-opacity:1;fill-rule:evenodd;stroke:none;stroke-width:0.03527778"
       id="path70" />
    <path
       inkscape:connector-curvature="0"
       d="m -69.850542,174.88437 0.458964,4.09258 c -1.639605,-0.20038 -3.227105,-0.52705 -4.7625,-0.97896 l 0.176389,-0.11501 0.07027,-3.19228 0.01792,-0.51188 c 1.304995,0.79974 2.65176,1.03505 4.038953,0.70555"
       style="fill:#f9b282;fill-opacity:1;fill-rule:evenodd;stroke:none;stroke-width:0.03527778"
       id="path124" />
    <path
       inkscape:connector-curvature="0"
       d="m -67.839708,174.02042 c -0.681567,0.42298 -1.352199,0.71155 -2.010834,0.86395 -1.387192,0.3295 -2.733957,0.0942 -4.038952,-0.70555 l 0.246662,-8.55486 h 4.92118 l 0.881944,8.39646"
       style="fill:#ba613e;fill-opacity:1;fill-rule:evenodd;stroke:none;stroke-width:0.03527778"
       id="path126" />
    <path
       inkscape:connector-curvature="0"
       d="m -69.391578,178.97695 -0.458964,-4.09258 c 0.658635,-0.1524 1.329267,-0.44097 2.010834,-0.86395 l 0.01765,0.21166 0.352777,3.6509 2.081742,0.68827 c -0.07408,0.21802 -0.15381,0.43533 -0.238125,0.65264 -1.284817,-0.0116 -2.54,-0.0938 -3.765903,-0.24694"
       style="fill:#cd7f4f;fill-opacity:1;fill-rule:evenodd;stroke:none;stroke-width:0.03527778"
       id="path128" />
    <path
       inkscape:connector-curvature="0"
       d="m -76.429635,177.22152 c -0.108021,-0.74824 -0.178718,-1.51518 -0.211808,-2.30152 l 2.734028,-0.2293 -0.07027,3.19228 -0.176389,0.11501 c -0.772406,-0.22684 -1.530738,-0.48542 -2.275557,-0.77647 z m 11.924028,-2.46027 c -0.164745,1.30528 -0.45861,2.57528 -0.881943,3.81 l -2.081742,-0.68827 -0.352777,-3.6509 3.316462,0.52917"
       style="fill:#8c1548;fill-opacity:1;fill-rule:evenodd;stroke:none;stroke-width:0.03527778"
       id="path130" />
    <path
       inkscape:connector-curvature="0"
       d="m -76.641443,174.92 c 0.03309,0.78634 0.103787,1.55328 0.211808,2.30152 -0.727181,-0.28081 -1.441697,-0.59266 -2.143125,-0.9345 z m 11.253893,3.65125 c 0.423333,-1.23472 0.717198,-2.50472 0.881943,-3.81 l 3.404307,4.19806 c -1.369483,0.17639 -2.774598,0.26458 -4.215694,0.26458 -0.1016,0 -0.204613,0 -0.308681,0 0.08432,-0.21731 0.164042,-0.43462 0.238125,-0.65264"
       style="fill:#e25ead;fill-opacity:1;fill-rule:evenodd;stroke:none;stroke-width:0.03527778"
       id="path132" />
    <path
       inkscape:connector-curvature="0"
       d="m -59.69019,159.30959 1.075973,-7.0732 c 0.03493,-0.0236 0.07056,-0.0413 0.105834,-0.0529 0.03492,-0.0236 0.07056,-0.0409 0.105481,-0.0533 2.575277,-1.34021 3.710162,-0.7994 3.404658,1.62313 -0.141464,0.88194 -0.440973,1.69897 -0.899583,2.4518 -0.01164,0 -0.01799,0.0116 -0.01799,0.0353 -1.50495,2.42217 -2.704396,3.47451 -3.597981,3.15736 -0.03563,-0.0116 -0.06491,-0.0233 -0.08819,-0.0356 -0.03563,-0.0116 -0.06491,-0.0293 -0.0882,-0.0526"
       style="fill:#f9b282;fill-opacity:1;fill-rule:evenodd;stroke:none;stroke-width:0.03527778"
       id="path488" />
    <path
       inkscape:connector-curvature="0"
       d="m -82.903249,160.68507 2.257919,1.32291 c -1.446247,-6.71442 -0.705555,-12.02937 2.222359,-15.9452 2.71653,3.46886 5.938379,5.66808 9.666394,6.59659 l -0.84702,-4.14514 8.290278,8.71397 -0.846314,5.41514 c -1.281994,3.73944 -3.022249,6.41455 -5.221465,8.02569 -2.222499,1.62278 -4.909184,2.17523 -8.06076,1.6577 -0.82296,-0.52916 -1.581714,-1.08161 -2.275557,-1.6577 -2.845647,-2.38689 -4.515415,-5.19183 -5.009445,-8.41375 l -0.176389,-1.57021"
       style="fill:#f9b282;fill-opacity:1;fill-rule:evenodd;stroke:none;stroke-width:0.03527778"
       id="path490" />
    <path
       inkscape:connector-curvature="0"
       d="m -84.45533,152.23639 1.12903,7.0732 c -0.02385,0.0116 -0.05306,0.0233 -0.08819,0.0353 -0.02385,0.0117 -0.05306,0.0296 -0.08819,0.0529 -0.905793,0.34114 -2.116667,-0.71155 -3.633894,-3.15736 0,-0.0236 -0.0059,-0.0353 -0.01764,-0.0353 -0.45847,-0.75283 -0.764399,-1.56986 -0.917081,-2.4518 -0.317641,-2.43417 0.817174,-2.97533 3.404164,-1.62313 0.03542,0.0123 0.07056,0.0296 0.106116,0.0533 0.03514,0.0117 0.07027,0.0293 0.105692,0.0529"
       style="fill:#f9b282;fill-opacity:1;fill-rule:evenodd;stroke:none;stroke-width:0.03527778"
       id="path492" />
    <path
       inkscape:connector-curvature="0"
       d="m -83.079637,159.11556 -0.705556,-6.49111 -0.123331,-1.09361 c -1.810738,-11.81806 1.399399,-17.93311 9.630692,-18.34445 h 5.39743 c 8.231717,0.41134 11.471627,6.52639 9.719379,18.34445 l -0.123825,1.09361 -0.687917,6.49111 -0.334785,3.13972 c -0.470607,3.22192 -2.123017,6.02686 -4.956882,8.41375 -0.857953,0.7172 -1.82245,1.39912 -2.892425,2.04611 -1.987548,1.18745 -4.209907,1.18745 -6.66764,0 -0.211525,-0.12947 -0.417547,-0.25858 -0.617361,-0.38841 3.151576,0.51753 5.838261,-0.0349 8.06076,-1.6577 2.199216,-1.61114 3.939471,-4.28625 5.221465,-8.02569 l 0.846314,-5.41514 -8.290278,-8.71397 0.84702,4.14514 c -3.728015,-0.92851 -6.949864,-3.12773 -9.666394,-6.59659 -2.927914,3.91583 -3.668606,9.23078 -2.222359,15.9452 l -2.257919,-1.32291 -0.176388,-1.56951"
       style="fill:#cd7f4f;fill-opacity:1;fill-rule:evenodd;stroke:none;stroke-width:0.03527778"
       id="path494" />
    <path
       inkscape:connector-curvature="0"
       d="m -59.972765,159.11556 0.687917,-6.49111 c 0.235304,-0.14147 0.458613,-0.27058 0.670631,-0.38806 l -1.075973,7.0732 c -0.09454,-0.0356 -0.188029,-0.0998 -0.282575,-0.19403"
       style="fill:#ba613e;fill-opacity:1;fill-rule:evenodd;stroke:none;stroke-width:0.03527778"
       id="path496" />
    <path
       inkscape:connector-curvature="0"
       d="m -83.3263,159.30959 -1.12903,-7.0732 c 0.211526,0.11748 0.435187,0.24659 0.670137,0.38806 l 0.705556,6.49111 c -0.08199,0.0825 -0.164677,0.14675 -0.246663,0.19403"
       style="fill:#ba613e;fill-opacity:1;fill-rule:evenodd;stroke:none;stroke-width:0.03527778"
       id="path498" />
    <path
       inkscape:connector-curvature="0"
       d="m -64.45269,163.2607 c -4.1275,2.02282 -8.296485,2.86314 -12.506112,2.52236 -0.341066,-0.0353 -0.676204,-0.0649 -1.005558,-0.0882 4.644955,0.0117 9.3369,-0.89394 14.076116,-2.71674 -0.188383,0.0942 -0.376414,0.18874 -0.564446,0.28258"
       style="fill:#cd7f4f;fill-opacity:1;fill-rule:evenodd;stroke:none;stroke-width:0.03527778"
       id="path942" />
    <path
       inkscape:connector-curvature="0"
       d="m -68.968598,162.48459 c -1.657702,0.92886 -3.339605,1.16416 -5.044651,0.70555 1.705046,-0.10583 3.386949,-0.34113 5.044651,-0.70555"
       style="fill:#cd7f4f;fill-opacity:1;fill-rule:evenodd;stroke:none;stroke-width:0.03527778"
       id="path944" />
    <path
       inkscape:connector-curvature="0"
       d="m -74.013249,163.19014 c 1.705046,0.45861 3.386949,0.22331 5.044651,-0.70555 -0.564091,1.04669 -1.481313,1.64006 -2.751595,1.78152 -0.881945,0.0938 -1.646344,-0.26458 -2.293056,-1.07597"
       style="fill:#e99c69;fill-opacity:1;fill-rule:evenodd;stroke:none;stroke-width:0.03527778"
       id="path946" />
    <path
       inkscape:connector-curvature="0"
       d="m -76.958802,165.78306 c 2.140091,1.19944 4.286109,1.76953 6.438335,1.71097 2.657475,-0.3175 4.67995,-1.72861 6.067777,-4.23333 -1.058333,3.71581 -2.722385,5.75627 -4.991804,6.12069 -2.434449,0.43498 -4.93903,-0.76447 -7.514308,-3.59833"
       style="fill:#ba613e;fill-opacity:1;fill-rule:evenodd;stroke:none;stroke-width:0.03527778"
       id="path948" />
    <path
       inkscape:connector-curvature="0"
       d="m -76.958802,165.78306 c 4.209627,0.34078 8.378612,-0.49954 12.506112,-2.52236 -1.387827,2.50472 -3.410302,3.91583 -6.067777,4.23333 -2.152226,0.0586 -4.298244,-0.51153 -6.438335,-1.71097"
       style="fill:#faf6f2;fill-opacity:1;fill-rule:evenodd;stroke:none;stroke-width:0.03527778"
       id="path950" />
    <path
       inkscape:connector-curvature="0"
       d="m -68.968244,151.23732 c 2.046111,-0.99095 4.123971,-1.61536 6.233936,-1.8736 1.305276,0.61666 2.264481,1.15676 2.877256,1.62066 -3.048,-0.9592 -5.773208,-0.69321 -8.17598,0.79834 -0.404987,-0.0314 -0.716843,-0.21343 -0.935212,-0.5454 z m 7.384696,3.92113 c -0.138287,0.20038 -0.324909,0.37712 -0.559152,0.52987 0.02117,-0.46919 -0.03492,-0.84843 -0.167923,-1.13841 -1.74766,-1.18604 -3.604684,-1.00436 -5.570712,0.54539 1.808337,-2.03517 3.561291,-2.59397 5.258858,-1.67604 0.05186,0.0279 0.103717,0.0568 0.155927,0.0871 0.777168,0.40675 1.420635,0.21731 1.930048,-0.56938 -0.09313,0.82761 -0.442383,1.5681 -1.047046,2.22144"
       style="fill:#100f0d;fill-opacity:1;fill-rule:evenodd;stroke:none;stroke-width:0.03527778"
       id="path952" />
    <path
       inkscape:connector-curvature="0"
       d="m -62.1427,155.68832 c 0.234243,-0.15275 0.420865,-0.32949 0.559152,-0.52987 -0.420862,1.23331 -1.425221,1.99743 -3.012721,2.2927 -1.113721,0.13723 -2.160764,-0.17921 -3.141133,-0.94862 2.445454,1.27529 4.310592,1.00401 5.594702,-0.81421"
       style="fill:#cd7f4f;fill-opacity:1;fill-rule:evenodd;stroke:none;stroke-width:0.03527778"
       id="path954" />
    <path
       inkscape:connector-curvature="0"
       d="m -67.881335,155.0953 c 1.966028,-1.54975 3.823052,-1.73143 5.570712,-0.54539 0.132998,0.28998 0.18909,0.66922 0.167923,1.13841 -1.28411,1.81822 -3.149248,2.0895 -5.594702,0.81421 l -0.143933,-1.40723"
       style="fill:#faf6f2;fill-opacity:1;fill-rule:evenodd;stroke:none;stroke-width:0.03527778"
       id="path956" />
    <path
       inkscape:connector-curvature="0"
       d="m -64.756432,154.00416 c 0.415925,0 0.772584,0.15028 1.071034,0.45085 0.287866,0.30551 0.4318,0.66922 0.4318,1.09079 0,0.41628 -0.143934,0.77752 -0.4318,1.08303 -0.29845,0.29527 -0.655109,0.44309 -1.071034,0.44309 -0.426153,0 -0.785987,-0.14782 -1.078793,-0.44309 -0.282223,-0.30551 -0.423685,-0.66675 -0.423685,-1.08303 0,-0.42157 0.141462,-0.78528 0.423685,-1.09079 0.292806,-0.30057 0.65264,-0.45085 1.078793,-0.45085"
       style="fill:#b05e48;fill-opacity:1;fill-rule:evenodd;stroke:none;stroke-width:0.03527778"
       id="path958" />
    <path
       inkscape:connector-curvature="0"
       d="m -63.517475,155.30062 c 0,0.28998 -0.101248,0.54292 -0.303742,0.75918 -0.213077,0.20567 -0.466373,0.30832 -0.759177,0.30832 -0.29845,0 -0.551391,-0.10265 -0.759179,-0.30832 -0.202846,-0.21626 -0.303742,-0.4692 -0.303742,-0.75918 0,-0.29492 0.100896,-0.54786 0.303742,-0.75883 0.207788,-0.2106 0.460729,-0.31608 0.759179,-0.31608 0.292804,0 0.5461,0.10548 0.759177,0.31608 0.202494,0.21097 0.303742,0.46391 0.303742,0.75883"
       style="fill:#100f0d;fill-opacity:1;fill-rule:evenodd;stroke:none;stroke-width:0.03527778"
       id="path960" />
    <path
       inkscape:connector-curvature="0"
       d="m -63.766183,155.06532 c 0,0.16227 -0.05644,0.30162 -0.169686,0.41733 -0.113241,0.11607 -0.251883,0.17392 -0.415925,0.17392 -0.160163,0 -0.298804,-0.0579 -0.415925,-0.17392 -0.113241,-0.11571 -0.170039,-0.25506 -0.170039,-0.41733 0,-0.1584 0.0568,-0.29528 0.170039,-0.41134 0.117121,-0.11571 0.255762,-0.17357 0.415925,-0.17357 0.164042,0 0.302684,0.0579 0.415925,0.17357 0.113242,0.11606 0.169686,0.25294 0.169686,0.41134"
       style="fill:#ffffff;fill-opacity:1;fill-rule:evenodd;stroke:none;stroke-width:0.03527778"
       id="path962" />
    <path
       inkscape:connector-curvature="0"
       d="m -73.342971,151.23732 c -2.04597,-0.99095 -4.123902,-1.61536 -6.23383,-1.8736 -1.305419,0.61666 -2.264375,1.15676 -2.877185,1.62066 3.047788,-0.9592 5.772997,-0.69321 8.175872,0.79834 0.405024,-0.0314 0.716738,-0.21343 0.935143,-0.5454 z m -7.384768,3.92113 c 0.138501,0.20038 0.325085,0.37712 0.559506,0.52987 -0.02138,-0.46919 0.03457,-0.84843 0.167817,-1.13841 1.747625,-1.18604 3.604401,-1.00436 5.570607,0.54539 -1.808268,-2.03517 -3.561291,-2.59397 -5.259034,-1.67604 -0.05154,0.0279 -0.103329,0.0568 -0.155716,0.0871 -0.777064,0.40675 -1.42046,0.21731 -1.930083,-0.56938 0.09331,0.82761 0.442242,1.5681 1.046903,2.22144"
       style="fill:#100f0d;fill-opacity:1;fill-rule:evenodd;stroke:none;stroke-width:0.03527778"
       id="path964" />
    <path
       inkscape:connector-curvature="0"
       d="m -80.168233,155.68832 c -0.234421,-0.15275 -0.421005,-0.32949 -0.559506,-0.52987 0.421005,1.23331 1.425329,1.99743 3.013075,2.2927 1.113614,0.13723 2.160517,-0.17921 3.140851,-0.94862 -2.44549,1.27529 -4.31038,1.00401 -5.59442,-0.81421"
       style="fill:#cd7f4f;fill-opacity:1;fill-rule:evenodd;stroke:none;stroke-width:0.03527778"
       id="path966" />
    <path
       inkscape:connector-curvature="0"
       d="m -74.429809,155.0953 c -1.966206,-1.54975 -3.822982,-1.73143 -5.570607,-0.54539 -0.133245,0.28998 -0.189195,0.66922 -0.167817,1.13841 1.28404,1.81822 3.14893,2.0895 5.59442,0.81421 l 0.144004,-1.40723"
       style="fill:#faf6f2;fill-opacity:1;fill-rule:evenodd;stroke:none;stroke-width:0.03527778"
       id="path968" />
    <path
       inkscape:connector-curvature="0"
       d="m -77.554785,154.00416 c -0.415643,0 -0.772548,0.15028 -1.071033,0.45085 -0.287726,0.30551 -0.431447,0.66922 -0.431447,1.09079 0,0.41628 0.143721,0.77752 0.431447,1.08303 0.298485,0.29527 0.65539,0.44309 1.071033,0.44309 0.426367,0 0.786025,-0.14782 1.078865,-0.44309 0.282469,-0.30551 0.423581,-0.66675 0.423581,-1.08303 0,-0.42157 -0.141112,-0.78528 -0.423581,-1.09079 -0.29284,-0.30057 -0.652498,-0.45085 -1.078865,-0.45085"
       style="fill:#b05e48;fill-opacity:1;fill-rule:evenodd;stroke:none;stroke-width:0.03527778"
       id="path970" />
    <path
       inkscape:connector-curvature="0"
       d="m -78.79367,155.30062 c 0,0.28998 0.101283,0.54292 0.303742,0.75918 0.213184,0.20567 0.466337,0.30832 0.759284,0.30832 0.298344,0 0.551497,-0.10265 0.759177,-0.30832 0.202707,-0.21626 0.303848,-0.4692 0.303848,-0.75918 0,-0.29492 -0.101141,-0.54786 -0.303848,-0.75883 -0.20768,-0.2106 -0.460833,-0.31608 -0.759177,-0.31608 -0.292947,0 -0.5461,0.10548 -0.759284,0.31608 -0.202459,0.21097 -0.303742,0.46391 -0.303742,0.75883"
       style="fill:#100f0d;fill-opacity:1;fill-rule:evenodd;stroke:none;stroke-width:0.03527778"
       id="path972" />
    <path
       inkscape:connector-curvature="0"
       d="m -78.545067,155.06532 c 0,0.16227 0.05666,0.30162 0.169933,0.41733 0.113136,0.11607 0.251883,0.17392 0.41589,0.17392 0.160125,0 0.298626,-0.0579 0.415889,-0.17392 0.113136,-0.11571 0.169757,-0.25506 0.169757,-0.41733 0,-0.1584 -0.05662,-0.29528 -0.169757,-0.41134 -0.117263,-0.11571 -0.255764,-0.17357 -0.415889,-0.17357 -0.164007,0 -0.302754,0.0579 -0.41589,0.17357 -0.113277,0.11606 -0.169933,0.25294 -0.169933,0.41134"
       style="fill:#ffffff;fill-opacity:1;fill-rule:evenodd;stroke:none;stroke-width:0.03527778"
       id="path974" />
    <path
       inkscape:connector-curvature="0"
       d="m -63.74431,163.06632 c 0.111828,0.12664 0.189087,0.2928 0.231775,0.49847 -0.09067,-0.1584 -0.218723,-0.2928 -0.383823,-0.40322 -0.276932,-0.1898 -0.663575,-0.32421 -1.158875,-0.40358 0.607483,-0.0681 1.036108,0.0268 1.286581,0.28504 0.01093,0.005 0.01871,0.013 0.02434,0.0233"
       style="fill:#ba613e;fill-opacity:1;fill-rule:evenodd;stroke:none;stroke-width:0.03527778"
       id="path976" />
    <path
       inkscape:connector-curvature="0"
       d="m -78.027048,165.94287 c -0.0053,-0.005 -0.0053,-0.013 0,-0.0236 0.09052,-0.35313 0.415889,-0.64841 0.975219,-0.88547 -0.388867,0.31608 -0.655532,0.62441 -0.799254,0.92498 -0.09052,0.17392 -0.135996,0.35313 -0.135996,0.53763 -0.06368,-0.20038 -0.07719,-0.38488 -0.03997,-0.55351"
       style="fill:#ba613e;fill-opacity:1;fill-rule:evenodd;stroke:none;stroke-width:0.03527778"
       id="path978" />
    <path
       inkscape:connector-curvature="0"
       d="m -59.160669,157.75666 c 0.910871,-0.79058 1.038929,-1.57868 0.383469,-2.36397 -0.06914,-0.0843 -0.146402,-0.1658 -0.231775,-0.24518 0.980368,-1.84432 1.96356,-2.53224 2.949223,-2.06339 0.474133,0.33725 0.33302,1.30739 -0.423688,2.90935 0.452967,-1.63371 0.420865,-2.46626 -0.09595,-2.49801 -0.538339,-0.12665 -1.172281,0.36336 -1.902179,1.47037 0.719315,-0.17921 1.110898,0.0868 1.175104,0.79834 -0.357013,-0.37924 -0.722138,-0.54293 -1.095023,-0.49001 0.751065,1.04881 0.498123,1.87643 -0.759177,2.4825"
       style="fill:#cd7f4f;fill-opacity:1;fill-rule:evenodd;stroke:none;stroke-width:0.03527778"
       id="path980" />
    <path
       inkscape:connector-curvature="0"
       d="m -83.855466,157.93305 c -0.911014,-0.79058 -1.039036,-1.57868 -0.383646,-2.36397 0.06932,-0.0843 0.146473,-0.1658 0.231775,-0.24518 -0.980475,-1.84432 -1.96342,-2.53224 -2.949116,-2.06339 -0.474204,0.33725 -0.333093,1.30739 0.42358,2.90935 -0.452931,-1.63371 -0.420829,-2.46627 0.09592,-2.49802 0.538268,-0.12664 1.172175,0.36337 1.902107,1.47038 -0.719314,-0.17921 -1.110826,0.0868 -1.174785,0.79834 0.356941,-0.37924 0.721819,-0.54293 1.094881,-0.49001 -0.75117,1.04881 -0.498192,1.87642 0.759284,2.4825"
       style="fill:#cd7f4f;fill-opacity:1;fill-rule:evenodd;stroke:none;stroke-width:0.03527778"
       id="path982" />
    <path
       inkscape:connector-curvature="0"
       d="m -60.678319,131.33431 c 0.8001,0.72919 1.293636,1.45803 1.481667,2.18687 -1.7399,-1.1169 -3.374673,-1.99284 -4.903258,-2.62784 0.28222,-0.29422 0.623358,-0.4117 1.022702,-0.35278 0.893939,0.20002 1.693333,0.46461 2.398889,0.79375"
       style="fill:#2e2d2d;fill-opacity:1;fill-rule:evenodd;stroke:none;stroke-width:0.03527778"
       id="path1248" />
    <path
       inkscape:connector-curvature="0"
       d="m -64.09991,130.89334 c 1.528585,0.635 3.163358,1.51094 4.903258,2.62784 -0.188031,-0.72884 -0.681567,-1.45768 -1.481667,-2.18687 2.022827,0.95215 3.25755,2.44581 3.704167,4.47992 0.200377,0.8943 -0.04692,1.35855 -0.740481,1.39383 -0.17639,-0.3295 -0.364774,-0.66428 -0.564444,-1.00542 -1.434748,-2.43416 -3.4925,-4.02166 -6.173613,-4.7625 0.105833,-0.22366 0.223308,-0.40569 0.35278,-0.5468"
       style="fill:#100f0d;fill-opacity:1;fill-rule:evenodd;stroke:none;stroke-width:0.03527778"
       id="path1250" />
    <path
       inkscape:connector-curvature="0"
       d="m -73.095744,147.89687 c -0.470606,-1.5875 -0.823384,-3.169 -1.058334,-4.74451 -0.388337,-2.6931 -0.42926,-5.37986 -0.123754,-8.06097 l 1.940278,3.40431 c -0.02342,0.71719 -0.02342,1.42875 0,2.1343 0.01171,0.82303 0.06477,1.64642 0.158891,2.46945 0.282081,2.48108 0.881944,4.86233 1.798955,7.14375 -1.011132,-0.79975 -1.91636,-1.58186 -2.716036,-2.34633 z m -8.43153,-16.03339 c 0.623147,-0.9525 1.352127,-1.34091 2.187222,-1.16452 -0.07056,0.49424 -0.123613,1.55822 -0.15875,3.19299 -0.02342,1.63442 0.558377,4.08622 1.74625,7.35541 -0.246944,0.62301 -0.540738,1.31128 -0.881944,2.0634 -0.964213,2.08174 -2.310554,4.63938 -4.039306,7.67292 -0.01171,3.04588 0.305929,6.1916 0.9525,9.4368 -0.529167,-0.45826 -1.023197,-0.91122 -1.481667,-1.35784 -1.034908,-3.24555 -1.352126,-6.49711 -0.952641,-9.75466 1.387687,-1.62242 2.475371,-3.60362 3.263195,-5.94395 0.376625,-1.11725 0.682131,-2.32833 0.917504,-3.63361 z m 19.155622,20.76097 c 0.05891,-2.83387 -0.517173,-6.09706 -1.728258,-9.78959 -0.40005,-1.22308 -0.864307,-2.49308 -1.393473,-3.81 l 2.522008,2.08104 c 0.364418,0.54151 0.69991,1.09396 1.005768,1.65841 1.434397,2.55164 2.31634,5.16819 2.645834,7.8493 l 2.416175,-1.94027 c -0.176387,-2.26978 -0.511527,-4.28625 -1.005062,-6.05014 -0.905934,-3.23392 -2.334332,-5.62081 -4.286605,-7.16174 l -6.438193,-4.55048 c 0.141464,0.0116 0.276576,0.0176 0.406048,0.0176 1.375478,0.0116 2.634191,0.18204 3.77472,0.51153 2.681113,0.74084 4.738865,2.32834 6.173613,4.7625 0.19967,0.34114 0.388054,0.67592 0.564444,1.00542 0.987425,1.83444 1.692981,3.61597 2.116666,5.34458 0.634648,2.58692 0.646642,5.58553 0.03493,8.99583 -0.493535,-0.12946 -0.97014,-0.12382 -1.42875,0.0177 -0.470252,0.12912 -1.205441,0.52317 -2.20486,1.18145 0.01199,1.65841 -0.188031,3.33975 -0.599723,5.04508 -0.41134,-1.69369 -1.269648,-3.41595 -2.575277,-5.1682"
       style="fill:#81463f;fill-opacity:1;fill-rule:evenodd;stroke:none;stroke-width:0.03527778"
       id="path1252" />
    <path
       inkscape:connector-curvature="0"
       d="m -81.527274,131.86348 1.552363,7.86694 c -0.235373,1.30528 -0.540879,2.51636 -0.917504,3.63361 -0.787824,2.34033 -1.875508,4.32153 -3.263195,5.94395 -0.399485,3.25755 -0.08227,6.50911 0.952641,9.75466 -4.562686,-4.60975 -5.397499,-9.78958 -2.504581,-15.53986 0.129117,-0.24694 0.264584,-0.49989 0.405413,-0.75847 0.99949,-1.56422 1.746391,-3.79836 2.240421,-6.70278 0.423051,-1.91699 0.934579,-3.31611 1.534442,-4.19805 z m 9.18972,8.76652 c -0.02342,-0.70555 -0.02342,-1.41711 0,-2.1343 l -1.940278,-3.40431 c -0.305506,2.68111 -0.264583,5.36787 0.123754,8.06097 0.23495,1.57551 0.587728,3.15701 1.058334,4.74451 -1.71704,-1.63406 -2.986899,-3.18664 -3.810282,-4.65631 -0.376203,-0.68192 -0.658425,-1.34655 -0.846526,-1.9932 -1.187873,-3.26919 -1.769674,-5.72099 -1.74625,-7.35541 0.03514,-1.63477 0.08819,-2.69875 0.15875,-3.19299 0.293934,-2.18687 1.669909,-2.68076 4.127641,-1.48132 2.516293,0.98778 4.709583,1.55222 6.578953,1.69334 l 6.438193,4.55048 c 1.952273,1.54093 3.380671,3.92782 4.286605,7.16174 0.493535,1.76389 0.828675,3.78036 1.005062,6.05014 l -2.416175,1.94027 c -0.329494,-2.68111 -1.211437,-5.29766 -2.645834,-7.8493 -0.305858,-0.56445 -0.64135,-1.1169 -1.005768,-1.65841 l -2.522008,-2.08104 c 0.529166,1.31692 0.993423,2.58692 1.393473,3.81 1.211085,3.69253 1.78717,6.95572 1.728258,9.78959 -0.764471,-1.02341 -1.68134,-2.05211 -2.751315,-3.08681 -2.269773,-2.02283 -4.180416,-4.18606 -5.73278,-6.49146 -0.540878,-0.78776 -1.034908,-1.59315 -1.481807,-2.41618"
       style="fill:#ab6756;fill-opacity:1;fill-rule:evenodd;stroke:none;stroke-width:0.03527778"
       id="path1254" />
    <path
       inkscape:connector-curvature="0"
       d="m -64.45269,131.44014 c 0.105833,-0.22366 0.223308,-0.40569 0.35278,-0.5468 0.28222,-0.29422 0.623358,-0.4117 1.022702,-0.35278 0.893939,0.20002 1.693333,0.46461 2.398889,0.79375 2.022827,0.95215 3.25755,2.44581 3.704167,4.47992 0.200377,0.8943 -0.04692,1.35855 -0.740481,1.39383"
       style="fill:none;stroke:#100f0d;stroke-width:0.35277775;stroke-linecap:round;stroke-linejoin:round;stroke-miterlimit:3;stroke-dasharray:none;stroke-opacity:1"
       id="path1256" />
  </g>
</svg>
