<?xml version="1.0" encoding="UTF-8" standalone="no"?>
<!-- Created with Inkscape (http://www.inkscape.org/) -->

<svg
   xmlns:dc="http://purl.org/dc/elements/1.1/"
   xmlns:cc="http://creativecommons.org/ns#"
   xmlns:rdf="http://www.w3.org/1999/02/22-rdf-syntax-ns#"
   xmlns:svg="http://www.w3.org/2000/svg"
   xmlns="http://www.w3.org/2000/svg"
   xmlns:sodipodi="http://sodipodi.sourceforge.net/DTD/sodipodi-0.dtd"
   xmlns:inkscape="http://www.inkscape.org/namespaces/inkscape"
   width="60.92437mm"
   height="60.924744mm"
   viewBox="0 0 60.924369 60.924744"
   version="1.1"
   id="svg5725"
   inkscape:version="0.92.1 r15371"
   sodipodi:docname="face4.svg">
  <defs
     id="defs5719" />
  <sodipodi:namedview
     id="base"
     pagecolor="#ffffff"
     bordercolor="#666666"
     borderopacity="1.0"
     inkscape:pageopacity="0.0"
     inkscape:pageshadow="2"
     inkscape:zoom="2.8"
     inkscape:cx="-93.945537"
     inkscape:cy="136.71794"
     inkscape:document-units="mm"
     inkscape:current-layer="layer1"
     showgrid="false"
     fit-margin-top="0"
     fit-margin-left="0"
     fit-margin-right="0"
     fit-margin-bottom="0"
     inkscape:window-width="1920"
     inkscape:window-height="1001"
     inkscape:window-x="-9"
     inkscape:window-y="-9"
     inkscape:window-maximized="1" />
  <metadata
     id="metadata5722">
    <rdf:RDF>
      <cc:Work
         rdf:about="">
        <dc:format>image/svg+xml</dc:format>
        <dc:type
           rdf:resource="http://purl.org/dc/dcmitype/StillImage" />
        <dc:title></dc:title>
      </cc:Work>
    </rdf:RDF>
  </metadata>
  <g
     inkscape:label="Layer 1"
     inkscape:groupmode="layer"
     id="layer1"
     transform="translate(95.236685,-94.888617)">
    <path
       inkscape:connector-curvature="0"
       d="m -61.334741,141.93154 v 3.31611 l -5.115277,-3.8982 c 1.704975,0.72919 3.410302,0.92287 5.115277,0.58209"
       style="fill:#f9b282;fill-opacity:1;fill-rule:evenodd;stroke:none;stroke-width:0.03527778"
       id="path358" />
    <path
       inkscape:connector-curvature="0"
       d="m -56.290373,147.47015 0.582438,4.16277 -3.81,-4.56847 v -4.19805 l 2.627842,1.00541 0.59972,3.59834"
       style="fill:#da2847;fill-opacity:1;fill-rule:evenodd;stroke:none;stroke-width:0.03527778"
       id="path360" />
    <path
       inkscape:connector-curvature="0"
       d="m -54.51731,154.12882 -0.06174,-0.097 0.03528,0.10584 c -1.061157,0.37253 -2.149123,0.68438 -3.263197,0.93486 v -3.36903 l 4.28625,1.35819 0.149932,0.635 c -0.378532,0.1524 -0.760942,0.29634 -1.146527,0.43215"
       style="fill:#da2847;fill-opacity:1;fill-rule:evenodd;stroke:none;stroke-width:0.03527778"
       id="path362" />
    <path
       inkscape:connector-curvature="0"
       d="m -62.419885,155.73396 1.1557,-3.3602 2.874785,2.82222 c -1.307041,0.26317 -2.650418,0.44238 -4.030485,0.53798"
       style="fill:#da2847;fill-opacity:1;fill-rule:evenodd;stroke:none;stroke-width:0.03527778"
       id="path364" />
    <path
       inkscape:connector-curvature="0"
       d="m -64.977525,155.81334 -7.099652,-10.30111 -0.564092,-0.88194 4.674304,-3.8982 h 1.569863 l -0.05292,0.61736 -0.07091,0.635 5.521325,4.74486 -0.494241,1.37584 -2.742497,7.70819 c -0.179916,0 -0.359126,0 -0.537985,0 -0.06844,0 -0.135818,0 -0.2032,0"
       style="fill:#da2847;fill-opacity:1;fill-rule:evenodd;stroke:none;stroke-width:0.03527778"
       id="path366" />
    <path
       inkscape:connector-curvature="0"
       d="m -73.858352,146.16487 6.843887,9.57791 c -5.250037,-0.34396 -9.994898,-1.91064 -14.234934,-4.70076 1.141941,-1.75613 3.605388,-3.38208 7.391047,-4.87715"
       style="fill:#da2847;fill-opacity:1;fill-rule:evenodd;stroke:none;stroke-width:0.03527778"
       id="path368" />
    <path
       inkscape:connector-curvature="0"
       d="m -61.334741,141.93154 c -1.704975,0.34078 -3.410302,0.1471 -5.115277,-0.58209 l 0.05292,-0.61736 1.411111,-12.52361 5.468056,1.5875 v 11.53583 c -0.611365,0.25859 -1.217083,0.45861 -1.816806,0.59973"
       style="fill:#ba613e;fill-opacity:1;fill-rule:evenodd;stroke:none;stroke-width:0.03527778"
       id="path370" />
    <path
       inkscape:connector-curvature="0"
       d="m -66.450018,141.34945 5.115277,3.8982 v -3.31611 c 0.599723,-0.14112 1.205441,-0.34114 1.816806,-0.59973 v 1.53459 4.19805 l 0.44097,5.78556 -2.416878,-4.74486 0.494241,-1.37584 -5.521325,-4.74486 0.07091,-0.635"
       style="fill:#cd7f4f;fill-opacity:1;fill-rule:evenodd;stroke:none;stroke-width:0.03527778"
       id="path372" />
    <path
       inkscape:connector-curvature="0"
       d="m -64.23634,155.81334 2.742497,-7.70819 2.416878,4.74486 -0.44097,-5.78556 3.81,4.56847 -0.582438,-4.16277 c 3.57505,1.61113 5.16255,3.22191 4.7625,4.83305 l -0.03493,0.5909 c -0.593725,0.28928 -1.196268,0.55669 -1.807985,0.80257 l -0.149932,-0.635 -4.28625,-1.35819 v 3.36903 c -0.19332,0.0427 -0.38735,0.0836 -0.582435,0.12347 l -2.874785,-2.82222 -1.1557,3.3602 c -0.599017,0.0409 -1.204738,0.0674 -1.816455,0.0794"
       style="fill:#b01d30;fill-opacity:1;fill-rule:evenodd;stroke:none;stroke-width:0.03527778"
       id="path374" />
    <path
       inkscape:connector-curvature="0"
       d="m -54.543768,154.13765 -0.03528,-0.10584 0.06174,0.097 c -0.01024,0.003 -0.01905,0.006 -0.02646,0.009"
       style="fill:#b01d30;fill-opacity:1;fill-rule:evenodd;stroke:none;stroke-width:0.03527778"
       id="path376" />
    <path
       inkscape:connector-curvature="0"
       d="m -72.077177,145.51223 7.099652,10.30111 c -0.686858,-0.004 -1.365956,-0.0279 -2.03694,-0.0706 l -6.843887,-9.57791 c 0.564091,-0.22331 1.158169,-0.44097 1.781175,-0.65264"
       style="fill:#b01d30;fill-opacity:1;fill-rule:evenodd;stroke:none;stroke-width:0.03527778"
       id="path378" />
    <path
       inkscape:connector-curvature="0"
       d="m -64.985991,128.20848 5.468056,1.5875"
       style="fill:none;stroke:#ed1d24;stroke-width:0.35277775;stroke-linecap:round;stroke-linejoin:round;stroke-miterlimit:3;stroke-dasharray:none;stroke-opacity:1"
       id="path380" />
    <path
       inkscape:connector-curvature="0"
       d="m -51.562798,127.02667 1.075973,-7.00263 c 0.03493,-0.0236 0.07056,-0.0413 0.105482,-0.0529 0.03563,-0.0236 0.07091,-0.0413 0.105833,-0.0529 2.575629,-1.31692 3.710517,-0.78211 3.404658,1.60514 -0.141464,0.8703 -0.440973,1.68169 -0.899583,2.43417 -0.01164,0 -0.01765,0.0116 -0.01765,0.0353 -1.505656,2.38724 -2.704748,3.42194 -3.598333,3.10444 -0.03563,-0.0116 -0.06491,-0.0236 -0.08819,-0.0353 -0.03563,-0.012 -0.06491,-0.0236 -0.0882,-0.0353"
       style="fill:#f9b282;fill-opacity:1;fill-rule:evenodd;stroke:none;stroke-width:0.03527778"
       id="path524" />
    <path
       inkscape:connector-curvature="0"
       d="m -75.234538,124.18681 c 7.408332,-2.63419 14.210947,-6.17961 20.408547,-10.63625 1.434393,4.18642 1.681339,8.53723 0.740481,13.05278 -0.90523,10.13636 -5.291667,14.56372 -13.158258,13.28208 -4.292248,-2.6931 -6.744407,-6.02086 -7.355418,-9.98361 l -0.352777,-3.0868 -0.282575,-2.6282"
       style="fill:#f9b282;fill-opacity:1;fill-rule:evenodd;stroke:none;stroke-width:0.03527778"
       id="path526" />
    <path
       inkscape:connector-curvature="0"
       d="m -76.327797,120.02404 1.128889,7.00263 c -0.02399,0.0116 -0.05327,0.0176 -0.08819,0.0176 -0.02399,0.0116 -0.05327,0.0293 -0.08819,0.0529 -0.905933,0.34113 -2.116666,-0.69392 -3.633611,-3.10445 0,-0.0236 -0.0063,-0.0353 -0.01799,-0.0353 -0.458611,-0.75247 -0.764117,-1.56386 -0.91687,-2.43416 -0.317853,-2.39889 0.817033,-2.93405 3.404306,-1.60514 0.03528,0.0116 0.0702,0.0293 0.105833,0.0529 0.03493,0.0116 0.07056,0.0293 0.105833,0.0529"
       style="fill:#f9b282;fill-opacity:1;fill-rule:evenodd;stroke:none;stroke-width:0.03527778"
       id="path528" />
    <path
       inkscape:connector-curvature="0"
       d="m -67.243768,139.88542 c 7.866591,1.28164 12.253028,-3.14572 13.158258,-13.28208 0.940858,-4.51555 0.693912,-8.86636 -0.740481,-13.05278 -6.1976,4.45664 -13.000215,8.00206 -20.408547,10.63625 l -0.422981,-3.77472 -0.123825,-1.07597 c -1.810455,-11.65331 1.399469,-17.68616 9.630834,-18.0975 h 5.397852 c 8.231365,0.41134 11.471275,6.44419 9.719027,18.0975 l -0.123825,1.07597 -0.687562,6.40292 -0.33514,3.0868 c -0.611717,4.13914 -3.228269,7.58473 -7.849307,10.33639 -1.98755,1.17581 -4.21005,1.17581 -6.667851,0 -0.188032,-0.11747 -0.370065,-0.2353 -0.546452,-0.35278"
       style="fill:#cd7f4f;fill-opacity:1;fill-rule:evenodd;stroke:none;stroke-width:0.03527778"
       id="path530" />
    <path
       inkscape:connector-curvature="0"
       d="m -51.845018,126.81501 0.687562,-6.40292 c 0.235304,-0.14111 0.458965,-0.27058 0.670631,-0.38805 l -1.075973,7.00263 c -0.09419,-0.0469 -0.188029,-0.11747 -0.28222,-0.21166"
       style="fill:#ba613e;fill-opacity:1;fill-rule:evenodd;stroke:none;stroke-width:0.03527778"
       id="path532" />
    <path
       inkscape:connector-curvature="0"
       d="m -75.198908,127.02667 -1.128889,-7.00263 c 0.211314,0.11747 0.434975,0.24694 0.670278,0.38805 l 0.422981,3.77472 0.282575,2.6282 c -0.0822,0.0822 -0.164748,0.15275 -0.246945,0.21166"
       style="fill:#ba613e;fill-opacity:1;fill-rule:evenodd;stroke:none;stroke-width:0.03527778"
       id="path534" />
    <path
       inkscape:connector-curvature="0"
       d="m -65.885927,130.83667 c 1.705327,-0.10583 3.387019,-0.34113 5.045075,-0.70555 -1.658056,0.91722 -3.339748,1.15217 -5.045075,0.70555"
       style="fill:#cd7f4f;fill-opacity:1;fill-rule:evenodd;stroke:none;stroke-width:0.03527778"
       id="path1140" />
    <path
       inkscape:connector-curvature="0"
       d="m -60.840852,130.13112 c -0.564798,1.03469 -1.481666,1.62877 -2.752021,1.78153 -0.881943,0.0822 -1.64606,-0.27658 -2.293054,-1.07598 1.705327,0.44662 3.387019,0.21167 5.045075,-0.70555"
       style="fill:#e99c69;fill-opacity:1;fill-rule:evenodd;stroke:none;stroke-width:0.03527778"
       id="path1142" />
    <path
       inkscape:connector-curvature="0"
       d="m -60.8405,119.04719 c 2.04611,-0.97754 4.123973,-1.59349 6.233935,-1.84855 1.30528,0.60854 2.264482,1.14159 2.877257,1.59914 -3.048,-0.9465 -5.773208,-0.68368 -8.175977,0.78775 -0.40499,-0.031 -0.716846,-0.21061 -0.935215,-0.53834 z m 7.384698,3.86892 c -0.138289,0.19755 -0.324908,0.37183 -0.559506,0.52246 0.02151,-0.46249 -0.03457,-0.83714 -0.167569,-1.12289 -1.747663,-1.17016 -3.604683,-0.99095 -5.570714,0.53798 1.808339,-2.00801 3.561291,-2.55904 5.258858,-1.65346 0.05186,0.0272 0.103717,0.0561 0.155927,0.0857 0.777171,0.40146 1.420283,0.21449 1.930048,-0.56162 -0.09349,0.81668 -0.442383,1.54728 -1.047044,2.19181"
       style="fill:#100f0d;fill-opacity:1;fill-rule:evenodd;stroke:none;stroke-width:0.03527778"
       id="path1144" />
    <path
       inkscape:connector-curvature="0"
       d="m -54.015308,123.43857 c 0.234598,-0.15063 0.421217,-0.32491 0.559506,-0.52246 -0.420864,1.21673 -1.425223,1.97061 -3.013075,2.26201 -1.113366,0.13511 -2.160413,-0.17674 -3.140781,-0.93592 2.445456,1.25836 4.31024,0.9906 5.59435,-0.80363"
       style="fill:#cd7f4f;fill-opacity:1;fill-rule:evenodd;stroke:none;stroke-width:0.03527778"
       id="path1146" />
    <path
       inkscape:connector-curvature="0"
       d="m -59.753591,122.85366 c 1.966031,-1.52893 3.823051,-1.70814 5.570714,-0.53798 0.132996,0.28575 0.189087,0.6604 0.167569,1.12289 -1.28411,1.79423 -3.148894,2.06199 -5.59435,0.80363 l -0.143933,-1.38854"
       style="fill:#faf6f2;fill-opacity:1;fill-rule:evenodd;stroke:none;stroke-width:0.03527778"
       id="path1148" />
    <path
       inkscape:connector-curvature="0"
       d="m -56.628685,121.77734 c 0.41557,0 0.772583,0.14817 1.071033,0.4445 0.287867,0.30162 0.431446,0.6604 0.431446,1.07632 0,0.41099 -0.143579,0.7673 -0.431446,1.06857 -0.29845,0.29139 -0.655463,0.43709 -1.071033,0.43709 -0.426156,0 -0.78599,-0.1457 -1.078796,-0.43709 -0.282575,-0.30127 -0.423685,-0.65758 -0.423685,-1.06857 0,-0.41592 0.14111,-0.7747 0.423685,-1.07632 0.292806,-0.29633 0.65264,-0.4445 1.078796,-0.4445"
       style="fill:#b05e48;fill-opacity:1;fill-rule:evenodd;stroke:none;stroke-width:0.03527778"
       id="path1150" />
    <path
       inkscape:connector-curvature="0"
       d="m -55.389731,123.05651 c 0,0.2861 -0.101246,0.53552 -0.303742,0.7486 -0.213077,0.20284 -0.46637,0.30444 -0.759177,0.30444 -0.29845,0 -0.551743,-0.1016 -0.759531,-0.30444 -0.202494,-0.21308 -0.303742,-0.4625 -0.303742,-0.7486 0,-0.29139 0.101248,-0.54081 0.303742,-0.74859 0.207788,-0.20814 0.461081,-0.31221 0.759531,-0.31221 0.292807,0 0.5461,0.10407 0.759177,0.31221 0.202496,0.20778 0.303742,0.4572 0.303742,0.74859"
       style="fill:#100f0d;fill-opacity:1;fill-rule:evenodd;stroke:none;stroke-width:0.03527778"
       id="path1152" />
    <path
       inkscape:connector-curvature="0"
       d="m -55.63844,122.82439 c 0,0.1598 -0.0568,0.29739 -0.169685,0.41169 -0.113241,0.1143 -0.252235,0.17145 -0.415925,0.17145 -0.16016,0 -0.298802,-0.0572 -0.415925,-0.17145 -0.113241,-0.1143 -0.17004,-0.25189 -0.17004,-0.41169 0,-0.15629 0.0568,-0.29175 0.17004,-0.40605 0.117123,-0.1143 0.255765,-0.17145 0.415925,-0.17145 0.16369,0 0.302684,0.0571 0.415925,0.17145 0.11289,0.1143 0.169685,0.24976 0.169685,0.40605"
       style="fill:#ffffff;fill-opacity:1;fill-rule:evenodd;stroke:none;stroke-width:0.03527778"
       id="path1154" />
    <path
       inkscape:connector-curvature="0"
       d="m -65.215298,119.04719 c -2.04611,-0.97754 -4.123971,-1.59349 -6.233935,-1.84855 -1.305278,0.60854 -2.26448,1.14159 -2.877255,1.59914 3.048,-0.9465 5.773207,-0.68368 8.175978,0.78775 0.404987,-0.031 0.716844,-0.21061 0.935212,-0.53834 z m -7.384696,3.86892 c 0.138289,0.19755 0.324908,0.37183 0.559506,0.52246 -0.02152,-0.46249 0.03457,-0.83714 0.167922,-1.12289 1.747308,-1.17016 3.604331,-0.99095 5.57036,0.53798 -1.808337,-2.00801 -3.561291,-2.55904 -5.258857,-1.65346 -0.05186,0.0272 -0.103364,0.0561 -0.155928,0.0857 -0.77717,0.40146 -1.420284,0.21449 -1.930047,-0.56162 0.09349,0.81668 0.442383,1.54728 1.047044,2.19181"
       style="fill:#100f0d;fill-opacity:1;fill-rule:evenodd;stroke:none;stroke-width:0.03527778"
       id="path1156" />
    <path
       inkscape:connector-curvature="0"
       d="m -72.040488,123.43857 c -0.234598,-0.15063 -0.421217,-0.32491 -0.559506,-0.52246 0.420864,1.21673 1.425222,1.97061 3.013075,2.26201 1.113367,0.13511 2.160411,-0.17674 3.140779,-0.93592 -2.445454,1.25836 -4.310237,0.9906 -5.594348,-0.80363"
       style="fill:#cd7f4f;fill-opacity:1;fill-rule:evenodd;stroke:none;stroke-width:0.03527778"
       id="path1158" />
    <path
       inkscape:connector-curvature="0"
       d="m -66.302206,122.85366 c -1.966029,-1.52893 -3.823052,-1.70814 -5.57036,-0.53798 -0.13335,0.28575 -0.189442,0.6604 -0.167922,1.12289 1.284111,1.79423 3.148894,2.06199 5.594348,0.80363 l 0.143934,-1.38854"
       style="fill:#faf6f2;fill-opacity:1;fill-rule:evenodd;stroke:none;stroke-width:0.03527778"
       id="path1160" />
    <path
       inkscape:connector-curvature="0"
       d="m -69.427111,121.77734 c -0.415572,0 -0.772583,0.14817 -1.071033,0.4445 -0.287514,0.30162 -0.431447,0.6604 -0.431447,1.07632 0,0.41099 0.143933,0.7673 0.431447,1.06857 0.29845,0.29139 0.655461,0.43709 1.071033,0.43709 0.426156,0 0.785988,-0.1457 1.078795,-0.43709 0.282575,-0.30127 0.423685,-0.65758 0.423685,-1.06857 0,-0.41592 -0.14111,-0.7747 -0.423685,-1.07632 -0.292807,-0.29633 -0.652639,-0.4445 -1.078795,-0.4445"
       style="fill:#b05e48;fill-opacity:1;fill-rule:evenodd;stroke:none;stroke-width:0.03527778"
       id="path1162" />
    <path
       inkscape:connector-curvature="0"
       d="m -70.666066,123.05651 c 0,0.2861 0.101247,0.53552 0.303741,0.7486 0.213078,0.20284 0.466373,0.30444 0.759178,0.30444 0.29845,0 0.551745,-0.1016 0.759531,-0.30444 0.202493,-0.21308 0.303741,-0.4625 0.303741,-0.7486 0,-0.29139 -0.101248,-0.54081 -0.303741,-0.74859 -0.207786,-0.20814 -0.461081,-0.31221 -0.759531,-0.31221 -0.292805,0 -0.5461,0.10407 -0.759178,0.31221 -0.202494,0.20778 -0.303741,0.4572 -0.303741,0.74859"
       style="fill:#100f0d;fill-opacity:1;fill-rule:evenodd;stroke:none;stroke-width:0.03527778"
       id="path1164" />
    <path
       inkscape:connector-curvature="0"
       d="m -70.417358,122.82439 c 0,0.1598 0.0568,0.29739 0.169686,0.41169 0.113242,0.1143 0.252236,0.17145 0.415925,0.17145 0.160161,0 0.298803,-0.0572 0.415925,-0.17145 0.113242,-0.1143 0.170039,-0.25189 0.170039,-0.41169 0,-0.15629 -0.0568,-0.29175 -0.170039,-0.40605 -0.117122,-0.1143 -0.255764,-0.17145 -0.415925,-0.17145 -0.163689,0 -0.302683,0.0571 -0.415925,0.17145 -0.112889,0.1143 -0.169686,0.24976 -0.169686,0.40605"
       style="fill:#ffffff;fill-opacity:1;fill-rule:evenodd;stroke:none;stroke-width:0.03527778"
       id="path1166" />
    <path
       inkscape:connector-curvature="0"
       d="m -51.033631,125.47939 c 0.911225,-0.77999 1.038931,-1.55716 0.383823,-2.33186 -0.0695,-0.0833 -0.146757,-0.16404 -0.231775,-0.24201 0.980368,-1.81998 1.963208,-2.49872 2.948868,-2.03588 0.474488,0.33303 0.333024,1.28976 -0.423333,2.87056 0.452967,-1.6122 0.420865,-2.43346 -0.09595,-2.46486 -0.538339,-0.12489 -1.172281,0.35877 -1.902179,1.45062 0.719315,-0.17674 1.110898,0.0861 1.17475,0.7881 -0.35701,-0.37465 -0.721784,-0.53586 -1.094669,-0.48365 0.751065,1.03469 0.498123,1.85102 -0.759531,2.44898"
       style="fill:#cd7f4f;fill-opacity:1;fill-rule:evenodd;stroke:none;stroke-width:0.03527778"
       id="path1168" />
    <path
       inkscape:connector-curvature="0"
       d="m -75.728075,125.65578 c -0.911224,-0.77999 -1.03893,-1.55716 -0.383822,-2.33186 0.0695,-0.0833 0.146756,-0.16404 0.231775,-0.24201 -0.980369,-1.81998 -1.963208,-2.49872 -2.948869,-2.03588 -0.474486,0.33302 -0.333022,1.28976 0.423333,2.87056 -0.452966,-1.6122 -0.420864,-2.43347 0.09596,-2.46486 0.538339,-0.12489 1.17228,0.35877 1.902178,1.45062 -0.719314,-0.17674 -1.110898,0.0861 -1.17475,0.7881 0.357011,-0.37465 0.721783,-0.53586 1.095022,-0.48365 -0.751417,1.03469 -0.498475,1.85102 0.759177,2.44898"
       style="fill:#cd7f4f;fill-opacity:1;fill-rule:evenodd;stroke:none;stroke-width:0.03527778"
       id="path1170" />
    <path
       inkscape:connector-curvature="0"
       d="m -67.245181,133.71534 c -0.282575,0.0222 -0.561975,0.004 -0.838552,-0.0543 l -0.481894,-0.23812 c 1.075267,0.007 2.030236,-0.17815 2.865261,-0.55492 0.853723,-0.2981 1.690158,-0.42192 2.509308,-0.37183 0.837848,-0.18133 1.683808,-0.18521 2.537531,-0.0109 0.884767,0.25224 1.851729,0.29634 2.901244,0.13265 l -0.422627,0.27516 c -0.288925,0.10337 -0.573265,0.17181 -0.854781,0.20567 -0.292807,0.0462 -0.58279,0.0522 -0.869599,0.0173 -0.08678,-0.005 -0.174625,-0.0208 -0.26317,-0.048 -0.66534,-0.13194 -1.355021,-0.18062 -2.068338,-0.1471 -0.09772,0.0194 -0.214135,0.0286 -0.350308,0.0275 l -1.124302,0.072 c -0.08502,0.0183 -0.176742,0.0314 -0.274815,0.0392 -0.761645,0.06 -1.472142,0.20884 -2.132893,0.4452 -0.359482,0.14358 -0.736952,0.21378 -1.132065,0.21061"
       style="fill:#b05e48;fill-opacity:1;fill-rule:evenodd;stroke:none;stroke-width:0.03527778"
       id="path1172" />
    <path
       inkscape:connector-curvature="0"
       d="m -59.029691,133.09869 c -0.240242,0.39899 -0.51435,0.76023 -0.822325,1.08408 -0.331611,0.3369 -0.703792,0.62548 -1.116894,0.86537 -0.354896,0.20072 -0.743305,0.36935 -1.164521,0.50658 -0.555625,0.15911 -1.126419,0.20426 -1.712735,0.13582 -0.48754,-0.0765 -0.943327,-0.21308 -1.366661,-0.40993 -0.255413,-0.10618 -0.493889,-0.23142 -0.715433,-0.375 -0.470255,-0.31926 -0.909108,-0.71614 -1.316921,-1.19027 0.395113,0.003 0.772583,-0.067 1.132065,-0.21061 0.660751,-0.23636 1.371248,-0.38523 2.132893,-0.4452 0.09807,-0.008 0.189796,-0.0208 0.274815,-0.0392 l 1.124302,-0.072 c 0.136173,0.001 0.25259,-0.008 0.350308,-0.0275 0.713317,-0.0335 1.402998,0.0152 2.068338,0.1471 0.08854,0.0272 0.176387,0.0434 0.26317,0.048 0.286809,0.0349 0.576792,0.0289 0.869599,-0.0173"
       style="fill:#f9efe5;fill-opacity:1;fill-rule:evenodd;stroke:none;stroke-width:0.03527778"
       id="path1174" />
    <path
       inkscape:connector-curvature="0"
       d="m -67.245181,133.71534 c 0.407813,0.47413 0.846666,0.87101 1.316921,1.19027 0.221544,0.14358 0.46002,0.26882 0.715433,0.375 0.423334,0.19685 0.879121,0.33338 1.366661,0.40993 0.586316,0.0684 1.15711,0.0233 1.712735,-0.13582 0.421216,-0.13723 0.809625,-0.30586 1.164521,-0.50658 0.413102,-0.23989 0.785283,-0.52847 1.116894,-0.86537 0.307975,-0.32385 0.582083,-0.68509 0.822325,-1.08408 0.281516,-0.0339 0.565856,-0.10231 0.854781,-0.20568 -0.539398,0.526 -0.975431,1.10138 -1.308455,1.7265 -0.570087,0.91969 -1.421693,1.55116 -2.55552,1.89442 -0.593373,0.15063 -1.226256,0.19508 -1.898298,0.13335 -1.100667,-0.1778 -1.980494,-0.67204 -2.637719,-1.48308 -0.429331,-0.58773 -0.932039,-1.08867 -1.508831,-1.50319 0.276577,0.0586 0.555977,0.0765 0.838552,0.0543"
       style="fill:#914b3a;fill-opacity:1;fill-rule:evenodd;stroke:none;stroke-width:0.03527778"
       id="path1176" />
    <path
       inkscape:connector-curvature="0"
       d="m -80.790788,117.09598 c -0.282222,-1.63477 -0.199672,-3.23956 0.246944,-4.81542 0.529167,-1.89336 1.570214,-3.73944 3.122436,-5.53861 -1.281994,2.83387 -1.811161,5.715 -1.5875,8.64306 z m 33.743547,3.54542 c -0.02363,-0.18803 -0.04692,-0.38806 -0.07091,-0.59973 -0.0822,-0.45861 -0.299508,-0.67627 -0.652285,-0.65263 0.846312,-1.52859 1.399469,-2.92806 1.658054,-4.19806 v 2.27542 c -0.106185,1.32891 -0.417687,2.38724 -0.934859,3.175 z m -4.427361,0.56444 c 0.728837,-3.84528 -0.15875,-7.5318 -2.663473,-11.05958 l -0.212018,-1.37584 c -3.774723,2.63384 -7.755115,5.23276 -11.941175,7.79639 -2.751668,1.69334 -5.591882,3.36303 -8.519937,5.00945 2.163939,-3.24556 4.415719,-5.89139 6.756047,-7.9375 3.844925,-3.35139 7.91351,-5.086 12.205758,-5.20348 -2.857148,-0.83502 -5.914673,-0.45261 -9.172223,1.14653 -1.422752,0.59973 -2.768952,1.39947 -4.039304,2.39889 -2.539648,1.97556 -4.774142,4.73322 -6.702778,8.27264 0.564797,-4.33917 2.457803,-7.67292 5.680075,-10.00125 2.516364,-1.8228 5.844115,-3.03989 9.983612,-3.65125 -4.551188,-0.56445 -8.219723,0.0762 -11.00702,1.92264 -3.080809,2.04611 -5.097639,5.54461 -6.049786,10.49514 -1.611137,-9.90142 1.992841,-15.85736 10.812284,-17.8682 -4.538837,0.0233 -7.83731,1.28164 -9.895062,3.77472 l -2.011186,0.97014 c 1.423105,-2.01083 3.492852,-3.76308 6.209241,-5.25638 4.303537,-2.387253 8.448674,-2.387253 12.435416,0 1.316566,-0.740839 2.586921,-1.122897 3.81,-1.146533 2.481088,0.975783 4.139141,2.304693 4.973815,3.986393 -0.834674,-0.4117 -1.757892,-0.7232 -2.768952,-0.93486 3.057525,1.71661 5.074002,4.13314 6.049785,7.24958 0.741185,2.04611 0.435327,4.93289 -0.916869,8.66069 0.693561,-2.75166 0.529167,-5.83247 -0.494241,-9.24277 0.22366,4.28025 -0.617363,8.27828 -2.522009,11.99444"
       style="fill:#c54d39;fill-opacity:1;fill-rule:evenodd;stroke:none;stroke-width:0.03527778"
       id="path1288" />
    <path
       inkscape:connector-curvature="0"
       d="m -80.790788,117.09598 1.78188,-1.71097 c -0.223661,-2.92806 0.305506,-5.80919 1.5875,-8.64306 -1.552222,1.79917 -2.593269,3.64525 -3.122436,5.53861 0.188384,-2.36361 0.952853,-4.49227 2.293056,-6.38528 l 2.011186,-0.97014 c 2.057752,-2.49308 5.356225,-3.75143 9.895062,-3.77472 -8.819443,2.01084 -12.423421,7.96678 -10.812284,17.8682 0.952147,-4.95053 2.968977,-8.44903 6.049786,-10.49514 2.787297,-1.84644 6.455832,-2.48709 11.00702,-1.92264 -4.139497,0.61136 -7.467248,1.82845 -9.983612,3.65125 -3.222272,2.32833 -5.115278,5.66208 -5.680075,10.00125 1.928636,-3.53942 4.16313,-6.29708 6.702778,-8.27264 1.270352,-0.99942 2.616552,-1.79916 4.039304,-2.39889 3.25755,-1.59914 6.315075,-1.98155 9.172223,-1.14653 -4.292248,0.11748 -8.360833,1.85209 -12.205758,5.20348 -2.340328,2.04611 -4.592108,4.69194 -6.756047,7.9375 2.928055,-1.64642 5.768269,-3.31611 8.519937,-5.00945 4.18606,-2.56363 8.166452,-5.16255 11.941175,-7.79639 l 0.212018,1.37584 c -0.02363,-0.0353 -0.04727,-0.0766 -0.07056,-0.12347 -3.39866,2.72803 -7.173029,5.32094 -11.324519,7.77875 -3.245202,1.91664 -6.714419,3.76307 -10.406944,5.53861 -0.446617,-1.25836 -0.811389,-2.4638 -1.093258,-3.61598 l 0.01729,0.0882 c -1.493308,-0.92887 -2.481086,-0.67628 -2.962981,0.75847 -0.364419,-1.21109 -0.635352,-2.36961 -0.811741,-3.47486 z m 33.743547,3.54542 c 0.517173,-0.78776 0.828675,-1.84609 0.93486,-3.175 v -2.27542 c -0.258585,1.27 -0.811742,2.66947 -1.658054,4.19806 -0.553156,0.99941 -1.37019,1.99319 -2.451806,2.98097 -0.705557,1.09361 -1.599494,2.11666 -2.681111,3.06916 0.693912,-1.43474 1.169811,-2.84586 1.42875,-4.23333 1.904646,-3.71616 2.745669,-7.71419 2.522009,-11.99444 1.023408,3.4103 1.187802,6.49111 0.494241,9.24277 1.352196,-3.7278 1.658054,-6.61458 0.916869,-8.66069 -0.975783,-3.11644 -2.99226,-5.53297 -6.049785,-7.24958 1.01106,0.21166 1.934278,0.52316 2.768952,0.93486 -0.834674,-1.6817 -2.492727,-3.01061 -4.973815,-3.986393 2.904421,-0.08255 5.468056,1.928633 7.690556,6.032503 0.658635,0.71719 1.199444,1.56386 1.622425,2.54 2.175582,5.04472 1.964267,9.87778 -0.635,14.49917 0.09419,-0.62336 0.117475,-1.26401 0.07091,-1.92264"
       style="fill:#7d2f26;fill-opacity:1;fill-rule:evenodd;stroke:none;stroke-width:0.03527778"
       id="path1290" />
  </g>
</svg>
