<?xml version="1.0" encoding="UTF-8" standalone="no"?>
<!-- Created with Inkscape (http://www.inkscape.org/) -->

<svg
   xmlns:dc="http://purl.org/dc/elements/1.1/"
   xmlns:cc="http://creativecommons.org/ns#"
   xmlns:rdf="http://www.w3.org/1999/02/22-rdf-syntax-ns#"
   xmlns:svg="http://www.w3.org/2000/svg"
   xmlns="http://www.w3.org/2000/svg"
   xmlns:sodipodi="http://sodipodi.sourceforge.net/DTD/sodipodi-0.dtd"
   xmlns:inkscape="http://www.inkscape.org/namespaces/inkscape"
   width="60.924721mm"
   height="60.924904mm"
   viewBox="0 0 60.92472 60.924904"
   version="1.1"
   id="svg5725"
   inkscape:version="0.92.1 r15371"
   sodipodi:docname="face2.svg">
  <defs
     id="defs5719" />
  <sodipodi:namedview
     id="base"
     pagecolor="#ffffff"
     bordercolor="#666666"
     borderopacity="1.0"
     inkscape:pageopacity="0.0"
     inkscape:pageshadow="2"
     inkscape:zoom="2.8"
     inkscape:cx="-55.057808"
     inkscape:cy="153.81804"
     inkscape:document-units="mm"
     inkscape:current-layer="layer1"
     showgrid="false"
     fit-margin-top="0"
     fit-margin-left="0"
     fit-margin-right="0"
     fit-margin-bottom="0"
     inkscape:window-width="1920"
     inkscape:window-height="1001"
     inkscape:window-x="-9"
     inkscape:window-y="-9"
     inkscape:window-maximized="1" />
  <metadata
     id="metadata5722">
    <rdf:RDF>
      <cc:Work
         rdf:about="">
        <dc:format>image/svg+xml</dc:format>
        <dc:type
           rdf:resource="http://purl.org/dc/dcmitype/StillImage" />
        <dc:title></dc:title>
      </cc:Work>
    </rdf:RDF>
  </metadata>
  <g
     inkscape:label="Layer 1"
     inkscape:groupmode="layer"
     id="layer1"
     transform="translate(105.52573,-99.412858)">
    <path
       inkscape:connector-curvature="0"
       d="m -78.41511,156.79216 h -1.71062 c -0.0589,-0.52916 -0.12982,-1.05268 -0.21167,-1.56986 -0.12947,-0.76447 -0.25858,-1.53458 -0.38841,-2.31069 -0.0466,-0.28222 -0.0938,-0.56445 -0.14075,-0.84667 -0.0706,-0.42333 -0.15311,-0.84067 -0.24695,-1.25236 0.0706,-0.11747 0.14711,-0.2293 0.22895,-0.33514 1.10561,-2.30469 1.50566,-5.05671 1.1998,-8.255 l 3.10409,2.48709 -1.83444,12.08263"
       style="fill:#bca56a;fill-opacity:1;fill-rule:evenodd;stroke:none;stroke-width:0.03527778"
       id="path50" />
    <path
       inkscape:connector-curvature="0"
       d="m -89.94212,156.54522 c -1.13454,-0.6477 -2.23415,-1.37654 -3.29812,-2.18722 0.43709,-3.36868 1.19838,-7.02028 2.28388,-10.95375 0.17639,-0.61136 0.35877,-1.22873 0.5468,-1.85209 l 3.77473,8.62542 -1.88701,2.34597 -1.42028,4.02167"
       style="fill:#bca56a;fill-opacity:1;fill-rule:evenodd;stroke:none;stroke-width:0.03527778"
       id="path52" />
    <path
       inkscape:connector-curvature="0"
       d="m -87.88684,135.50203 c 3.22157,6.39692 5.20912,13.31136 5.96194,20.74333 -1.44674,-4.28025 -3.08081,-8.29028 -4.90361,-12.02972 -0.31785,-0.647 -0.635,-1.28164 -0.95285,-1.905 -0.59972,-1.15253 -1.21073,-2.27542 -1.83445,-3.36903 -0.12911,-0.22366 -0.26458,-0.44697 -0.40534,-0.67028 l 2.13431,-2.7693"
       style="fill:#bca56a;fill-opacity:1;fill-rule:evenodd;stroke:none;stroke-width:0.03527778"
       id="path54" />
    <path
       inkscape:connector-curvature="0"
       d="m -86.47573,133.91453 2.29306,-1.19945 c 0.68191,2.79859 1.68133,5.54461 2.99861,8.23736 0.5408,3.52778 0.5408,6.70878 0,9.54264 l -0.29987,-1.35819 c -0.70555,-3.15137 -1.64041,-6.362 -2.80458,-9.63084 -0.65863,-1.84644 -1.38783,-3.71016 -2.18722,-5.59152"
       style="fill:#bca56a;fill-opacity:1;fill-rule:evenodd;stroke:none;stroke-width:0.03527778"
       id="path56" />
    <path
       inkscape:connector-curvature="0"
       d="m -96.10656,143.84522 3.77472,-3.03389 c -1.40688,4.16137 -2.30646,8.18621 -2.69875,12.07382 -0.5327,-0.46814 -1.05622,-0.95885 -1.57022,-1.47285 -0.30621,-0.30621 -0.60571,-0.61489 -0.89923,-0.92604 0.14993,-1.63089 0.46779,-3.33904 0.9525,-5.1241 0.12912,-0.50588 0.27623,-1.01141 0.44098,-1.51694"
       style="fill:#bca56a;fill-opacity:1;fill-rule:evenodd;stroke:none;stroke-width:0.03527778"
       id="path58" />
    <path
       inkscape:connector-curvature="0"
       d="m -96.10656,143.84522 c 0.18803,-0.58808 0.3937,-1.18181 0.61736,-1.78153 l 10.74208,-15.57514 17.65653,-9.06638 9.27805,5.6268 c 6.09106,6.96137 9.00148,13.22317 8.73125,18.78542 -0.11712,2.30611 -0.72284,4.51379 -1.81715,6.6234 -0.79799,1.01565 -1.67429,2.0006 -2.62785,2.95451 -1.08091,1.08091 -2.20415,2.0627 -3.36938,2.9457 -0.63041,0.4826 -1.27423,0.93521 -1.9311,1.35819 -0.59373,0.38277 -1.19627,0.74154 -1.80799,1.07597 h -17.78035 l 1.83444,-12.08263 -3.10409,-2.48709 c 0.30586,3.19829 -0.0942,5.95031 -1.1998,8.255 -0.0818,0.10584 -0.15839,0.21767 -0.22895,0.33514 0.0938,0.41169 0.17639,0.82903 0.24695,1.25236 0.0469,0.28222 0.0942,0.56445 0.14075,0.84667 0.12983,0.77611 0.25894,1.54622 0.38841,2.31069 0.0819,0.51718 0.15276,1.0407 0.21167,1.56986 0,0.0938 0.006,0.18804 0.0173,0.28223 0.10196,0.9779 0.18415,1.95086 0.2473,2.91923 -0.30056,-0.0413 -0.5976,-0.0882 -0.89111,-0.14111 -0.14394,-0.50059 -0.29951,-0.99765 -0.46708,-1.49048 -0.18803,-0.56445 -0.37642,-1.12325 -0.5648,-1.6757 -0.10513,0.98531 -0.24342,1.94381 -0.41416,2.87514 -0.0272,-0.006 -0.0533,-0.0116 -0.0794,-0.0177 -1.02834,-0.23918 -2.03411,-0.53022 -3.0166,-0.87312 -0.38629,-0.13617 -0.76835,-0.28011 -1.14653,-0.43215 -0.80962,-0.32527 -1.60337,-0.68686 -2.38125,-1.0848 -0.37606,-0.19332 -0.74965,-0.39617 -1.12007,-0.60854 l 1.42029,-4.02166 1.88701,-2.34598 -3.77473,-8.62541 c -0.18803,0.62336 -0.37041,1.24072 -0.5468,1.85208 -1.0855,3.93347 -1.84679,7.58508 -2.28389,10.95375 -0.60924,-0.46567 -1.20579,-0.95673 -1.79034,-1.47285 0.39229,-3.88761 1.29187,-7.91245 2.69875,-12.07382 l -3.77472,3.03389"
       style="fill:#83744f;fill-opacity:1;fill-rule:evenodd;stroke:none;stroke-width:0.03527778"
       id="path60" />
    <path
       inkscape:connector-curvature="0"
       d="m -86.47573,133.91453 c 0.79939,1.88136 1.52859,3.74508 2.18722,5.59152 1.16417,3.26884 2.09903,6.47947 2.80458,9.63084 l 0.29987,1.35819 c 0.5408,-2.83386 0.5408,-6.01486 0,-9.54264 -1.31728,-2.69275 -2.3167,-5.43877 -2.99861,-8.23736 l -2.29306,1.19945"
       style="fill:#83744f;fill-opacity:1;fill-rule:evenodd;stroke:none;stroke-width:0.03527778"
       id="path62" />
    <path
       inkscape:connector-curvature="0"
       d="m -87.88684,135.50203 -2.13431,2.7693 c 0.14076,0.22331 0.27623,0.44662 0.40534,0.67028 0.62372,1.09361 1.23473,2.2165 1.83445,3.36903 0.31785,0.62336 0.635,1.258 0.95285,1.905 1.8228,3.73944 3.45687,7.74947 4.90361,12.02972 -0.75282,-7.43197 -2.74037,-14.34641 -5.96194,-20.74333"
       style="fill:#83744f;fill-opacity:1;fill-rule:evenodd;stroke:none;stroke-width:0.03527778"
       id="path64" />
    <path
       inkscape:connector-curvature="0"
       d="m -57.81254,123.04897 c 6.09106,6.96137 9.00148,13.22317 8.73125,18.78542 -0.11712,2.30611 -0.72284,4.51379 -1.81715,6.6234"
       style="fill:none;stroke:#a78d61;stroke-width:0.35277775;stroke-linecap:round;stroke-linejoin:round;stroke-miterlimit:3;stroke-dasharray:none;stroke-opacity:1"
       id="path66" />
    <path
       inkscape:connector-curvature="0"
       d="m -74.44636,152.48828 0.72355,-5.4857 c 1.08161,0.37642 2.18687,0.48225 3.31576,0.3175 l -0.58174,5.82083 -4.48027,6.73806 0.84631,-6.61458 0.17639,-0.77611"
       style="fill:#f9b282;fill-opacity:1;fill-rule:evenodd;stroke:none;stroke-width:0.03527778"
       id="path182" />
    <path
       inkscape:connector-curvature="0"
       d="m -73.72281,147.00258 -0.72355,5.4857 -3.91548,4.07458 1.85208,-7.58472 0.79375,-3.21028 2.39854,-1.86972 -0.40534,3.10444"
       style="fill:#fad5e8;fill-opacity:1;fill-rule:evenodd;stroke:none;stroke-width:0.03527778"
       id="path184" />
    <path
       inkscape:connector-curvature="0"
       d="m -63.40406,158.11508 -4.70994,-5.80319 0.7232,-6.10306 0.14146,-1.25236 3.75708,1.60514 0.1584,1.79917 0.83785,9.35743 c -0.30057,0.13934 -0.60361,0.27164 -0.90805,0.39687"
       style="fill:#fad5e8;fill-opacity:1;fill-rule:evenodd;stroke:none;stroke-width:0.03527778"
       id="path186" />
    <path
       inkscape:connector-curvature="0"
       d="m -86.44081,158.23855 c -0.80962,-0.32526 -1.60337,-0.68685 -2.38125,-1.08479 l 1.05834,-2.84868 1.39347,1.92264 -0.0706,2.01083"
       style="fill:#fad5e8;fill-opacity:1;fill-rule:evenodd;stroke:none;stroke-width:0.03527778"
       id="path188" />
    <path
       inkscape:connector-curvature="0"
       d="m -61.0849,157.03029 0.41486,-4.66549 1.48132,1.6757 0.36195,1.67569 c -0.7366,0.47519 -1.48943,0.91334 -2.25813,1.3141"
       style="fill:#fad5e8;fill-opacity:1;fill-rule:evenodd;stroke:none;stroke-width:0.03527778"
       id="path190" />
    <path
       inkscape:connector-curvature="0"
       d="m -71.23573,160.12591 3.35139,-3.33375 2.38971,2.09903 c -1.83867,0.59337 -3.75214,1.00471 -5.7411,1.23472"
       style="fill:#fad5e8;fill-opacity:1;fill-rule:evenodd;stroke:none;stroke-width:0.03527778"
       id="path192" />
    <path
       inkscape:connector-curvature="0"
       d="m -79.56164,158.62661 2.57563,-1.83445 -0.55562,3.45723 c -0.73413,-0.0529 -1.45733,-0.12912 -2.16994,-0.22931 0.0483,-0.46637 0.0984,-0.93063 0.14993,-1.39347"
       style="fill:#fad5e8;fill-opacity:1;fill-rule:evenodd;stroke:none;stroke-width:0.03527778"
       id="path194" />
    <path
       inkscape:connector-curvature="0"
       d="m -67.24934,144.95647 -0.14146,1.25236 c -1.02271,0.58773 -2.02848,0.9585 -3.01625,1.11125 -1.12889,0.16475 -2.23415,0.0589 -3.31576,-0.3175 l 0.40534,-3.10444 1.05833,-8.20209 h 4.40972 l 0.60008,9.26042"
       style="fill:#ba613e;fill-opacity:1;fill-rule:evenodd;stroke:none;stroke-width:0.03527778"
       id="path196" />
    <path
       inkscape:connector-curvature="0"
       d="m -68.114,152.31189 -6.03215,8.01687 c -0.3048,0.006 -0.61101,0.009 -0.91757,0.009 -0.43039,0 -0.85655,-0.009 -1.27882,-0.0264 l 1.71979,-7.04674 -0.84631,6.61458 4.48027,-6.73805 0.58174,-5.82084 c 0.98777,-0.15275 1.99354,-0.52352 3.01625,-1.11125 l -0.7232,6.10306"
       style="fill:#cd7f4f;fill-opacity:1;fill-rule:evenodd;stroke:none;stroke-width:0.03527778"
       id="path198" />
    <path
       inkscape:connector-curvature="0"
       d="m -81.37809,150.68911 c -0.36724,2.93017 -0.6671,5.88186 -0.89959,8.85472 -1.02834,-0.23918 -2.03411,-0.53022 -3.0166,-0.87312 0.30304,-2.35444 0.6731,-4.68595 1.11161,-6.99382 l 2.80458,-0.98778"
       style="fill:#95549c;fill-opacity:1;fill-rule:evenodd;stroke:none;stroke-width:0.03527778"
       id="path200" />
    <path
       inkscape:connector-curvature="0"
       d="m -84.18267,151.67689 c -0.43851,2.30787 -0.80857,4.63938 -1.11161,6.99382 -0.38629,-0.13618 -0.76835,-0.28011 -1.14653,-0.43216 l 0.0706,-2.01083 -1.39347,-1.92264 0.58243,-1.5875 2.99862,-1.04069"
       style="fill:#f28fbe;fill-opacity:1;fill-rule:evenodd;stroke:none;stroke-width:0.03527778"
       id="path202" />
    <path
       inkscape:connector-curvature="0"
       d="m -77.54163,160.24939 0.55562,-3.45723 -2.57563,1.83445 c 0.34114,-3.05753 0.78811,-6.07942 1.34091,-9.06639 l 1.71097,-0.58208 -1.85208,7.58472 3.91548,-4.07458 -0.17639,0.77611 -1.71979,7.04673 c -0.40323,-0.0127 -0.80328,-0.0332 -1.19909,-0.0617"
       style="fill:#f28fbe;fill-opacity:1;fill-rule:evenodd;stroke:none;stroke-width:0.03527778"
       id="path204" />
    <path
       inkscape:connector-curvature="0"
       d="m -65.49463,158.89119 -2.38971,-2.09903 -3.35139,3.33375 c -0.95426,0.10795 -1.9244,0.17569 -2.91042,0.20285 l 6.03215,-8.01687 4.70994,5.80319 c -0.68474,0.28716 -1.38148,0.54575 -2.09057,0.77611"
       style="fill:#f28fbe;fill-opacity:1;fill-rule:evenodd;stroke:none;stroke-width:0.03527778"
       id="path206" />
    <path
       inkscape:connector-curvature="0"
       d="m -62.49601,157.71821 -0.83785,-9.35743 5.37986,2.08138 1.05833,3.91584 c -0.63041,0.4826 -1.27423,0.93521 -1.9311,1.35819 l -0.36195,-1.67569 -1.48132,-1.6757 -0.41486,4.66549 c -0.46461,0.24447 -0.93522,0.47413 -1.41111,0.68792"
       style="fill:#f28fbe;fill-opacity:1;fill-rule:evenodd;stroke:none;stroke-width:0.03527778"
       id="path208" />
    <path
       inkscape:connector-curvature="0"
       d="m -82.27768,159.54383 c 0.23249,-2.97286 0.53235,-5.92455 0.89959,-8.85472 l 3.15736,-1.12889 c -0.5528,2.98697 -0.99977,6.00886 -1.34091,9.06639 -0.0515,0.46284 -0.1016,0.9271 -0.14993,1.39347 -0.8703,-0.12382 -1.72579,-0.28257 -2.56611,-0.47625"
       style="fill:#693e6f;fill-opacity:1;fill-rule:evenodd;stroke:none;stroke-width:0.03527778"
       id="path210" />
    <path
       inkscape:connector-curvature="0"
       d="m -60.00011,130.35147 1.07597,-7.16139 c 0.0356,-0.0236 0.0706,-0.0413 0.10619,-0.0529 0.0353,-0.0236 0.0702,-0.0413 0.10583,-0.0529 2.57528,-1.3522 3.70981,-0.80575 3.40395,1.64042 -0.14076,0.89358 -0.44097,1.72261 -0.89958,2.48708 -0.0116,0 -0.0173,0.0116 -0.0173,0.0353 -1.5053,2.44581 -2.70475,3.51013 -3.59868,3.19263 -0.0349,-0.012 -0.0642,-0.0236 -0.0882,-0.0353 -0.0349,-0.012 -0.0642,-0.0293 -0.0882,-0.0529"
       style="fill:#f9b282;fill-opacity:1;fill-rule:evenodd;stroke:none;stroke-width:0.03527778"
       id="path428" />
    <path
       inkscape:connector-curvature="0"
       d="m -83.63622,127.74091 c 3.19899,-3.01025 5.45641,-6.37927 6.77368,-10.10708 7.49054,-5.60917 12.1472,-5.12128 13.96965,1.46403 1.11725,5.62081 1.11725,11.00667 0,16.15722 -2.4578,6.63222 -6.95572,9.24278 -13.49375,7.83167 -3.85657,-2.68111 -6.07377,-5.93831 -6.64951,-9.77195 l -0.35277,-3.175 -0.2473,-2.39889"
       style="fill:#f9b282;fill-opacity:1;fill-rule:evenodd;stroke:none;stroke-width:0.03527778"
       id="path430" />
    <path
       inkscape:connector-curvature="0"
       d="m -84.76511,123.19008 1.12889,7.16139 c -0.0233,0.0116 -0.0526,0.0236 -0.0882,0.0353 -0.0233,0.0116 -0.0526,0.0293 -0.0882,0.0529 -0.90523,0.34079 -2.11667,-0.72319 -3.63326,-3.19263 0,-0.0236 -0.006,-0.0353 -0.0176,-0.0353 -0.45861,-0.76447 -0.76447,-1.5935 -0.91757,-2.48708 -0.31715,-2.45781 0.81773,-3.00461 3.40465,-1.64042 0.0349,0.0116 0.0706,0.0293 0.10548,0.0529 0.0356,0.0116 0.0709,0.0293 0.10584,0.0529"
       style="fill:#f9b282;fill-opacity:1;fill-rule:evenodd;stroke:none;stroke-width:0.03527778"
       id="path432" />
    <path
       inkscape:connector-curvature="0"
       d="m -59.59406,123.57814 -0.68792,6.56166 -0.33549,3.175 c -0.61137,4.23334 -3.22757,7.76111 -7.84931,10.58334 -1.98684,1.19944 -4.20934,1.19944 -6.66715,0 -0.43497,-0.27058 -0.85266,-0.54116 -1.25271,-0.81139 6.53803,1.41111 11.03595,-1.19945 13.49375,-7.83167 1.11725,-5.15055 1.11725,-10.53641 0,-16.15722 -1.82245,-6.58531 -6.47911,-7.0732 -13.96965,-1.46403 -1.31727,3.72781 -3.57469,7.09683 -6.77368,10.10708 l -0.45826,-4.16277 -0.12347,-1.09361 c -1.81116,-11.94753 1.39947,-18.13278 9.63083,-18.55612 h 5.3975 c 8.23136,0.42334 11.47092,6.60859 9.71868,18.55612 l -0.12312,1.09361"
       style="fill:#cd7f4f;fill-opacity:1;fill-rule:evenodd;stroke:none;stroke-width:0.03527778"
       id="path434" />
    <path
       inkscape:connector-curvature="0"
       d="m -58.92414,123.19008 -1.07597,7.16139 c -0.0938,-0.0473 -0.18803,-0.11747 -0.28187,-0.21167 l 0.68792,-6.56166 c 0.2353,-0.14111 0.45861,-0.27058 0.66992,-0.38806"
       style="fill:#ba613e;fill-opacity:1;fill-rule:evenodd;stroke:none;stroke-width:0.03527778"
       id="path436" />
    <path
       inkscape:connector-curvature="0"
       d="m -83.63622,130.35147 -1.12889,-7.16139 c 0.21202,0.11748 0.43533,0.24695 0.67063,0.38806 l 0.45826,4.16277 0.2473,2.39889 c -0.0825,0.0822 -0.16475,0.15276 -0.2473,0.21167"
       style="fill:#ba613e;fill-opacity:1;fill-rule:evenodd;stroke:none;stroke-width:0.03527778"
       id="path438" />
    <path
       inkscape:connector-curvature="0"
       d="m -74.32254,134.2673 c 1.70498,0.45861 3.38632,0.21731 5.04473,-0.72319 -0.56445,1.05833 -1.48202,1.66405 -2.75167,1.8168 -0.88195,0.0938 -1.64641,-0.27057 -2.29306,-1.09361"
       style="fill:#e99c69;fill-opacity:1;fill-rule:evenodd;stroke:none;stroke-width:0.03527778"
       id="path1056" />
    <path
       inkscape:connector-curvature="0"
       d="m -69.27781,133.54411 c -1.65841,0.9405 -3.33975,1.1818 -5.04473,0.72319 1.70498,-0.10583 3.38632,-0.34713 5.04473,-0.72319"
       style="fill:#ba613e;fill-opacity:1;fill-rule:evenodd;stroke:none;stroke-width:0.03527778"
       id="path1058" />
    <path
       inkscape:connector-curvature="0"
       d="m -69.27781,122.17796 c 2.04611,-1.00153 4.12397,-1.63301 6.23393,-1.89406 1.30528,0.62336 2.26448,1.16981 2.87726,1.63865 -3.048,-0.96978 -5.77321,-0.70061 -8.17598,0.80716 -0.40499,-0.0321 -0.71684,-0.2159 -0.93521,-0.55175 z m 7.38469,3.96417 c -0.13828,0.20249 -0.32491,0.381 -0.55915,0.53551 0.0212,-0.47413 -0.0349,-0.8576 -0.16792,-1.15076 -1.74766,-1.19874 -3.60469,-1.01494 -5.57071,0.55139 1.80833,-2.0574 3.56129,-2.62219 5.25885,-1.69439 0.0519,0.0282 0.10372,0.0575 0.15593,0.0882 0.77717,0.41134 1.42028,0.21942 1.93005,-0.57574 -0.0931,0.83679 -0.44238,1.58539 -1.04705,2.24579"
       style="fill:#100f0d;fill-opacity:1;fill-rule:evenodd;stroke:none;stroke-width:0.03527778"
       id="path1060" />
    <path
       inkscape:connector-curvature="0"
       d="m -62.45227,126.67764 c 0.23424,-0.15451 0.42086,-0.33302 0.55915,-0.53551 -0.42086,1.24671 -1.42522,2.0193 -3.01307,2.31775 -1.11337,0.13864 -2.16041,-0.18098 -3.14078,-0.95885 2.44545,1.2894 4.31024,1.01494 5.5947,-0.82339"
       style="fill:#cd7f4f;fill-opacity:1;fill-rule:evenodd;stroke:none;stroke-width:0.03527778"
       id="path1062" />
    <path
       inkscape:connector-curvature="0"
       d="m -68.1909,126.07827 c 1.96602,-1.56633 3.82305,-1.75013 5.57071,-0.55139 0.133,0.29316 0.18909,0.67663 0.16792,1.15076 -1.28446,1.83833 -3.14925,2.11279 -5.5947,0.82339 l -0.14393,-1.42276"
       style="fill:#faf6f2;fill-opacity:1;fill-rule:evenodd;stroke:none;stroke-width:0.03527778"
       id="path1064" />
    <path
       inkscape:connector-curvature="0"
       d="m -65.066,124.97549 c 0.41557,0 0.77258,0.1517 1.07103,0.45544 0.28787,0.30903 0.43145,0.67662 0.43145,1.10278 0,0.42086 -0.14358,0.78599 -0.43145,1.09502 -0.29845,0.29845 -0.65546,0.44768 -1.07103,0.44768 -0.42615,0 -0.78599,-0.14923 -1.07879,-0.44768 -0.28258,-0.30903 -0.42369,-0.67416 -0.42369,-1.09502 0,-0.42616 0.14111,-0.79375 0.42369,-1.10278 0.2928,-0.30374 0.65264,-0.45544 1.07879,-0.45544"
       style="fill:#b05e48;fill-opacity:1;fill-rule:evenodd;stroke:none;stroke-width:0.03527778"
       id="path1066" />
    <path
       inkscape:connector-curvature="0"
       d="m -63.82704,126.28606 c 0,0.29316 -0.10125,0.54892 -0.30375,0.76729 -0.21307,0.20779 -0.46637,0.31186 -0.75917,0.31186 -0.29845,0 -0.55175,-0.10407 -0.75918,-0.31186 -0.20285,-0.21837 -0.3041,-0.47413 -0.3041,-0.76729 0,-0.29845 0.10125,-0.55421 0.3041,-0.76729 0.20743,-0.21308 0.46073,-0.31962 0.75918,-0.31962 0.2928,0 0.5461,0.10654 0.75917,0.31962 0.2025,0.21308 0.30375,0.46884 0.30375,0.76729"
       style="fill:#100f0d;fill-opacity:1;fill-rule:evenodd;stroke:none;stroke-width:0.03527778"
       id="path1068" />
    <path
       inkscape:connector-curvature="0"
       d="m -64.07575,126.04829 c 0,0.16404 -0.0564,0.30445 -0.16969,0.42157 -0.11324,0.11712 -0.25188,0.17568 -0.41592,0.17568 -0.16017,0 -0.29881,-0.0586 -0.41593,-0.17568 -0.11324,-0.11712 -0.17004,-0.25753 -0.17004,-0.42157 0,-0.16016 0.0568,-0.2988 0.17004,-0.41593 0.11712,-0.11712 0.25576,-0.17568 0.41593,-0.17568 0.16404,0 0.30268,0.0586 0.41592,0.17568 0.11324,0.11713 0.16969,0.25577 0.16969,0.41593"
       style="fill:#ffffff;fill-opacity:1;fill-rule:evenodd;stroke:none;stroke-width:0.03527778"
       id="path1070" />
    <path
       inkscape:connector-curvature="0"
       d="m -73.65296,122.17796 c -2.04612,-1.00153 -4.12398,-1.63301 -6.23394,-1.89406 -1.30528,0.62336 -2.26448,1.16981 -2.87726,1.63865 3.04765,-0.96978 5.77286,-0.70061 8.17598,0.80716 0.40499,-0.0321 0.71649,-0.2159 0.93522,-0.55175 z m -7.38505,3.96417 c 0.13864,0.20249 0.32526,0.381 0.5595,0.53551 -0.0212,-0.47413 0.0346,-0.8576 0.16792,-1.15076 1.74766,-1.19874 3.60434,-1.01494 5.57072,0.55139 -1.80834,-2.0574 -3.56129,-2.62219 -5.25886,-1.69439 -0.0519,0.0282 -0.10372,0.0575 -0.15593,0.0882 -0.77717,0.41134 -1.42063,0.21942 -1.93005,-0.57574 0.0931,0.83679 0.44203,1.58539 1.0467,2.24579"
       style="fill:#100f0d;fill-opacity:1;fill-rule:evenodd;stroke:none;stroke-width:0.03527778"
       id="path1072" />
    <path
       inkscape:connector-curvature="0"
       d="m -80.47851,126.67764 c -0.23424,-0.15451 -0.42086,-0.33302 -0.5595,-0.53551 0.42121,1.24671 1.42557,2.0193 3.01307,2.31775 1.11372,0.13864 2.16076,-0.18098 3.14114,-0.95885 -2.44581,1.2894 -4.3106,1.01494 -5.59471,-0.82339"
       style="fill:#cd7f4f;fill-opacity:1;fill-rule:evenodd;stroke:none;stroke-width:0.03527778"
       id="path1074" />
    <path
       inkscape:connector-curvature="0"
       d="m -74.73987,126.07827 c -1.96638,-1.56633 -3.82306,-1.75013 -5.57072,-0.55139 -0.13335,0.29316 -0.18909,0.67663 -0.16792,1.15076 1.28411,1.83833 3.1489,2.11279 5.59471,0.82339 l 0.14393,-1.42276"
       style="fill:#faf6f2;fill-opacity:1;fill-rule:evenodd;stroke:none;stroke-width:0.03527778"
       id="path1076" />
    <path
       inkscape:connector-curvature="0"
       d="m -77.86513,124.97549 c -0.41557,0 -0.77223,0.1517 -1.07068,0.45544 -0.28787,0.30903 -0.4318,0.67662 -0.4318,1.10278 0,0.42086 0.14393,0.78599 0.4318,1.09502 0.29845,0.29845 0.65511,0.44768 1.07068,0.44768 0.42651,0 0.78634,-0.14923 1.07915,-0.44768 0.28222,-0.30903 0.42368,-0.67416 0.42368,-1.09502 0,-0.42616 -0.14146,-0.79375 -0.42368,-1.10278 -0.29281,-0.30374 -0.65264,-0.45544 -1.07915,-0.45544"
       style="fill:#b05e48;fill-opacity:1;fill-rule:evenodd;stroke:none;stroke-width:0.03527778"
       id="path1078" />
    <path
       inkscape:connector-curvature="0"
       d="m -79.10373,126.28606 c 0,0.29316 0.10124,0.54892 0.30374,0.76729 0.21308,0.20779 0.46637,0.31186 0.75918,0.31186 0.29845,0 0.55139,-0.10407 0.75917,-0.31186 0.20285,-0.21837 0.30375,-0.47413 0.30375,-0.76729 0,-0.29845 -0.1009,-0.55421 -0.30375,-0.76729 -0.20778,-0.21308 -0.46072,-0.31962 -0.75917,-0.31962 -0.29281,0 -0.5461,0.10654 -0.75918,0.31962 -0.2025,0.21308 -0.30374,0.46884 -0.30374,0.76729"
       style="fill:#100f0d;fill-opacity:1;fill-rule:evenodd;stroke:none;stroke-width:0.03527778"
       id="path1080" />
    <path
       inkscape:connector-curvature="0"
       d="m -78.85503,126.04829 c 0,0.16404 0.0565,0.30445 0.16969,0.42157 0.11324,0.11712 0.25189,0.17568 0.41593,0.17568 0.16016,0 0.2988,-0.0586 0.41592,-0.17568 0.11324,-0.11712 0.16969,-0.25753 0.16969,-0.42157 0,-0.16016 -0.0565,-0.2988 -0.16969,-0.41593 -0.11712,-0.11712 -0.25576,-0.17568 -0.41592,-0.17568 -0.16404,0 -0.30269,0.0586 -0.41593,0.17568 -0.11324,0.11713 -0.16969,0.25577 -0.16969,0.41593"
       style="fill:#ffffff;fill-opacity:1;fill-rule:evenodd;stroke:none;stroke-width:0.03527778"
       id="path1082" />
    <path
       inkscape:connector-curvature="0"
       d="m -59.47059,128.78055 c 0.91087,-0.79904 1.03893,-1.59561 0.38347,-2.38936 -0.0691,-0.0854 -0.14641,-0.16793 -0.23178,-0.248 0.98037,-1.86479 1.96356,-2.56011 2.94922,-2.08598 0.47414,0.34114 0.33303,1.32151 -0.42368,2.94111 0.45297,-1.65171 0.42086,-2.49343 -0.096,-2.52518 -0.53798,-0.12806 -1.17192,0.36724 -1.90182,1.48625 0.71931,-0.18098 1.11054,0.0878 1.17475,0.80715 -0.35701,-0.38347 -0.72214,-0.54857 -1.09502,-0.4953 0.75141,1.0601 0.49812,1.89654 -0.75918,2.50931"
       style="fill:#cd7f4f;fill-opacity:1;fill-rule:evenodd;stroke:none;stroke-width:0.03527778"
       id="path1084" />
    <path
       inkscape:connector-curvature="0"
       d="m -84.16539,128.95694 c -0.91122,-0.79904 -1.03893,-1.59561 -0.38382,-2.38936 0.0695,-0.0854 0.14675,-0.16793 0.23213,-0.24801 -0.98073,-1.86478 -1.96356,-2.5601 -2.94923,-2.08597 -0.47413,0.34114 -0.33302,1.3215 0.42334,2.94111 -0.45262,-1.65171 -0.42087,-2.49344 0.0959,-2.52519 0.53834,-0.12805 1.17228,0.36725 1.90218,1.48626 -0.71931,-0.18098 -1.1109,0.0878 -1.17475,0.80715 0.35701,-0.38347 0.72178,-0.54857 1.09502,-0.4953 -0.75141,1.0601 -0.49847,1.89653 0.75918,2.50931"
       style="fill:#cd7f4f;fill-opacity:1;fill-rule:evenodd;stroke:none;stroke-width:0.03527778"
       id="path1086" />
    <path
       inkscape:connector-curvature="0"
       d="m -67.51322,139.7209 c -0.19121,0.27128 -0.39582,0.51258 -0.61277,0.7246 -0.18592,0.18168 -0.37324,0.33867 -0.56233,0.47061 -0.44097,0.31468 -0.93698,0.53622 -1.48802,0.66393 -0.27023,0.0635 -0.54716,0.10265 -0.8315,0.11712 -0.43497,0.0564 -0.85195,0.0483 -1.2513,-0.0251 -0.34431,-0.0741 -0.68015,-0.18803 -1.00789,-0.34149 -0.21448,-0.10617 -0.4198,-0.23212 -0.61559,-0.37817 -0.29704,-0.19367 -0.58032,-0.42756 -0.84914,-0.70132 -0.61842,-0.59619 -1.19838,-1.3716 -1.74025,-2.32657 1.09537,-0.0169 2.14171,-0.11289 3.13937,-0.28751 0.0321,-0.0102 0.0593,-0.0155 0.0811,-0.0159 0.65934,-0.14957 1.30704,-0.22401 1.9431,-0.22436 0.60431,0.0204 1.18392,0.091 1.73955,0.21131 1.08937,0.2413 2.06798,0.2854 2.93546,0.13264 -0.21555,0.76835 -0.50871,1.42805 -0.87983,1.98015"
       style="fill:#9b4c31;fill-opacity:1;fill-rule:evenodd;stroke:none;stroke-width:0.03527778"
       id="path1088" />
    <path
       inkscape:connector-curvature="0"
       d="m -68.86471,139.88317 c -0.12347,-0.0476 -0.25224,-0.0903 -0.38629,-0.12806 -0.502,-0.14111 -1.00013,-0.21766 -1.49437,-0.22965 -0.66992,-0.0194 -1.35467,0.066 -2.05599,0.25576 -0.25823,0.0734 -0.52705,0.16193 -0.80539,0.26564 -0.73872,-0.41557 -1.4672,-1.02482 -2.18581,-1.82809 0.49318,0.002 0.94721,-0.0148 1.36137,-0.0508 0.45332,0.24094 0.90346,0.41769 1.34831,0.52987 0.71368,0.18768 1.42276,0.22119 2.12796,0.1009 0.62971,-0.0991 1.26824,-0.3175 1.91594,-0.65547 0.57397,0.0603 1.14441,0.0663 1.71132,0.0177 -0.35595,0.62159 -0.77893,1.13453 -1.26894,1.53952 -0.0942,0.0709 -0.18344,0.13194 -0.26811,0.18274"
       style="fill:#100f0d;fill-opacity:1;fill-rule:evenodd;stroke:none;stroke-width:0.03527778"
       id="path1090" />
    <path
       inkscape:connector-curvature="0"
       d="m -74.43119,138.16797 c 0.41451,-0.0363 0.80574,-0.0871 1.17475,-0.1524 0.0642,-0.0208 0.12911,-0.0416 0.19332,-0.0628 0.61701,-0.12876 1.23296,-0.17815 1.84891,-0.14781 0.29704,0.0152 0.59972,0.03 0.9077,0.0451 0.41381,0.14253 0.83714,0.24025 1.26753,0.29316 -0.6477,0.33797 -1.28623,0.55633 -1.91594,0.65547 -0.7052,0.12029 -1.41428,0.0868 -2.12796,-0.1009 -0.44485,-0.11218 -0.89499,-0.28893 -1.34831,-0.52987"
       style="fill:#f9efe5;fill-opacity:1;fill-rule:evenodd;stroke:none;stroke-width:0.03527778"
       id="path1092" />
    <path
       inkscape:connector-curvature="0"
       d="m -68.86471,139.88317 c -0.48401,0.32562 -1.0287,0.55739 -1.63407,0.69603 -0.27058,0.054 -0.5588,0.0931 -0.8643,0.11783 -0.41734,-0.0134 -0.82691,-0.0815 -1.22943,-0.20426 -0.30198,-0.0945 -0.58879,-0.21413 -0.86078,-0.35877 -0.0459,-0.0293 -0.097,-0.0582 -0.15346,-0.0871 0.27834,-0.10371 0.54716,-0.19226 0.80539,-0.26564 0.70132,-0.18979 1.38607,-0.27517 2.05599,-0.25576 0.49424,0.012 0.99237,0.0885 1.49437,0.22965 0.13405,0.0378 0.26282,0.0804 0.38629,0.12806"
       style="fill:#d14938;fill-opacity:1;fill-rule:evenodd;stroke:none;stroke-width:0.03527778"
       id="path1094" />
    <path
       inkscape:connector-curvature="0"
       d="m -97.95865,142.39883 c 2.05776,-3.26919 3.48051,-6.53838 4.26826,-9.80722 0.0825,-0.29386 0.15311,-0.59972 0.21202,-0.91722 0,-0.0473 0.0116,-0.10019 0.0353,-0.15875 3.03353,-1.57586 6.17361,-3.90419 9.41917,-6.985 -1.78788,3.65689 -4.08094,7.28486 -6.87917,10.88319 -2.25813,2.82222 -4.6101,5.15056 -7.05556,6.985"
       style="fill:#e2c998;fill-opacity:1;fill-rule:evenodd;stroke:none;stroke-width:0.03527778"
       id="path1226" />
    <path
       inkscape:connector-curvature="0"
       d="m -57.81254,123.04897 -2.32833,-3.21028 c -0.12947,-1.31727 -0.40005,-2.62219 -0.81174,-3.91583 -0.0116,-0.0473 -0.0233,-0.0942 -0.0349,-0.14111 3.05753,2.91606 5.86211,6.77333 8.4134,11.57111 2.37561,4.49192 3.54577,9.16023 3.51014,14.00528 -0.37606,3.58634 -1.69298,6.93772 -3.95111,10.05416 l -3.45722,3.86292 c -0.0822,0.0353 -0.15875,0.0646 -0.22896,0.0882 4.45665,-7.42032 6.66151,-12.82347 6.61459,-16.21013 -0.0356,-3.39831 -2.61056,-8.76653 -7.72584,-16.10431"
       style="fill:#e2c998;fill-opacity:1;fill-rule:evenodd;stroke:none;stroke-width:0.03527778"
       id="path1228" />
    <path
       inkscape:connector-curvature="0"
       d="m -66.20865,110.08438 c 0.37606,-2.35196 -0.25294,-4.43935 -1.88771,-6.2618 l 1.97591,0.59972 c 3.12772,2.74003 6.16197,7.13775 9.10166,13.19389 -1.98719,-2.1403 -3.7218,-3.77472 -5.20347,-4.90361 -1.25836,-0.9525 -2.58692,-1.82845 -3.98639,-2.6282"
       style="fill:#e2c998;fill-opacity:1;fill-rule:evenodd;stroke:none;stroke-width:0.03527778"
       id="path1230" />
    <path
       inkscape:connector-curvature="0"
       d="m -93.61948,128.09369 c 0.49389,-4.06858 1.93428,-8.18444 4.32153,-12.34722 3.86856,-7.47889 9.78358,-11.78878 17.74437,-12.92931 h 0.0176 l 0.65299,0.3175 c -3.11608,0.36442 -5.44477,1.12289 -6.985,2.27542 -2.95169,1.92864 -5.1682,4.62139 -6.65022,8.07861 -2.33962,5.67973 -5.37386,10.54806 -9.10131,14.605"
       style="fill:#e2c998;fill-opacity:1;fill-rule:evenodd;stroke:none;stroke-width:0.03527778"
       id="path1232" />
    <path
       inkscape:connector-curvature="0"
       d="m -93.83115,130.51022 c 0.0586,-0.0469 0.10584,-0.0942 0.14076,-0.14111 3.97475,-3.97475 7.33778,-9.01347 10.0898,-15.11653 0.0353,-0.0705 0.0765,-0.14111 0.12347,-0.21166 2.82222,-7.59637 7.44961,-11.36545 13.88145,-11.30653 l 0.40605,0.19402 c 0.97578,1.28164 1.64642,2.55764 2.01083,3.82764 -1.88136,-1.08197 -3.87491,-1.31127 -5.97958,-0.68791 -3.5747,1.16416 -6.18561,4.13914 -7.83202,8.92528 -1.09326,3.78636 -4.86233,8.41974 -11.30617,13.89944 l -4.16278,3.01625 c 0.52917,-0.43497 1.04669,-0.88794 1.55187,-1.3582 0.024,-0.0236 0.0473,-0.0469 0.0705,-0.0705 0.35278,-0.3175 0.68827,-0.641 1.00577,-0.97014"
       style="fill:#e2c998;fill-opacity:1;fill-rule:evenodd;stroke:none;stroke-width:0.03527778"
       id="path1234" />
    <path
       inkscape:connector-curvature="0"
       d="m -56.47233,155.27522 3.45722,-3.86292 c 2.25813,-3.11644 3.57505,-6.46782 3.95111,-10.05416 0.0356,-4.84505 -1.13453,-9.51336 -3.51014,-14.00528 -2.55129,-4.79778 -5.35587,-8.65505 -8.4134,-11.57111 -0.34113,-1.02306 -0.75247,-2.04611 -1.23472,-3.06917 1.48167,1.12889 3.21628,2.76331 5.20347,4.90361 -2.93969,-6.05614 -5.97394,-10.45386 -9.10166,-13.19389 l -1.97591,-0.59972 c 1.63477,1.82245 2.26377,3.90984 1.88771,6.2618 -3.24555,-3.66888 -6.8968,-2.49308 -10.95375,3.52779 -0.21202,0.52916 -0.41769,1.05233 -0.61736,1.56986 -0.0822,0.18803 -0.16474,0.38206 -0.24694,0.58208 -0.45861,1.06998 -0.92322,2.12266 -1.39348,3.15736 -0.12982,0.29387 -0.25893,0.59373 -0.38805,0.89958 -0.12947,0.23531 -0.24695,0.48225 -0.35278,0.74084 -1.34091,2.76331 -2.74567,5.36222 -4.21569,7.79639 -1.10561,1.75224 -2.01084,3.12772 -2.71639,4.1275 -1.5053,2.04611 -2.65183,3.53942 -3.43958,4.48027 -0.0589,0.0469 -0.10584,0.0998 -0.14147,0.15875 -0.0116,0.0236 -0.0349,0.0469 -0.0702,0.0706 -0.9525,1.12889 -1.93428,2.18722 -2.94605,3.175 -0.58808,0.57609 -1.18745,1.14053 -1.79881,1.69333 -1.5875,1.42276 -3.23991,2.7044 -4.95653,3.84528 0.64664,-0.83502 1.25236,-1.67005 1.81645,-2.50472 0.22366,-0.34114 0.44697,-0.67628 0.67063,-1.00542 2.44546,-1.83444 4.79743,-4.16278 7.05556,-6.985 2.79823,-3.59833 5.09129,-7.2263 6.87917,-10.88319 -3.24556,3.08081 -6.38564,5.40914 -9.41917,6.985 -0.0825,0.0469 -0.16475,0.0882 -0.2473,0.12347 -0.88194,0.47025 -1.80481,0.89359 -2.76895,1.27 l 4.16278,-3.01625 c 6.44384,-5.4797 10.21291,-10.11308 11.30617,-13.89944 1.64641,-4.78614 4.25732,-7.76112 7.83202,-8.92528 2.10467,-0.62336 4.09822,-0.39406 5.97958,0.68791 -0.36441,-1.27 -1.03505,-2.546 -2.01083,-3.82764 l -0.40605,-0.19402 c -6.43184,-0.0589 -11.05923,3.71016 -13.88145,11.30653 -0.0469,0.0705 -0.0882,0.14111 -0.12347,0.21166 -2.75202,6.10306 -6.11505,11.14178 -10.0898,15.11653 -0.0349,0.0469 -0.0822,0.0942 -0.14076,0.14111 0.0233,-0.635 0.0702,-1.27 0.14076,-1.905 0.024,-0.10583 0.0416,-0.21766 0.0533,-0.33514 0.0116,-0.0589 0.0176,-0.11747 0.0176,-0.17639 3.72745,-4.05694 6.76169,-8.92527 9.10131,-14.605 1.48202,-3.45722 3.69853,-6.14997 6.65022,-8.07861 1.54022,-1.15253 3.86891,-1.911 6.985,-2.27542 l -0.65299,-0.3175 h -0.0177 c -7.96078,1.14053 -13.87581,5.45042 -17.74437,12.92931 0.37606,-1.52858 0.88194,-2.93405 1.51659,-4.2157 2.37561,-4.79777 6.6795,-7.8493 12.91203,-9.15458 0.32914,-0.0469 0.64664,-0.0826 0.95215,-0.10583 0.31785,-0.0236 0.629,-0.0353 0.93521,-0.0353 1.08162,-0.0116 2.02847,0.12347 2.83951,0.40569 0.16474,0.0705 0.31185,0.14111 0.44097,0.21167 1.01177,-0.22331 1.92864,-0.22331 2.75167,0 1.25871,0.3175 2.36361,1.12889 3.31646,2.43417 4.19806,5.32694 7.51382,10.70081 9.94833,16.12194 0.76447,1.74026 1.4404,3.48086 2.02847,5.22111 0.11748,0.27023 0.21732,0.53482 0.29951,0.79375 0.024,0.0706 0.0589,0.14112 0.10584,0.21167 3.33974,7.24359 4.08658,13.85253 2.24049,19.82611 -1.97591,4.03331 -4.46299,6.63822 -7.4616,7.81403"
       style="fill:#bca56a;fill-opacity:1;fill-rule:evenodd;stroke:none;stroke-width:0.03527778"
       id="path1236" />
    <path
       inkscape:connector-curvature="0"
       d="m -60.14087,119.83869 2.32833,3.21028 -1.35819,2.59292 c -0.54081,-1.55222 -0.81739,-2.90442 -0.82938,-4.05695 -0.0233,-0.58808 -0.0706,-1.17016 -0.14076,-1.74625"
       style="fill:#bca56a;fill-opacity:1;fill-rule:evenodd;stroke:none;stroke-width:0.03527778"
       id="path1238" />
    <path
       inkscape:connector-curvature="0"
       d="m -77.77976,115.18203 c 0.19967,-0.51753 0.40534,-1.0407 0.61736,-1.56986 4.05695,-6.02087 7.7082,-7.19667 10.95375,-3.52779 -4.25732,-0.3175 -8.11389,1.38148 -11.57111,5.09765"
       style="fill:#83744f;fill-opacity:1;fill-rule:evenodd;stroke:none;stroke-width:0.03527778"
       id="path1240" />
    <path
       inkscape:connector-curvature="0"
       d="m -64.8508,121.6555 c -0.0822,-0.0116 -0.19968,-0.0176 -0.35278,-0.0176 -1.7519,0 -3.0159,0.51717 -3.79236,1.55222 -0.42334,0.61137 -0.65229,1.28164 -0.68792,2.01084 -0.0349,0.81138 0.12947,1.62277 0.49424,2.43416 0.42333,0.90523 0.99342,1.57551 1.71062,2.01083 0.40005,0.24695 0.84102,0.44098 1.32292,0.58209 0.45896,0.11747 0.93521,0.17639 1.4291,0.17639 0.52917,0 1.0347,-0.0706 1.51694,-0.21167 0.4819,-0.16475 0.91687,-0.3997 1.30528,-0.70556 0.37606,-0.28222 0.69392,-0.65863 0.95215,-1.12888 0.25894,-0.47061 0.44097,-0.99978 0.54716,-1.5875 0.0942,-0.52917 0.12911,-1.05834 0.10583,-1.5875 -0.0356,-0.52917 -0.12947,-0.99978 -0.28222,-1.41111 -0.25859,-0.70556 -0.86431,-1.24637 -1.81681,-1.62278 -0.44697,-0.17639 -0.93521,-0.30586 -1.46438,-0.38806 -0.34113,-0.0705 -0.66992,-0.10583 -0.98777,-0.10583 z m 0,-0.37042 c 0.7881,0.0469 1.53493,0.18803 2.24049,0.42334 1.23472,0.39969 2.01683,1.04069 2.34562,1.92263 l 0.0176,0.0529 c 0.21202,0 0.44097,-0.0236 0.68792,-0.0705 0.1531,-0.012 0.2473,0.10583 0.28222,0.35277 0.0356,0.23531 -0.0349,0.3997 -0.21131,0.49389 -0.0942,0.0586 -0.27058,0.0882 -0.52917,0.0882 0.16439,0.9405 0.11148,1.89336 -0.1591,2.8575 -0.31715,1.04633 -0.81704,1.83444 -1.49931,2.36361 -0.43497,0.32914 -0.91122,0.57608 -1.4284,0.74083 -0.51752,0.16475 -1.05833,0.24694 -1.62277,0.24694 -0.52917,0 -1.04669,-0.0649 -1.55223,-0.19402 -0.49424,-0.14111 -0.95285,-0.34714 -1.37618,-0.61736 -0.7874,-0.48225 -1.40476,-1.19945 -1.85208,-2.15195 -0.38771,-0.88194 -0.5641,-1.75224 -0.52917,-2.61055 0.0116,-0.22366 0.0413,-0.42933 0.0882,-0.61736 h -0.0176 l -0.0882,-1.46403 c -0.11747,-0.10584 -0.28187,-0.20602 -0.49353,-0.29986 -0.36442,-0.14111 -0.8054,-0.21167 -1.32292,-0.21167 -0.49389,0 -0.91758,0.0706 -1.27035,0.21167 -0.23531,0.0938 -0.39935,0.19402 -0.49354,0.29986 l -0.0529,1.46403 c 0.0349,0.2233 0.0589,0.42933 0.0706,0.61736 0.0349,0.85831 -0.15311,1.72861 -0.5648,2.61055 -0.42298,0.9525 -1.0287,1.6697 -1.81645,2.15195 -0.42333,0.25858 -0.88794,0.45861 -1.39347,0.59972 -0.49424,0.12947 -0.99942,0.19403 -1.51695,0.19403 -0.58808,0 -1.14088,-0.0766 -1.65805,-0.22931 -0.50589,-0.17639 -0.97614,-0.42333 -1.41111,-0.74083 -0.69392,-0.52917 -1.18816,-1.31728 -1.48202,-2.36361 -0.28187,-0.96414 -0.34079,-1.917 -0.17639,-2.8575 -0.24695,0 -0.42898,-0.0353 -0.54645,-0.10584 -0.16475,-0.0825 -0.22966,-0.24094 -0.19403,-0.47625 0.0349,-0.24694 0.12911,-0.36477 0.28222,-0.35277 0.0233,0 0.11148,0.0116 0.26458,0.0353 0.15276,0.0236 0.28787,0.0353 0.4057,0.0353 l 0.0176,-0.0529 c 0.34113,-0.88194 1.12254,-1.52294 2.34562,-1.92263 0.71719,-0.23531 1.47002,-0.37642 2.25813,-0.42334 1.83444,-0.0705 3.21627,0.39406 4.14513,1.39347 0.27023,0.28223 0.48754,0.60537 0.65229,0.97014 l 0.0356,-0.70555 c 0,-0.012 0.0349,-0.0646 0.10583,-0.15875 0.10549,-0.10584 0.22296,-0.20602 0.35278,-0.29986 0.43498,-0.28223 0.98178,-0.42334 1.64042,-0.42334 0.69391,0 1.25236,0.14111 1.67569,0.42334 0.21167,0.14111 0.36442,0.29386 0.45861,0.45861 l 0.0349,0.0353 0.0356,0.68791 c 0.16475,-0.36477 0.38206,-0.69391 0.65264,-0.98778 0.92851,-0.99941 2.31634,-1.46402 4.16243,-1.39347 z m -13.59924,0.35278 c -0.1531,0 -0.26458,0.006 -0.33549,0.0176 -0.31715,0 -0.65828,0.0353 -1.0227,0.10583 -0.52917,0.0822 -1.01141,0.21167 -1.44674,0.38806 -0.9525,0.37641 -1.56351,0.91722 -1.83445,1.62278 -0.14075,0.41134 -0.23495,0.88194 -0.28222,1.41111 -0.0233,0.52916 0.0176,1.05833 0.12383,1.5875 0.10583,0.58772 0.28786,1.11689 0.5468,1.5875 0.25859,0.47025 0.57009,0.84666 0.93451,1.12888 0.8001,0.61137 1.75225,0.91723 2.85785,0.91723 0.47026,0 0.94086,-0.0589 1.41111,-0.17639 0.4819,-0.14111 0.91687,-0.33514 1.30528,-0.58209 0.72884,-0.43532 1.30493,-1.1056 1.72826,-2.01083 0.36477,-0.81139 0.52917,-1.62278 0.49424,-2.43416 -0.0356,-0.75283 -0.27058,-1.42311 -0.70555,-2.01084 -0.77612,-1.03505 -2.03447,-1.55222 -3.77473,-1.55222"
       style="fill:#100f0d;fill-opacity:1;fill-rule:evenodd;stroke:none;stroke-width:0.03527778"
       id="path1242" />
  </g>
</svg>
